<svg width="127" height="32" viewBox="0 0 127 32" fill="none" xmlns="http://www.w3.org/2000/svg">
<path d="M101.444 8.23514H101.749C102.14 8.23514 102.239 7.99675 102.256 7.87271C102.274 7.74092 102.218 7.5161 101.845 7.5161H101.539L101.442 8.23514H101.444ZM101.119 7.10716H101.906C102.202 7.10716 102.378 7.15755 102.508 7.26609C102.64 7.37462 102.77 7.56456 102.735 7.83589C102.714 7.99288 102.619 8.23708 102.413 8.39988C102.243 8.53361 102.094 8.56462 101.962 8.59369L102.543 9.4639H101.968L101.409 8.56074H101.402L101.281 9.4639H100.807L101.121 7.10522L101.119 7.10716Z" fill="#1D1D1B"/>
<path d="M103.723 6.64199L104.559 6.21948L104.702 6.55477L103.861 6.93852L103.723 6.64393V6.64199ZM103.384 7.10713H104.764L104.71 7.51607H103.805L103.727 8.09363H104.594L104.539 8.50063H103.673L103.599 9.0588H104.505L104.45 9.46774H103.07L103.386 7.10907L103.384 7.10713Z" fill="#1D1D1B"/>
<path d="M106.238 8.26434H107.911L107.903 8.31473C107.814 8.98725 107.102 9.51248 106.385 9.51248C105.668 9.51248 105.075 8.99306 105.17 8.28566C105.263 7.59182 105.974 7.05884 106.699 7.05884C107.343 7.05884 107.758 7.46003 107.845 7.79726H107.277C107.188 7.64221 106.977 7.46584 106.635 7.46584C106.058 7.46584 105.695 7.91742 105.645 8.2876C105.597 8.64808 105.831 9.10354 106.44 9.10354C106.756 9.10354 107.071 8.94461 107.256 8.6694H106.182L106.236 8.2624L106.238 8.26434Z" fill="#1D1D1B"/>
<path d="M108.658 7.10718L108.342 9.46585H108.817L109.131 7.10718H108.658Z" fill="#1D1D1B"/>
<path d="M110.828 9.10547C111.319 9.10547 111.747 8.72561 111.805 8.28953C111.865 7.83795 111.53 7.46778 111.047 7.46778C110.565 7.46778 110.133 7.83795 110.071 8.28953C110.012 8.72561 110.34 9.10547 110.828 9.10547ZM111.102 7.05884C111.83 7.05884 112.371 7.59375 112.278 8.29147C112.189 8.96593 111.511 9.51248 110.772 9.51248C110.034 9.51248 109.505 8.96593 109.594 8.29147C109.687 7.59375 110.373 7.05884 111.102 7.05884Z" fill="#1D1D1B"/>
<path d="M112.906 7.09937H113.437L114.257 8.78745H114.264L114.489 7.09937H114.956L114.646 9.41927H114.125L113.295 7.73313H113.29L113.063 9.41927H112.596L112.906 7.09937Z" fill="#1D1D1B"/>
<path d="M90.0745 9.88843H91.3013L93.1871 14.1193H93.2046L93.724 9.88843H94.8016L94.0864 15.7085H92.8828L90.9719 11.4777H90.9564L90.437 15.7085H89.3594L90.0745 9.88843Z" fill="#1D1D1B"/>
<path d="M98.8267 13.5028C98.9256 12.6946 98.3771 12.0977 97.7123 12.0977C97.1619 12.0977 96.3537 12.5686 96.2394 13.495C96.1367 14.3323 96.7006 14.8769 97.3732 14.8769C98.1484 14.8769 98.7415 14.2063 98.8267 13.5028ZM95.1773 13.495C95.342 12.1539 96.563 11.1228 97.8325 11.1228C99.1019 11.1228 100.059 12.1209 99.8908 13.4776C99.7124 14.9312 98.4818 15.8498 97.2511 15.8498C95.9332 15.8498 95.0203 14.7645 95.1753 13.495" fill="#1D1D1B"/>
<path d="M104.79 11.2742L104.245 15.7066H103.271L103.327 15.2589H103.311C103.106 15.4992 102.774 15.85 102.096 15.85C101.288 15.85 100.883 15.4508 100.697 15.1484C100.427 14.6775 100.515 13.9584 100.561 13.5902L100.846 11.2742H101.908L101.629 13.534C101.584 13.8925 101.464 14.8752 102.391 14.8752C103.061 14.8752 103.362 14.2433 103.449 13.5418L103.728 11.2742H104.79Z" fill="#1D1D1B"/>
<path d="M105.338 11.2742H106.487L107.197 14.2143H107.22L108.586 11.2742H109.753L107.412 15.7085H106.582L105.338 11.2742Z" fill="#1D1D1B"/>
<path d="M113.272 13.1116C113.239 12.4003 112.728 12.0728 112.2 12.0728C111.809 12.0728 111.121 12.2879 110.819 13.1116H113.27H113.272ZM110.747 13.9663C110.758 14.2551 111.1 14.8772 111.857 14.8772C112.328 14.8772 112.704 14.6776 112.95 14.3094H114.069C113.714 15.1078 112.776 15.8501 111.737 15.8501C110.419 15.8501 109.526 14.7958 109.687 13.5031C109.84 12.2491 110.946 11.0999 112.313 11.0999C113.679 11.0999 114.456 12.3131 114.319 13.4314C114.294 13.6388 114.239 13.8229 114.189 13.9663H110.747Z" fill="#1D1D1B"/>
<path d="M115.514 9.79736H116.576L115.851 15.7086H114.789L115.514 9.79736Z" fill="#1D1D1B"/>
<path d="M117.508 9.79736H118.57L117.845 15.7086H116.783L117.508 9.79736Z" fill="#1D1D1B"/>
<path d="M122.453 13.1116C122.42 12.4003 121.909 12.0728 121.384 12.0728C120.992 12.0728 120.302 12.2879 120.002 13.1116H122.453ZM119.928 13.9663C119.942 14.2551 120.281 14.8772 121.039 14.8772C121.51 14.8772 121.886 14.6776 122.132 14.3094H123.25C122.895 15.1078 121.959 15.8501 120.92 15.8501C119.602 15.8501 118.709 14.7958 118.868 13.5031C119.023 12.2491 120.13 11.0999 121.496 11.0999C122.862 11.0999 123.639 12.3131 123.502 13.4314C123.475 13.6388 123.42 13.8229 123.372 13.9663H119.93H119.928Z" fill="#1D1D1B"/>
<path d="M124.242 13.4798C124.269 13.2569 124.476 13.0728 124.701 13.0728H125.992C126.216 13.0728 126.377 13.2549 126.35 13.4798L126.341 13.5612C126.311 13.784 126.106 13.9682 125.879 13.9682H124.588C124.364 13.9682 124.201 13.786 124.23 13.5612L124.24 13.4798H124.242Z" fill="#1D1D1B"/>
<path d="M116.323 17.8054C116.28 18.1581 115.959 18.443 115.608 18.443C115.257 18.443 115.005 18.1581 115.048 17.8054C115.09 17.4546 115.412 17.1697 115.763 17.1697C116.114 17.1697 116.366 17.4546 116.321 17.8054" fill="#1D1D1B"/>
<path d="M91.5865 20.9256H92.8889L92.4761 19.0418H92.4606L91.5865 20.9256ZM92.2591 17.4409H93.0789L94.7011 23.5808H93.544L93.1331 21.9974H91.102L90.3016 23.5808H89.1445L92.261 17.4409H92.2591Z" fill="#1D1D1B"/>
<path d="M97.4542 22.7164C98.1751 22.7164 98.7682 22.0186 98.8573 21.2822C98.9465 20.5592 98.5531 19.8305 97.8011 19.8305C97.0491 19.8305 96.4754 20.503 96.3824 21.2589C96.268 22.1873 96.8165 22.7183 97.4522 22.7183M100.105 18.9758L99.2585 25.7805H98.2391L98.5763 23.1389C98.0046 23.728 97.3301 23.728 97.208 23.728C95.9192 23.728 95.2118 22.5012 95.3668 21.2318C95.5296 19.9119 96.6537 18.8169 97.8185 18.8169C98.6849 18.8169 98.9678 19.3227 99.086 19.5553H99.1015L99.1733 18.9739H100.109L100.105 18.9758Z" fill="#1D1D1B"/>
<path d="M104.714 18.9761L104.149 23.581H103.214L103.273 23.1159H103.257C103.057 23.3659 102.738 23.7302 102.084 23.7302C101.309 23.7302 100.924 23.3174 100.749 22.9996C100.495 22.5112 100.586 21.7631 100.633 21.3832L100.929 18.9761H101.949L101.66 21.3251C101.614 21.6991 101.488 22.7185 102.379 22.7185C103.023 22.7185 103.319 22.0635 103.408 21.3328L103.697 18.9761H104.716H104.714Z" fill="#1D1D1B"/>
<path d="M107.674 19.9549H107.176L107.296 18.9742H107.796L107.984 17.4392H109.003L108.815 18.9742H109.428L109.308 19.9549H108.693L108.249 23.5811H107.23L107.674 19.9549Z" fill="#1D1D1B"/>
<path d="M111.897 19.8305C111.062 19.8305 110.536 20.6096 110.451 21.2996C110.354 22.0787 110.814 22.7183 111.542 22.7183C112.271 22.7183 112.858 22.1214 112.963 21.2667C113.079 20.3112 112.504 19.8305 111.897 19.8305ZM113.645 23.5807H112.709L112.779 23.0071C112.407 23.4218 111.74 23.728 111.203 23.728C110.108 23.728 109.25 22.7823 109.436 21.2492C109.608 19.8383 110.686 18.8169 111.866 18.8169C112.734 18.8169 113.165 19.4894 113.186 19.5572H113.201L113.273 18.9758H114.209L113.643 23.5807H113.645Z" fill="#1D1D1B"/>
<path d="M116.98 18.9758H117.922L117.873 19.3731C118.063 19.1987 118.463 18.8169 119.108 18.8169C119.476 18.8169 120.013 18.9913 120.31 19.4565C120.637 19.9623 120.544 20.7356 120.5 21.0903L120.193 23.5788H119.174L119.453 21.3054C119.5 20.9236 119.635 19.8286 118.775 19.8286C118.591 19.8286 118.249 19.9274 118.027 20.2356C117.808 20.5166 117.747 20.9973 117.701 21.3888L117.432 23.5788H116.412L116.978 18.9739L116.98 18.9758Z" fill="#1D1D1B"/>
<path d="M124.644 20.8829C124.621 20.1445 124.134 19.8054 123.627 19.8054C123.251 19.8054 122.586 20.0282 122.289 20.8829H124.644ZM122.212 21.7706C122.221 22.0691 122.539 22.7164 123.268 22.7164C123.72 22.7164 124.084 22.509 124.322 22.1272H125.396C125.049 22.9567 124.14 23.7281 123.146 23.7281C121.88 23.7281 121.033 22.6331 121.198 21.288C121.359 19.9856 122.433 18.7898 123.743 18.7898C125.053 18.7898 125.79 20.0515 125.646 21.2124C125.619 21.4276 125.567 21.6175 125.516 21.7687H122.21L122.212 21.7706Z" fill="#1D1D1B"/>
<path d="M105.055 23.5771H106.074L106.64 18.9722H105.621L105.055 23.5771Z" fill="#1D1D1B"/>
<path d="M106.983 17.7433C106.936 18.1174 106.599 18.4178 106.225 18.4178C105.851 18.4178 105.589 18.1174 105.634 17.7433C105.678 17.3712 106.018 17.0708 106.39 17.0708C106.762 17.0708 107.027 17.3712 106.981 17.7433" fill="#1D1D1B"/>
<path d="M114.473 23.5771H115.492L116.058 18.9722H115.039L114.473 23.5771Z" fill="#1D1D1B"/>
<path d="M85.0565 15.1249V1.41094C85.0565 0.633759 84.4228 0 83.6456 0H60.0783C59.3011 0 58.6693 0.631821 58.6693 1.409V15.1249C58.6654 15.247 58.6576 15.6289 58.6983 16.2103C58.741 16.8208 58.8476 17.7821 59.1131 18.9042C59.365 19.9741 59.7178 21.0168 60.1616 22.0013C60.2411 22.1777 60.3225 22.3521 60.4077 22.5246C60.65 23.015 60.9213 23.4995 61.2159 23.9646C61.7644 24.8329 62.3962 25.643 63.094 26.3756C63.2316 26.521 63.3692 26.6625 63.5068 26.8001C63.9467 27.2439 64.3964 27.6664 64.8441 28.0598C65.2394 28.4068 65.6484 28.744 66.0573 29.058C66.3635 29.2925 66.6698 29.5173 66.9721 29.7247C69.261 31.3003 71.0072 31.8062 71.4879 31.9244L71.8658 32L72.234 31.9244C72.5752 31.8411 73.5074 31.5775 74.7923 30.9089C75.6722 30.4515 76.5676 29.8836 77.4495 29.2227C78.5329 28.4106 79.6027 27.4532 80.628 26.3776C81.7056 25.2477 82.6106 23.9511 83.3161 22.5246C83.8782 21.3889 84.3142 20.1718 84.6108 18.9062C84.8763 17.784 84.9829 16.8208 85.0255 16.2103C85.0662 15.6153 85.0585 15.2354 85.0546 15.1269L85.0565 15.1249Z" fill="#B32D38"/>
<path d="M84.3489 15.1423V1.45935C84.3489 1.05041 84.0155 0.718994 83.6066 0.718994H60.1187C59.7117 0.718994 59.3803 1.05041 59.3803 1.45741V15.1346C59.3803 15.1501 59.3629 15.53 59.4075 16.1637C59.4482 16.7452 59.5489 17.6658 59.8048 18.7433C60.047 19.7705 60.3842 20.7667 60.8087 21.7067C60.8843 21.8753 60.9637 22.042 61.0451 22.2067C61.2758 22.6738 61.5374 23.137 61.8165 23.5828C62.3398 24.4104 62.9425 25.1856 63.6073 25.8833C63.741 26.0248 63.8748 26.1624 64.0085 26.2961C64.4388 26.7283 64.8748 27.1411 65.307 27.5191C65.6908 27.8563 66.0862 28.1819 66.4815 28.4862C66.7761 28.7129 67.0746 28.93 67.3653 29.1316C69.5534 30.6394 71.1989 31.1162 71.6543 31.2267L71.8636 31.2674L72.0768 31.2228C72.3927 31.1472 73.2591 30.8991 74.4762 30.2673C75.3212 29.8273 76.1817 29.2827 77.0326 28.6451C78.083 27.8582 79.1199 26.9279 80.118 25.8833C81.1452 24.8057 82.0096 23.5692 82.6821 22.2087C83.219 21.1214 83.6357 19.9566 83.9225 18.7433C84.1764 17.6658 84.2791 16.7452 84.3198 16.1637C84.3625 15.561 84.3489 15.1927 84.3469 15.1443L84.3489 15.1423ZM64.1907 9.45596C64.2682 10.2486 64.0279 11.1344 63.7721 12.0724C63.524 12.9814 63.2681 13.9213 63.3127 14.8051C63.3399 15.3594 63.5182 15.8963 63.7081 16.4641C63.8825 16.9874 64.0628 17.5282 64.1112 18.0766C64.181 18.8751 63.9445 19.6775 63.7158 20.4527C63.5143 21.133 63.3069 21.8385 63.3127 22.5304C63.3185 23.2746 63.5337 24.0654 63.7585 24.8348C63.179 24.1642 62.6596 23.4355 62.2138 22.6641C62.1789 22.606 62.1479 22.5459 62.115 22.4858L62.0898 22.4412C62.1421 21.918 62.3088 21.414 62.4696 20.9276C62.6557 20.3655 62.8476 19.7841 62.8708 19.162C62.9038 18.2278 62.6828 17.5611 62.4677 16.9177C62.2972 16.4002 62.1189 15.8653 62.0723 15.1908C62.0045 14.2489 62.2642 13.336 62.5162 12.4542C62.7526 11.6247 62.9774 10.8417 62.9484 10.0413C62.927 9.44239 62.7158 8.86677 62.5103 8.31054C62.3165 7.78531 62.1169 7.24071 62.0704 6.66703C61.9793 5.58557 62.2603 4.72505 62.5336 3.89167C62.7856 3.12224 63.0239 2.39351 62.9755 1.52912H64.2701C64.2934 2.28498 64.0666 2.92455 63.8263 3.60095C63.5647 4.33549 63.2953 5.09523 63.3108 6.08172C63.3185 6.65152 63.5162 7.18063 63.7236 7.74074C63.9213 8.27372 64.1267 8.82414 64.1887 9.4579L64.1907 9.45596ZM60.7971 6.88022C60.8513 7.42289 61.0548 7.96556 61.2506 8.49078C61.456 9.03733 61.6479 9.55286 61.675 10.0471C61.7196 10.832 61.4928 11.6014 61.2545 12.4174C60.9734 13.3787 60.6808 14.3749 60.7971 15.5028C60.8552 16.0707 61.0355 16.5882 61.2099 17.0882C61.3959 17.6251 61.5743 18.1309 61.5956 18.6716C61.6266 19.3945 61.4425 20.0341 61.2467 20.6485C60.9812 19.9663 60.7622 19.2666 60.5974 18.567C60.1381 16.6231 60.1924 15.1695 60.1924 15.152V2.11637C60.1924 1.7927 60.456 1.52912 60.7796 1.52912H61.675C61.7642 2.33925 61.52 3.15325 61.2583 4.01377C60.9831 4.92661 60.6963 5.87047 60.7951 6.88022H60.7971ZM64.9795 20.7532C65.1578 20.2376 65.3419 19.7046 65.3807 19.1659C65.4679 18.0204 65.2159 17.2491 64.9717 16.5048C64.7837 15.9331 64.6074 15.3924 64.5822 14.6985C64.5492 13.7915 64.7993 12.8961 65.0415 12.0317C65.3012 11.1014 65.5474 10.2234 65.4621 9.34355C65.4078 8.77568 65.2043 8.23108 65.0066 7.70391C64.7954 7.14186 64.5977 6.61082 64.5822 6.07591C64.5647 5.46153 64.7741 4.76575 64.9931 4.02927C65.2334 3.22496 65.4815 2.39545 65.5008 1.52718H66.6346C66.6075 2.17645 66.4118 2.82765 66.2044 3.51568C65.9292 4.42852 65.6443 5.37238 65.745 6.38407C65.7993 6.92867 66.0028 7.47134 66.1986 7.99657C66.4021 8.54311 66.5959 9.05865 66.623 9.55092C66.6656 10.3359 66.4408 11.1053 66.2024 11.9193C65.9214 12.8825 65.6288 13.8768 65.745 15.0047C65.8032 15.5726 65.9834 16.0901 66.1579 16.5901C66.3439 17.125 66.5203 17.6328 66.5435 18.1697C66.5765 18.9507 66.3594 19.6329 66.1482 20.2938C65.9466 20.9276 65.7373 21.5827 65.7431 22.3288C65.7509 23.2378 66.0106 24.139 66.2606 25.0092C66.528 25.9395 66.78 26.8175 66.7063 27.6257C66.3362 27.3311 65.966 27.019 65.6055 26.6934L65.4679 26.5675C65.3671 25.9666 65.1985 25.3755 65.0357 24.8038C64.7954 23.9646 64.5686 23.17 64.5802 22.4316C64.5899 21.8714 64.7876 21.3016 64.9776 20.7512L64.9795 20.7532ZM67.5126 24.953C67.2626 24.0847 67.0029 23.1874 67.0184 22.2339C67.0281 21.604 67.2258 21.009 67.4157 20.4334C67.6017 19.8713 67.7956 19.2899 67.8169 18.6678C67.8479 17.7317 67.6269 17.063 67.4138 16.4176C67.2432 15.9021 67.0649 15.3672 67.0184 14.6946C66.9505 13.7527 67.2122 12.8399 67.4641 11.9561C67.7006 11.1285 67.9254 10.3455 67.8983 9.54511C67.877 8.94624 67.6657 8.37062 67.4603 7.81439C67.2665 7.28916 67.0668 6.74455 67.0184 6.17087C66.9292 5.08941 67.2083 4.22696 67.4816 3.39358C67.6831 2.77338 67.875 2.18614 67.9196 1.52718H82.9515C83.2752 1.52718 83.5388 1.79076 83.5388 2.11443V15.1637C83.5407 15.2218 83.593 16.6211 83.1356 18.5534C82.8643 19.7066 82.467 20.8132 81.9573 21.8443C81.3216 23.1293 80.5056 24.2999 79.5346 25.3193C78.5675 26.333 77.5636 27.2322 76.55 27.992C75.734 28.6025 74.9123 29.1258 74.106 29.5444C72.949 30.1471 72.164 30.3681 71.8656 30.4378C71.5632 30.3661 70.7744 30.1433 69.6135 29.5386C69.0146 29.2265 68.4041 28.8544 67.7975 28.4358C67.906 28.1276 67.9642 27.8485 67.9758 27.585C68.0184 26.6973 67.7742 25.8484 67.5145 24.9511L67.5126 24.953Z" fill="white"/>
<path d="M76.2232 15.8363C76.2232 15.8363 76.2212 15.8305 76.2193 15.8286C76.2018 15.7976 76.1863 15.7821 76.1767 15.7801C76.0836 15.7123 75.9092 15.7607 75.8918 15.908C75.8782 16.0515 75.9887 16.1445 76.1243 16.1561C76.198 16.1639 76.2193 16.096 76.227 16.0263C76.2367 15.972 76.2367 15.9332 76.2348 15.9022C76.2348 15.9022 76.227 15.8518 76.2212 15.8363H76.2232Z" fill="white"/>
<path d="M75.873 14.7722C75.9137 15.0029 76.0029 15.6017 76.2277 15.6676C76.3498 15.3827 76.1676 14.8846 75.873 14.7722Z" fill="white"/>
<path d="M71.3791 6.76209C71.4644 6.74077 71.5865 6.6303 71.5283 6.53339C71.4469 6.4016 71.2977 6.38997 71.1543 6.36865C71.2357 6.49269 71.1446 6.81635 71.3791 6.76209Z" fill="white"/>
<path d="M69.7289 7.11678C69.7812 6.77568 69.349 7.00631 69.2715 7.1633C69.3878 7.15554 69.6998 7.2854 69.7289 7.11678Z" fill="white"/>
<path d="M70.5925 6.57598C70.7417 6.29108 70.3173 6.26395 70.1758 6.34922C70.2359 6.38411 70.5401 6.67676 70.5925 6.57598Z" fill="white"/>
<path d="M69.7773 8.99848C70.2735 8.98685 69.8568 9.5082 69.7773 8.99848Z" fill="white"/>
<path d="M72.1749 11.7717C72.3532 11.576 72.5025 11.4306 72.7331 11.2911C72.4269 11.0798 71.9055 10.7833 72.0974 10.3143C72.1846 10.0992 72.4017 10.3937 72.5625 10.4093C72.7874 10.4306 73.0587 10.4344 73.2699 10.3434C73.206 10.262 72.9967 10.2232 72.9056 10.134C72.7292 9.96349 72.673 9.74448 72.7447 9.50997C72.7835 9.39175 72.173 9.01963 72.0431 8.88978C71.7543 8.60682 71.3241 8.19594 71.3842 7.74824C71.4016 7.63195 71.421 7.44202 71.514 7.36062C71.5625 7.31992 71.6012 6.85477 71.576 6.80826C71.4423 6.87415 71.2737 6.93618 71.1535 6.80632C71.0062 6.64934 71.0353 6.96331 71.0489 7.00595C71.1109 7.18619 71.2 7.34511 71.2156 7.53892C71.2272 7.70948 71.0353 7.90329 71.0353 7.66296C70.9016 7.51761 70.8086 7.37031 70.7058 7.20169C70.6671 7.13774 70.731 6.6629 70.6012 6.75593C70.5217 6.81407 70.4093 6.75012 70.3453 6.81601C70.2833 6.87609 70.3357 6.99819 70.3066 7.07572C70.2446 7.26178 69.981 7.10091 69.8918 7.05052C69.8414 7.27922 69.5527 7.35674 69.7542 7.59707C69.9635 7.84514 70.2969 7.76181 70.5062 8.02345C70.731 8.30641 70.4461 8.61263 70.169 8.6669C70.1031 8.68047 70.0333 8.81226 70.0876 8.87234C70.2039 9.00413 70.1632 9.20569 70.0934 9.34136C70.2232 9.39369 70.3957 9.35105 70.5081 9.28128C70.6613 9.18437 70.5779 9.05646 70.764 9.05452C70.7911 9.05452 70.9016 9.38787 70.9171 9.42082C71.0198 9.63401 70.9946 9.80456 70.8783 10.0061C70.731 10.26 71.0276 10.6476 70.981 10.9287C70.9151 11.3143 70.7058 11.2717 70.4267 11.0818C70.3531 11.1399 70.6109 11.3027 70.6496 11.3124C70.9268 11.3899 71.0857 11.2271 71.1477 11.0004C71.2078 10.7833 71.1555 10.5624 71.2466 10.3414C71.3628 10.0701 71.5838 10.2639 71.4791 10.3647C71.2214 10.6205 71.8648 11.0624 71.7912 11.3783C71.7621 11.4927 72.0703 11.764 72.171 11.7698L72.1749 11.7717Z" fill="white"/>
<path d="M69.7449 14.1541C69.6286 13.9641 69.1247 14.187 69.0859 14.3673C69.1499 14.3673 69.9329 14.468 69.7449 14.1541Z" fill="white"/>
<path d="M69.5548 15.8672C69.5238 15.7141 69.0761 16.0203 69.2137 16.2742C69.2176 16.2742 69.2292 16.2878 69.2234 16.2936C69.328 16.1948 69.5916 16.0494 69.5548 15.8672Z" fill="white"/>
<path d="M70.8752 16.313C70.7841 16.5146 70.4604 16.4583 70.3906 16.596C70.5573 16.9506 71.1697 16.3111 70.8752 16.313Z" fill="white"/>
<path d="M68.8543 15.2607C68.9241 15.2239 69.3292 15.251 69.1276 15.0339C69.0249 15.0688 68.8156 15.1018 68.8543 15.2607Z" fill="white"/>
<path d="M73.0193 14.71C73.091 14.6926 73.4942 14.5104 73.5271 14.6422C73.5523 14.7352 73.4942 14.8515 73.6453 14.8593C73.7171 14.8631 73.8721 14.8244 73.8837 14.7333C73.8973 14.6209 74.0446 14.7895 74.0698 14.8011C74.1861 14.8496 74.4283 14.7953 74.4923 14.6771C74.2636 14.6267 74.1396 14.4523 74.252 14.2158C74.3489 14.0123 74.3915 14.0763 74.2675 13.8592C74.1919 13.7293 74.1551 13.5859 74.1066 13.4444C73.8469 13.9038 73.5736 14.1712 73.0252 14.2701C72.6589 14.334 71.8235 14.0181 72.089 13.5123C72.1821 13.334 72.4515 13.1905 72.6569 13.1421C72.6608 13.1421 72.6627 13.1421 72.6647 13.1421C72.684 13.1382 72.7034 13.1324 72.7209 13.1305C73.0077 13.0898 72.6744 13.3882 72.6647 13.4328C72.6085 13.7255 73.0833 13.4813 73.1608 13.4115C73.248 13.332 73.217 13.177 73.1976 13.0762C73.1705 12.9231 73.1628 12.7622 73.1259 12.6111C73.06 12.6052 73.0038 12.6556 72.9534 12.6905C72.7771 12.8107 72.5891 12.9173 72.4146 13.0394C72.1801 13.2022 71.9573 13.3805 71.7441 13.5704C71.5813 13.7158 71.4243 13.8689 71.2731 14.0278C71.089 14.2236 70.6335 14.7003 70.306 14.5007C70.2188 14.4484 70.0851 14.1247 70.025 14.1247C69.7827 14.1208 69.9126 14.2313 69.8118 14.3922C69.7614 14.4736 69.6625 14.4891 69.587 14.5298C69.6199 14.6267 69.8253 14.743 69.6877 14.8186C69.5598 14.8845 69.3563 14.8786 69.2148 14.9135C69.2652 15.0182 69.3253 15.1287 69.2652 15.2449C69.2245 15.3263 69.3854 15.3864 69.4261 15.4562C69.4668 15.5395 69.4377 15.619 69.5172 15.6674C69.6373 15.7353 69.6974 15.8477 69.678 15.9892C69.6354 16.3186 70.1141 15.7643 70.1296 15.7488C70.2634 15.6112 70.8719 15.4678 70.7246 15.8361C70.6781 15.9543 70.5735 16.0415 70.6665 16.1772C70.839 16.1636 70.8894 16.1558 71.0425 16.2392C71.3661 16.0473 71.2014 15.9523 71.1045 15.6616C71.0696 15.5589 71.4882 15.5628 71.5871 15.4349C71.808 15.1442 71.8138 15.5182 71.8332 15.714C71.9553 15.7043 72.0038 15.5589 72.027 15.4639C72.0774 15.2624 72.3681 15.619 72.3565 15.4252C72.3488 15.3108 72.3681 15.1965 72.4398 15.0996C72.5212 14.9891 72.6123 15.2062 72.5968 15.2701C72.5658 15.4252 72.9961 15.4136 73.1221 15.4562C73.1259 15.4562 73.1298 15.4562 73.1356 15.4562C73.1744 15.3302 72.8275 14.7546 73.0193 14.71Z" fill="white"/>
<path d="M71.039 19.1408C71.5855 18.8598 70.9576 18.7241 70.7754 19.0051C70.8878 19.0051 70.9692 19.0613 71.039 19.1408Z" fill="white"/>
<path d="M72.5419 21.2303C72.5477 20.8737 72.2454 21.2245 72.1562 21.2923C72.2318 21.3253 72.5381 21.4028 72.5419 21.2303Z" fill="white"/>
<path d="M70.334 19.9332C70.4154 19.877 70.8476 19.7588 70.6635 19.6328C70.4638 19.4971 70.3398 19.7879 70.334 19.9332Z" fill="white"/>
<path d="M70.8509 20.9587C70.8761 20.8599 70.9575 20.8095 71.0389 20.7669C70.9051 20.354 70.6202 20.8328 70.8509 20.9587Z" fill="white"/>
<path d="M72.6821 20.8771C72.9031 20.6659 72.779 20.6659 72.5755 20.4973C72.4418 20.3829 72.403 20.2492 72.5562 20.1387C72.6879 20.0438 72.9728 20.2938 73.1376 20.2744C73.2771 20.2569 73.5039 20.2007 73.5523 20.0438C73.5698 19.9856 73.6551 19.4488 73.7907 19.6581C73.9012 19.8286 73.7907 19.9895 74.0349 20.1271C74.1822 20.2085 74.4768 20.3132 74.6416 20.2434C74.4419 20.1 74.1318 19.9391 74.3877 19.691C74.4749 19.6096 74.3954 19.4139 74.4458 19.3034C74.5214 19.1503 74.6978 19.1329 74.5931 18.9894C74.5098 18.8751 74.6532 18.7627 74.7191 18.6871C74.6823 18.5456 74.7617 18.4661 74.6784 18.3285C74.5563 18.1212 74.2946 17.9138 74.3877 17.6308C74.6183 16.9428 75.221 16.5377 75.942 16.4292C75.9808 16.4234 76.194 16.435 76.1998 16.3769C76.2153 16.1792 76.1029 16.309 75.975 16.2218C75.5777 15.9505 76.1707 15.7954 75.692 14.6965C75.3664 14.712 75.1377 14.9911 74.94 15.2256C74.7385 15.466 74.5233 15.5978 74.2287 15.6888C73.9768 15.7644 73.7268 15.7625 73.502 15.9156C73.3527 16.0164 73.2015 16.1152 73.0794 16.247C72.9729 16.3614 72.9283 16.5416 72.7984 16.6327C72.6356 16.749 72.6608 16.7122 72.6085 16.9021C72.5736 17.0339 72.5852 17.1637 72.5542 17.2955C72.4941 17.5862 72.2751 17.7839 72.0348 17.9332C72.3003 18.0184 72.4961 18.0088 72.6744 17.7607C72.7383 17.6696 72.7868 17.5649 72.8372 17.4641C72.8818 17.3847 72.9767 17.4409 72.9554 17.5203C72.8818 17.8072 73.2015 17.8963 73.3004 18.1541C73.4012 18.4216 73.2326 18.7317 73.0039 18.8731C72.8139 18.9894 72.593 18.9584 72.4418 19.1348C72.31 19.2879 72.0619 19.6348 71.8255 19.4371C71.7848 19.3984 71.6704 19.3422 71.6588 19.2782C71.6414 19.1774 71.6879 19.0011 71.5716 18.9352C71.4669 18.8751 71.1065 19.2491 71.0464 19.315C71.1724 19.4158 71.403 19.4546 71.4456 19.6368C71.465 19.724 70.9766 19.4856 70.8642 19.4836C70.8332 19.4836 70.7247 19.9527 70.7266 20.0341C70.7285 20.2201 71.1704 20.0593 71.2867 20.069C71.2945 20.2453 71.1336 20.2143 71.0134 20.2666C70.8235 20.3442 71.1084 20.5806 71.1549 20.6659C71.2111 20.7783 71.1665 20.9837 71.3681 20.8965C71.5328 20.8268 71.5018 20.6058 71.6433 20.5031C71.7557 20.4197 71.9825 20.3015 72.1259 20.3112C72.3294 20.3228 72.4127 20.4643 72.248 20.6077C72.0387 20.786 72.2596 20.8132 72.3197 20.9314C72.4922 20.883 72.6007 21.0593 72.6724 21.1737C72.7713 21.0729 72.5717 20.9779 72.6763 20.8771H72.6821Z" fill="white"/>
<path d="M76.8664 21.6563C76.9574 21.5807 77.442 21.2707 77.1687 21.1001C77.1086 21.1854 76.9264 21.1544 76.8392 21.2571C76.752 21.3598 76.7714 21.5652 76.8644 21.6563H76.8664Z" fill="white"/>
<path d="M78.2081 21.575C77.9969 21.4974 77.9852 21.9044 78.1771 21.9878C78.2101 21.8366 78.4058 21.6467 78.2081 21.575Z" fill="white"/>
<path d="M76.9135 20.4373C76.7468 20.416 76.6111 20.6602 76.6518 20.8095C76.6634 20.8056 76.646 20.7901 76.6518 20.8095C76.8553 20.73 76.9755 20.6912 76.9135 20.4373Z" fill="white"/>
<path d="M79.0117 21.5864C78.8101 21.412 78.7423 21.6194 78.8489 21.7841C78.9032 21.7182 78.9555 21.6523 79.0117 21.5864Z" fill="white"/>
<path d="M80.9487 11.206C81.3518 10.9328 81.6716 10.3164 81.0495 10.0471C81.0146 10.4056 81.0127 10.5645 80.7219 10.8049C80.4332 11.0432 80.0165 11.0335 79.7355 11.2991C79.6037 11.4231 79.4777 11.6441 79.5552 11.832C79.5823 11.8999 79.718 12.0898 79.6676 12.1712C79.5378 12.3786 79.1598 11.5665 79.1502 11.4716C79.0319 10.5374 80.251 10.2389 80.8189 9.82999C81.1425 9.59548 81.4235 9.39004 81.4546 8.96172C81.4778 8.67681 81.2859 8.22718 80.9584 8.19035C80.9506 8.19035 81.0185 8.62643 81.0224 8.67488C81.0359 8.86287 81.003 9.04118 80.8867 9.19623C80.689 9.46175 80.3343 9.53346 80.0397 9.64199C79.7122 9.76215 79.3633 9.81836 79.1114 10.0781C78.9602 10.2331 78.8885 10.4502 78.8381 10.6576C78.8129 10.7564 78.7897 11.5549 78.5881 11.0704C78.5493 10.9773 78.5784 10.518 78.6734 10.2583C78.8226 9.85906 79.1463 9.57416 79.4312 9.27956C79.7917 8.90745 80.1793 8.59154 80.4681 8.15353C80.6599 7.86281 80.8402 7.51008 80.8402 7.15347C80.8402 6.55459 80.0824 5.9596 79.5009 6.05263C79.03 6.12627 78.6773 6.24837 78.3865 6.63987C78.2547 6.81818 78.0978 7.09145 78.0997 7.32208C78.1016 7.5721 78.214 7.74846 78.2703 7.98685C78.3536 8.33377 78.7005 8.99466 78.1675 9.19041C78.2993 9.40167 78.592 9.26018 78.747 9.14584C79.3285 8.71558 79.2102 8.17291 79.0687 7.55272C78.9796 7.16316 78.9292 6.77554 79.3498 6.57204C79.7238 6.38985 80.1056 6.51195 80.3091 6.86469C80.7297 7.59729 79.97 8.40548 79.4893 8.87644C78.9699 9.38035 78.3594 9.85518 78.1675 10.5781C77.9582 11.3708 78.4272 12.148 78.8943 12.7391C78.9951 12.8651 79.375 13.3224 79.468 13.4678C79.7025 13.838 79.9893 14.3089 79.8188 14.7566C79.5242 15.5261 78.435 15.3923 78.0144 14.8535C77.9873 14.8187 77.964 14.7818 77.9388 14.745C77.9388 14.7431 77.935 14.7411 77.935 14.7392C77.933 14.7353 77.9291 14.7314 77.9272 14.7276C77.8691 14.6462 77.8148 14.5628 77.7625 14.4756C77.7353 14.433 77.7101 14.3903 77.6849 14.3458C77.6694 14.3186 77.6539 14.2934 77.6384 14.2663C77.5241 14.0686 77.4214 13.8729 77.3322 13.6926C77.15 13.3476 77.0027 12.9213 76.7779 12.6092C76.6694 12.8573 76.5686 13.0821 76.369 13.2701C76.0124 13.6073 76.6403 13.774 76.4872 14.0221C76.3496 14.2489 75.7895 13.9116 75.6926 13.7895C75.5976 13.6713 75.5065 13.5298 75.4794 13.3787C75.4697 13.3302 75.4968 13.0666 75.46 13.0472C75.2953 13.2217 75.0898 13.4097 74.9503 13.6035C74.7061 13.9523 75.0123 14.0744 75.2953 14.2159C75.9019 14.5202 76.4542 14.9039 76.3961 15.6365C76.3728 15.9156 76.2779 16.3343 76.367 16.6075C76.4174 16.7684 76.495 16.7994 76.5802 16.9273C76.6926 17.0921 76.398 16.9835 76.3806 16.9835C76.0376 16.968 76.1015 17.5068 76.0996 17.6909C76.0938 18.0824 75.8748 18.1774 75.584 18.3557L75.6034 18.3848C75.6034 18.3848 75.6402 18.4487 75.7061 18.4623C75.7061 18.4623 75.7081 18.4623 75.71 18.4623C75.741 18.4681 75.774 18.4623 75.8166 18.4371H75.8186C76.0686 18.3014 76.3806 17.6967 76.4155 17.6134C76.4775 17.4584 76.6035 17.5068 76.6674 17.627C76.7236 17.7355 76.6267 17.7471 76.7488 17.8731C76.8283 17.9584 76.9388 18.0301 77.0376 18.096C77.4679 18.3751 78.0028 18.5359 78.3594 18.9216C78.6307 19.2182 78.5881 19.817 78.3245 20.1039C77.9815 20.4799 77.5745 20.2202 77.152 20.3074C76.9969 20.3403 76.9659 20.7124 77.0492 20.8326C77.1752 21.0206 77.3962 21.0148 77.3458 21.321C77.2392 21.9586 77.7411 21.1388 77.9098 21.0109C78.0319 20.914 78.2354 20.7938 78.3924 20.8869C78.5377 20.9721 78.1927 21.3074 78.1326 21.3791C78.2392 21.4431 78.3361 21.509 78.4369 21.5846C78.4621 21.4799 78.4834 21.3791 78.5629 21.3074C78.5668 21.3055 78.5687 21.3016 78.5726 21.2997C78.5842 21.29 78.592 21.2784 78.6075 21.2706C78.7703 21.1795 78.747 21.2997 78.8342 21.3714C78.8885 21.416 79.0319 21.4412 79.1017 21.4819C79.2781 21.5826 79.1017 21.1989 79.1036 21.1834C79.1346 20.8733 79.7607 20.7279 79.6153 20.3868C79.5475 20.224 79.7006 20.1426 79.7413 20.3074C79.7723 20.4392 79.9777 20.4508 80.0766 20.4159C79.9642 20.3306 79.8537 20.2512 79.7762 20.131C79.6909 19.9992 79.7219 19.9333 79.78 19.879C79.782 19.8752 79.7858 19.8732 79.7897 19.8713C79.8459 19.8228 79.9215 19.7802 79.9564 19.7027C79.8847 19.5903 79.561 19.5612 79.8672 19.4391C80.0707 19.3577 80.3111 19.4449 80.4971 19.2589C80.3169 19.2143 80.0533 19.4449 79.9041 19.1755C79.8362 19.0534 79.7839 18.9139 79.6889 18.8112C79.6889 18.8092 79.4234 18.5786 79.5823 18.5844C79.7936 18.596 79.8343 18.8325 80.03 18.7937C80.4099 18.7239 80.5921 18.4158 80.9972 18.6057C81.1328 17.8964 79.9157 18.722 79.7955 17.9971C79.7548 17.7743 79.9777 17.7685 80.1599 17.7413C80.4797 17.6929 80.4603 17.4022 80.5165 17.1541C80.5165 17.1502 80.5165 17.1463 80.5165 17.1424C80.3208 17.1967 80.1308 17.2335 79.9331 17.2665C79.7355 17.2994 79.7238 17.5727 79.5843 17.6018C79.4854 17.6212 79.3246 17.4157 79.249 17.3711C79.0862 17.2742 78.9467 17.2316 78.8226 17.0824C78.6133 16.8285 78.3206 16.4467 78.2896 16.1153C78.2722 15.9544 78.2703 15.7935 78.2586 15.6346C78.247 15.4776 78.685 15.6559 78.7451 15.6695C79.187 15.7567 79.5184 15.6889 79.8789 15.4156C80.313 15.0861 80.2723 14.7198 80.1773 14.2295C80.0339 13.5085 80.1618 12.0104 81.2762 12.5395C81.2685 12.2642 81.0224 12.1014 80.7665 12.084C80.4894 12.0646 80.2646 12.3398 80.1289 12.5453C80.0843 12.6112 80.0843 13.0782 79.908 13.0065C79.7277 12.931 79.7762 12.4522 79.8072 12.3011C79.9176 11.7293 80.5146 11.5006 80.9487 11.208V11.206Z" fill="white"/>
<path d="M74.6602 8.84357C74.6834 8.87071 74.7125 8.87071 74.7416 8.84357C74.7241 8.82613 74.7028 8.80675 74.6834 8.78931C74.6757 8.80675 74.6679 8.82419 74.6602 8.84357Z" fill="white"/>
<path d="M74.4389 8.07812C74.3594 8.09363 74.3575 8.07812 74.3265 8.09751C74.3362 8.09169 74.3226 8.13239 74.3265 8.09751C74.3187 8.15759 74.2935 8.28744 74.4021 8.27387C74.4137 8.20798 74.4273 8.14208 74.4389 8.07812Z" fill="white"/>
<path d="M75.4621 8.16531C75.0435 8.1188 74.7683 8.35913 74.4155 8.48704C74.2159 8.55681 74.0105 8.64596 73.7953 8.56263C73.6965 8.52386 73.4329 8.32618 73.3438 8.32424C73.3883 8.87272 73.8302 9.00645 74.274 8.79907C74.4775 8.70411 74.6384 8.53937 74.8497 8.45603C75.026 8.38626 75.4447 8.36882 75.4621 8.16725" fill="white"/>
<path d="M77.5129 8.76014C77.4528 8.54307 77.5458 8.295 77.4722 8.07793C77.4489 8.01203 77.3268 7.9442 77.3307 7.87443C77.3307 7.77946 77.5129 7.71744 77.5672 7.65155C77.5071 7.64767 77.4451 7.64767 77.3869 7.63216C77.3307 7.61666 77.29 7.57984 77.259 7.53332C77.228 7.48875 77.2067 7.43642 77.1834 7.38796C77.1602 7.34339 77.1388 7.29687 77.1175 7.2523C77.1117 7.23679 77.0264 7.01585 77.0458 7.01391C76.947 7.0236 76.6252 7.16896 76.6233 6.98871C76.6233 6.90731 77.009 6.88793 77.0962 6.82979C77.2183 6.74839 77.2474 6.6418 77.1001 6.57009C76.9547 6.50031 76.7822 6.48868 76.6272 6.53132C76.4663 6.5759 76.3927 6.67474 76.2822 6.79103C76.2764 6.79684 76.2686 6.8046 76.2609 6.80653C76.2027 6.82592 76.1911 6.69606 76.1969 6.66311C76.2085 6.59916 76.2589 6.55652 76.3093 6.52163C76.3636 6.48481 76.4237 6.45768 76.4857 6.43829C76.5458 6.41698 76.6117 6.41116 76.6679 6.37821C76.5477 6.20378 76.2822 6.11657 76.0787 6.11657C75.8461 6.10494 75.6155 6.15921 75.3965 6.2251C75.2046 6.28325 75.0166 6.35496 74.8267 6.42085C74.7298 6.4538 74.5844 6.56815 74.4798 6.55458C74.4623 6.5507 74.4488 6.65536 74.4313 6.74451C74.4274 6.76583 74.4236 6.78521 74.4177 6.8046C74.41 6.83173 74.4022 6.85499 74.3925 6.86661C74.3829 6.87824 74.3712 6.88793 74.3577 6.89956C74.3518 6.90344 74.346 6.90731 74.3402 6.91313C74.1328 7.06042 73.6037 7.18446 73.8906 7.52169C73.9894 7.63798 73.9352 7.73682 73.9875 7.85892C74.0573 8.02366 74.3635 7.97327 74.4875 7.92869C74.6658 7.86667 75.3345 7.54495 75.4701 7.76589C75.6426 8.04886 75.6988 8.43842 75.5263 8.74851C75.3616 9.03923 74.9003 8.92682 74.6348 9.02372C74.6484 9.18071 74.6464 9.50243 74.8422 9.5567C75.0515 9.61484 75.3597 9.35901 75.4856 9.21947C75.5166 9.18265 75.7764 8.81441 75.8248 8.97915C75.881 9.17296 75.5729 9.51988 75.4566 9.64779C75.3151 9.79896 75.0612 9.8823 74.8596 9.87843C74.6116 9.87261 74.4197 9.74276 74.1832 9.77958C74.1774 9.77958 74.1716 9.78346 74.1638 9.78346C74.1348 9.78927 74.1076 9.79509 74.0786 9.80672C73.6444 9.9637 73.0514 9.91913 73.187 9.30862C72.8886 9.36095 72.7607 9.70206 72.9235 9.95013C73.0087 10.078 73.1677 10.173 73.315 10.2002C73.3208 10.2002 73.3305 10.2002 73.3421 10.2002C73.3537 10.2002 73.3673 10.2002 73.3828 10.2002C73.3925 10.2002 73.4041 10.2002 73.4138 10.2002C73.4177 10.2002 73.4216 10.2002 73.4254 10.2002C73.5146 10.2021 73.6192 10.2176 73.6057 10.3067C73.5882 10.4347 73.2626 10.5393 73.1483 10.5568C72.7994 10.6091 72.5591 10.5761 72.2568 10.4192C72.2316 10.7506 72.6076 11.2739 72.999 11.2177C73.1076 11.2021 73.2142 11.1731 73.3227 11.1576C73.3905 11.1479 73.4661 11.1324 73.5262 11.177C73.5766 11.2157 73.6425 11.3553 73.5708 11.4018C73.5514 11.4134 73.5281 11.4134 73.5068 11.4115C73.2801 11.3998 73.0591 11.3824 72.8382 11.4541C72.5979 11.5316 72.4583 11.6906 72.3052 11.8785C72.1637 12.0549 72.061 12.1596 71.8381 12.2293C71.7121 12.2681 71.6133 12.2022 71.5474 12.0937C71.5319 12.0665 71.3866 11.7623 71.404 11.7409C71.1268 12.0452 71.3866 12.4561 71.6521 12.6654C71.7839 12.7701 71.9544 12.865 72.1269 12.8728C72.3769 12.8825 72.6289 12.7449 72.844 12.6325C72.9874 12.5569 73.125 12.4697 73.2626 12.3825C73.3576 12.3224 73.5282 12.1712 73.6444 12.177C73.6948 12.179 73.7433 12.2158 73.7491 12.2662C73.753 12.3049 73.7297 12.3437 73.6987 12.3689C73.6231 12.427 73.5185 12.4348 73.4448 12.4968C73.1909 12.7042 73.3033 12.9542 73.3402 13.2313C73.4099 13.743 72.5882 13.9756 72.5513 13.3476C72.0106 13.6461 72.2141 13.9756 72.72 14.1326C73.0901 14.2488 73.6619 13.9465 73.8615 13.6364C73.941 13.5162 73.9817 13.3593 74.0398 13.2294C74.0631 13.179 74.2627 12.7216 74.3441 12.8689C74.4332 13.0278 74.2007 13.243 74.2491 13.4174C74.3228 13.679 74.472 14.0337 74.7259 14.1713C74.6716 14.1423 74.753 13.7779 74.7724 13.7256C74.8286 13.5628 74.943 13.431 75.067 13.3147C75.3403 13.0569 75.5128 12.7584 75.6504 12.4115C75.724 12.2293 75.8074 12.4716 75.7628 12.5879C75.6911 12.7584 75.6465 12.96 75.6329 13.1461C75.6058 13.5395 75.8733 13.9465 76.3093 13.8922C76.2318 13.7682 76.133 13.6926 76.1116 13.5414C76.0748 13.274 76.2803 13.1654 76.4159 12.9775C76.5264 12.8243 76.633 12.6286 76.6233 12.4348C76.6175 12.3301 76.5729 12.2313 76.5652 12.1266C76.5593 12.0413 76.5748 11.5704 76.7357 11.6227C76.7396 11.6247 76.7415 11.6285 76.7454 11.6324C76.8016 11.6925 76.7047 12.0142 76.7163 12.1131C76.7435 12.2952 76.8578 12.5278 77.0167 12.6557C77.1175 12.7391 77.414 12.8185 77.4819 12.648C77.4296 12.6189 77.3675 12.6131 77.3094 12.5918C77.0846 12.5123 77.04 12.239 77.0943 12.0336C77.1291 11.8844 77.2105 11.7468 77.2396 11.5995C77.2687 11.4715 77.0051 11.2913 77.0652 11.2022C77.1156 11.1285 77.4431 11.4696 77.5943 11.3998C77.4954 11.1886 77.3598 10.9676 77.4218 10.7234C77.4838 10.4812 77.5342 10.237 77.5827 9.99084C77.6098 9.83966 77.73 9.48305 77.5168 9.39971C77.447 9.37258 77.2706 9.34351 77.2319 9.26211C77.2105 9.21559 77.2338 9.13226 77.2978 9.16133C77.4703 9.24273 77.6951 9.32219 77.8579 9.1652C77.9141 9.109 77.5613 8.88806 77.5245 8.76208L77.5129 8.76014ZM75.1814 7.07012C75.1096 7.13601 74.8034 7.04104 74.7879 6.87824C74.7782 6.78134 75.2976 6.96546 75.1814 7.07012Z" fill="white"/>
<path d="M0.832379 0.0568038C0.327907 0.0803087 0 0.315358 0 0.816797V23.2464C0 23.6362 0.27746 23.9887 0.704321 23.9887H40.3675C40.7226 23.9887 41.0097 23.9574 41.1766 23.4814C41.1766 23.4814 45.1968 10.7829 45.2667 10.5557C45.4161 10.0738 45.321 9.83094 44.9136 9.57042C31.9932 1.21442 12.6778 0 3.90772 0C2.64848 0 1.60849 0.0235051 0.834319 0.0568038H0.832379Z" fill="url(#paint0_linear_184_20137)"/>
<path d="M9.03569 14.3929C7.58048 13.6819 6.589 13.3117 6.82766 12.5967C7.109 11.7505 8.57391 11.4313 9.90106 11.4626C10.5724 11.4802 11.0478 11.5664 11.593 11.6918L12.0742 10.162C11.3834 10.0327 10.8887 9.96808 10.0621 9.94653C7.40198 9.88385 4.99603 10.6262 4.38097 12.1932C3.6456 14.0521 5.72364 15.098 7.52228 15.9599C8.9542 16.6435 10.0834 17.2938 9.68763 18.1478C9.37718 18.8079 8.3663 19.1213 6.89557 19.086C5.62274 19.0567 4.03366 18.6864 2.78024 18.0499L2.03711 19.6776C2.9568 20.1085 4.85633 20.6942 6.47647 20.7353C9.51882 20.8019 11.4901 20.0321 12.2779 18.3574C13.2112 16.381 10.8964 15.2978 9.03569 14.3909V14.3929Z" fill="white"/>
<path d="M13.1649 17.1842C13.1804 17.2214 13.2056 17.2331 13.2464 17.2331C13.2871 17.2331 13.3065 17.2214 13.3182 17.1842C13.3356 17.1313 14.8006 12.5478 14.8006 12.5478C16.2946 14.7044 17.7769 17.5426 18.5705 20.5454H21.0075L22.2124 16.7434C22.2241 16.7062 22.2532 16.6964 22.29 16.6964C22.3269 16.6964 22.3599 16.7082 22.3638 16.7434C22.7324 19.1292 25.0821 20.7334 28.4097 20.7334C30.5653 20.7334 32.5095 20.1634 32.9926 19.9009L34.2538 15.8894H39.1025L39.5934 14.3342H34.7466L35.5829 11.7016H41.361L41.8616 10.0896H33.7493L30.9961 18.7805C30.4101 18.9294 29.6883 19.0019 28.9355 19.0019C27.3095 19.0019 26.0076 18.614 25.2703 17.7444C24.7173 17.0901 24.4981 16.2498 24.6339 15.3077C24.9599 13.0688 27.1213 11.6566 30.0123 11.6566C30.6196 11.6566 31.2464 11.6918 31.8071 11.7663L32.3775 10.0759C31.681 9.97011 30.8389 9.9231 30.0123 9.9231C27.4492 9.9231 25.2218 10.8143 23.7782 12.3813C23.7336 12.4303 23.6851 12.4283 23.6579 12.4283C23.6133 12.4283 23.5842 12.4205 23.5958 12.3813L24.3196 10.0915H22.2027L19.888 17.4192C19.1526 15.2587 17.6372 12.4107 15.7843 10.0915H13.5141L11.8164 15.4272C12.6701 16.0618 12.9398 16.528 13.163 17.1861L13.1649 17.1842Z" fill="white"/>
<path d="M0 27.8083H1.01671L2.01789 30.486H2.02953L3.04624 27.8083H4.00085L2.33221 31.8943H1.61819L0 27.8083Z" fill="#642974"/>
<path d="M4.91992 29.8511C4.91992 29.524 4.97425 29.2283 5.08291 28.9619C5.19156 28.6955 5.3429 28.4702 5.53693 28.2841C5.73096 28.0981 5.96185 27.9551 6.22767 27.8532C6.49349 27.7533 6.78647 27.7024 7.10273 27.7024C7.419 27.7024 7.71004 27.7533 7.9778 27.8532C8.24362 27.9531 8.47451 28.0961 8.66854 28.2841C8.86257 28.4702 9.01391 28.6974 9.12256 28.9619C9.23122 29.2283 9.28555 29.524 9.28555 29.8511C9.28555 30.1782 9.23122 30.474 9.12256 30.7404C9.01391 31.0068 8.86257 31.232 8.66854 31.4181C8.47451 31.6042 8.24362 31.7472 7.9778 31.8491C7.71004 31.9489 7.419 31.9999 7.10273 31.9999C6.78647 31.9999 6.49543 31.9489 6.22767 31.8491C5.95991 31.7492 5.73096 31.6062 5.53693 31.4181C5.3429 31.232 5.19156 31.0048 5.08291 30.7404C4.97425 30.476 4.91992 30.1782 4.91992 29.8511ZM5.84543 29.8511C5.84543 30.0431 5.87454 30.2194 5.93469 30.38C5.9929 30.5406 6.07827 30.6777 6.18886 30.7953C6.29946 30.9128 6.4314 31.0048 6.58662 31.0695C6.74184 31.1341 6.91259 31.1674 7.10467 31.1674C7.29676 31.1674 7.46751 31.1341 7.62273 31.0695C7.77795 31.0048 7.90989 30.9128 8.02049 30.7953C8.13108 30.6777 8.21645 30.5387 8.27466 30.38C8.33287 30.2213 8.36392 30.0451 8.36392 29.8511C8.36392 29.6572 8.33481 29.4868 8.27466 29.3262C8.21645 29.1636 8.13108 29.0245 8.02049 28.907C7.90989 28.7895 7.77795 28.6974 7.62273 28.6328C7.46751 28.5682 7.29676 28.5349 7.10467 28.5349C6.91259 28.5349 6.74184 28.5682 6.58662 28.6328C6.4314 28.6974 6.29946 28.7895 6.18886 28.907C6.07827 29.0245 5.9929 29.1636 5.93469 29.3262C5.87648 29.4888 5.84543 29.6631 5.84543 29.8511Z" fill="#642974"/>
<path d="M11.488 30.1527L9.9668 27.8101H11.0766L11.9342 29.3398L12.8423 27.8101H13.8997L12.3786 30.1527V31.896H11.486V30.1527H11.488Z" fill="#642974"/>
<path d="M15.9376 27.8083H16.6749L18.4348 31.8943H17.4278L17.0785 31.0285H15.5069L15.1693 31.8943H14.1855L15.9357 27.8083H15.9376ZM16.281 28.9973L15.7902 30.2666H16.7797L16.283 28.9973H16.281Z" fill="#642974"/>
<path d="M23.2184 31.6062C22.9565 31.7452 22.681 31.8451 22.3958 31.9059C22.1105 31.9666 21.8176 31.9979 21.5207 31.9979C21.2044 31.9979 20.9134 31.947 20.6456 31.8471C20.3779 31.7472 20.1489 31.6042 19.9549 31.4162C19.7609 31.2301 19.6095 31.0029 19.5009 30.7385C19.3922 30.474 19.3379 30.1763 19.3379 29.8492C19.3379 29.5221 19.3922 29.2263 19.5009 28.9599C19.6095 28.6935 19.7609 28.4683 19.9549 28.2822C20.1489 28.0961 20.3798 27.9531 20.6456 27.8513C20.9115 27.7514 21.2044 27.7004 21.5207 27.7004C21.837 27.7004 22.1435 27.7396 22.4152 27.818C22.6868 27.8963 22.9274 28.0315 23.1331 28.2254L22.5044 28.9188C22.3822 28.7915 22.2444 28.6955 22.0931 28.6308C21.9398 28.5662 21.7497 28.5329 21.5207 28.5329C21.3306 28.5329 21.1579 28.5662 21.0026 28.6308C20.8474 28.6955 20.7155 28.7875 20.6049 28.9051C20.4943 29.0226 20.4089 29.1617 20.3507 29.3242C20.2925 29.4868 20.2615 29.6611 20.2615 29.8492C20.2615 30.0372 20.2906 30.2174 20.3507 30.378C20.4089 30.5387 20.4943 30.6758 20.6049 30.7933C20.7155 30.9108 20.8474 31.0029 21.0026 31.0675C21.1579 31.1322 21.3286 31.1655 21.5207 31.1655C21.7128 31.1655 21.8835 31.1439 22.0232 31.0989C22.1649 31.0538 22.2774 31.0088 22.3608 30.9637V30.2997H21.6352V29.4692H23.2184V31.6042V31.6062Z" fill="#642974"/>
<path d="M24.8633 27.8084H27.6127V28.6389H25.7539V29.4008H27.5098V30.2313H25.7539V31.0618H27.7155V31.8923H24.8633V27.8064V27.8084Z" fill="#642974"/>
<path d="M32.5594 30.3195C32.5594 30.5623 32.5226 30.7856 32.4508 30.9893C32.379 31.1931 32.2703 31.3693 32.1287 31.5202C31.9871 31.671 31.8086 31.7885 31.5932 31.8727C31.3798 31.957 31.1333 32.0001 30.8559 32.0001C30.5784 32.0001 30.3262 31.957 30.1128 31.8727C29.8993 31.7885 29.7208 31.671 29.5792 31.5202C29.4375 31.3693 29.3289 31.1931 29.2571 30.9893C29.1853 30.7856 29.1484 30.5623 29.1484 30.3195V27.8083H30.041V30.2842C30.041 30.4115 30.0604 30.529 30.1011 30.6368C30.1419 30.7445 30.1981 30.8385 30.2699 30.9169C30.3417 30.9952 30.429 31.0579 30.5299 31.101C30.6308 31.146 30.7395 31.1676 30.8578 31.1676C30.9762 31.1676 31.0848 31.146 31.1838 31.101C31.2827 31.0559 31.3681 30.9952 31.4418 30.9169C31.5136 30.8385 31.5699 30.7445 31.6107 30.6368C31.6514 30.529 31.6708 30.4115 31.6708 30.2842V27.8083H32.5633V30.3195H32.5594Z" fill="#642974"/>
<path d="M34.0957 27.8083H35.6615C35.8672 27.8083 36.0631 27.8279 36.2474 27.8691C36.4318 27.9102 36.5948 27.9768 36.7325 28.0708C36.8722 28.1648 36.9828 28.2922 37.0643 28.4508C37.1458 28.6095 37.1865 28.8093 37.1865 29.0482C37.1865 29.3362 37.1128 29.583 36.9634 29.7847C36.814 29.9865 36.5986 30.1138 36.3115 30.1686L37.3398 31.8943H36.2707L35.4248 30.2607H34.9843V31.8943H34.0918V27.8083H34.0957ZM34.9882 29.4987H35.514C35.5936 29.4987 35.6789 29.4968 35.7682 29.4909C35.8574 29.485 35.9389 29.4674 36.0107 29.438C36.0825 29.4086 36.1427 29.3636 36.1912 29.3029C36.2377 29.2421 36.263 29.154 36.263 29.0424C36.263 28.9385 36.2416 28.8563 36.2009 28.7936C36.1601 28.7309 36.1058 28.6859 36.0418 28.6526C35.9777 28.6193 35.9021 28.5977 35.8186 28.586C35.7352 28.5742 35.6537 28.5683 35.5722 28.5683H34.9882V29.4968V29.4987Z" fill="#642974"/>
<path d="M40.518 28.8071C40.4462 28.7151 40.3472 28.6465 40.223 28.6015C40.0989 28.5564 39.9824 28.5349 39.8718 28.5349C39.8078 28.5349 39.7399 28.5427 39.672 28.5584C39.6041 28.574 39.5381 28.5975 39.478 28.6308C39.4178 28.6641 39.3674 28.7072 39.3286 28.7601C39.2898 28.815 39.2723 28.8796 39.2723 28.956C39.2723 29.0794 39.3189 29.1734 39.4101 29.2381C39.5012 29.3027 39.6177 29.3595 39.7554 29.4045C39.8932 29.4496 40.0445 29.4966 40.2036 29.5436C40.3647 29.5906 40.5141 29.6553 40.6518 29.7395C40.7896 29.8237 40.906 29.9373 40.9972 30.0803C41.0884 30.2233 41.135 30.4133 41.135 30.6523C41.135 30.8912 41.0923 31.0773 41.0088 31.2458C40.9254 31.4142 40.8109 31.5552 40.6693 31.6669C40.5257 31.7785 40.3608 31.8608 40.1726 31.9157C39.9844 31.9685 39.7845 31.996 39.575 31.996C39.313 31.996 39.0686 31.9548 38.8435 31.8745C38.6184 31.7942 38.4089 31.663 38.2148 31.4828L38.8493 30.7796C38.9405 30.903 39.0569 30.997 39.1947 31.0656C39.3324 31.1341 39.478 31.1674 39.6254 31.1674C39.6972 31.1674 39.7709 31.1596 39.8447 31.1419C39.9184 31.1243 39.9863 31.0989 40.0445 31.0636C40.1027 31.0283 40.1512 30.9852 40.1881 30.9304C40.225 30.8756 40.2424 30.8129 40.2424 30.7404C40.2424 30.617 40.1959 30.521 40.1027 30.4486C40.0096 30.378 39.8912 30.3173 39.7515 30.2664C39.6099 30.2155 39.4586 30.1665 39.2936 30.1156C39.1307 30.0666 38.9774 29.998 38.8357 29.9138C38.6941 29.8296 38.5777 29.7179 38.4845 29.5789C38.3914 29.4398 38.3448 29.2576 38.3448 29.0304C38.3448 28.8032 38.3875 28.6191 38.4729 28.4526C38.5583 28.2861 38.6728 28.149 38.8163 28.0373C38.9599 27.9257 39.1248 27.8415 39.3111 27.7866C39.4974 27.7318 39.6895 27.7024 39.8893 27.7024C40.1183 27.7024 40.3394 27.7357 40.5529 27.8003C40.7663 27.865 40.9584 27.9747 41.1311 28.1294L40.5199 28.8052L40.518 28.8071Z" fill="#642974"/>
<path d="M52.3342 3.96362H52.3324C52.1488 3.96362 52 4.12068 52 4.31442V27.3488C52 27.5425 52.1488 27.6996 52.3324 27.6996H52.3342C52.5178 27.6996 52.6667 27.5425 52.6667 27.3488V4.31442C52.6667 4.12068 52.5178 3.96362 52.3342 3.96362Z" fill="#E0E0E0"/>
<defs>
<linearGradient id="paint0_linear_184_20137" x1="0.00194028" y1="11.9934" x2="45.2725" y2="11.9934" gradientUnits="userSpaceOnUse">
<stop stop-color="#782A63"/>
<stop offset="0.25" stop-color="#A12771"/>
<stop offset="0.81" stop-color="#C93026"/>
<stop offset="1" stop-color="#C93026"/>
</linearGradient>
</defs>
</svg>
