<?xml version="1.0" encoding="UTF-8" standalone="no"?>
<!-- Created with Inkscape (http://www.inkscape.org/) -->

<svg
   xmlns:dc="http://purl.org/dc/elements/1.1/"
   xmlns:cc="http://creativecommons.org/ns#"
   xmlns:rdf="http://www.w3.org/1999/02/22-rdf-syntax-ns#"
   xmlns:svg="http://www.w3.org/2000/svg"
   xmlns="http://www.w3.org/2000/svg"
   xmlns:sodipodi="http://sodipodi.sourceforge.net/DTD/sodipodi-0.dtd"
   xmlns:inkscape="http://www.inkscape.org/namespaces/inkscape"
   width="2265"
   height="400"
   viewBox="0 0 2265 399.99998"
   id="svg2"
   version="1.1"
   inkscape:version="0.91 r13725"
   sodipodi:docname="Logo TER 2014 Base 2.svg">
  <defs
     id="defs4">
    <linearGradient
       id="linearGradient128"
       spreadMethod="pad"
       gradientTransform="matrix(168.93624,0,0,-168.93624,118.06947,67.377436)"
       gradientUnits="userSpaceOnUse"
       y2="0"
       x2="1"
       y1="0"
       x1="0">
      <stop
         id="stop130"
         offset="0"
         style="stop-opacity:1;stop-color:#7c2270" />
      <stop
         id="stop132"
         offset="0.247191"
         style="stop-opacity:1;stop-color:#aa147e" />
      <stop
         id="stop134"
         offset="0.814607"
         style="stop-opacity:1;stop-color:#e41d25" />
      <stop
         id="stop136"
         offset="1"
         style="stop-opacity:1;stop-color:#e41d25" />
    </linearGradient>
    <clipPath
       id="clipPath144"
       clipPathUnits="userSpaceOnUse">
      <path
         inkscape:connector-curvature="0"
         id="path146"
         d="m 0,0 311.811,0 0,510.236 -311.811,0 z" />
    </clipPath>
  </defs>
  <sodipodi:namedview
     id="base"
     pagecolor="#ffffff"
     bordercolor="#666666"
     borderopacity="1.0"
     inkscape:pageopacity="0.0"
     inkscape:pageshadow="2"
     inkscape:zoom="0.24596624"
     inkscape:cx="978.58761"
     inkscape:cy="263.06706"
     inkscape:document-units="px"
     inkscape:current-layer="layer1"
     showgrid="false"
     inkscape:window-width="1440"
     inkscape:window-height="788"
     inkscape:window-x="0"
     inkscape:window-y="1"
     inkscape:window-maximized="1"
     units="px" />
  <metadata
     id="metadata7">
    <rdf:RDF>
      <cc:Work
         rdf:about="">
        <dc:format>image/svg+xml</dc:format>
        <dc:type
           rdf:resource="http://purl.org/dc/dcmitype/StillImage" />
        <dc:title></dc:title>
      </cc:Work>
    </rdf:RDF>
  </metadata>
  <g
     inkscape:label="Calque 1"
     inkscape:groupmode="layer"
     id="layer1"
     transform="translate(0,-652.36235)">
    <g
       transform="matrix(17.515929,0,0,17.510304,-2490.0556,-2719.7032)"
       style="font-style:normal;font-weight:normal;font-size:11.25px;line-height:125%;font-family:sans-serif;letter-spacing:0.00179347px;word-spacing:0px;fill:#3b3b3b;fill-opacity:1;stroke:none;stroke-width:1px;stroke-linecap:butt;stroke-linejoin:miter;stroke-opacity:1"
       id="flowRoot4136">
      <path
         d="m 193.07742,200.16247 -2.565,0 0,-1.0125 6.21,0 0,1.0125 -2.565,0 0,6.9525 -1.08,0 0,-6.9525 z"
         style="font-style:normal;font-variant:normal;font-weight:500;font-stretch:normal;font-family:Avenir;-inkscape-font-specification:'Avenir Medium';letter-spacing:-0.05704333px;fill:#3b3b3b;fill-opacity:1"
         id="path4220"
         inkscape:connector-curvature="0" />
      <path
         d="m 197.83731,199.14997 5.14125,0 0,1.0125 -4.06125,0 0,2.37375 3.78,0 0,1.0125 -3.78,0 0,2.55375 4.26375,0 0,1.0125 -5.34375,0 0,-7.965 z"
         style="font-style:normal;font-variant:normal;font-weight:500;font-stretch:normal;font-family:Avenir;-inkscape-font-specification:'Avenir Medium';letter-spacing:-0.05704333px;fill:#3b3b3b;fill-opacity:1"
         id="path4222"
         inkscape:connector-curvature="0" />
      <path
         d="m 204.65771,199.14997 2.80125,0 q 0.765,0 1.26,0.21375 0.495,0.2025 0.77625,0.52875 0.2925,0.315 0.405,0.72 0.1125,0.39375 0.1125,0.765 0,0.3825 -0.135,0.7425 -0.135,0.34875 -0.39375,0.64125 -0.2475,0.28125 -0.61875,0.48375 -0.36,0.19125 -0.81,0.23625 l 2.26125,3.63375 -1.35,0 -2.025,-3.51 -1.20375,0 0,3.51 -1.08,0 0,-7.965 z m 1.08,3.51 1.4175,0 q 0.315,0 0.61875,-0.045 0.315,-0.0563 0.55125,-0.19125 0.2475,-0.135 0.39375,-0.3825 0.14625,-0.25875 0.14625,-0.66375 0,-0.405 -0.14625,-0.6525 -0.14625,-0.25875 -0.39375,-0.39375 -0.23625,-0.135 -0.55125,-0.18 -0.30375,-0.0563 -0.61875,-0.0563 l -1.4175,0 0,2.565 z"
         style="font-style:normal;font-variant:normal;font-weight:500;font-stretch:normal;font-family:Avenir;-inkscape-font-specification:'Avenir Medium';letter-spacing:-0.05704333px;fill:#3b3b3b;fill-opacity:1"
         id="path4224"
         inkscape:connector-curvature="0" />
    </g>
    <g
       transform="matrix(0.71439306,0,0,0.71416364,810.9925,848.06055)"
       style="font-style:normal;font-weight:normal;font-size:169.21551514px;line-height:125%;font-family:sans-serif;letter-spacing:0px;word-spacing:0px;fill:#3b3b3b;fill-opacity:1;stroke:none;stroke-width:1px;stroke-linecap:butt;stroke-linejoin:miter;stroke-opacity:1"
       id="flowRoot4144">
      <path
         d="m 105.14148,163.22093 11.50666,0 50.42622,119.80458 -12.52195,0 -13.02959,-31.81252 -63.455818,0 -13.537241,31.81252 -11.675871,0 52.28759,-119.80458 z m 5.24569,12.18351 -27.920565,65.65562 54.995045,0 -27.07448,-65.65562 z"
         style="font-style:normal;font-variant:normal;font-weight:300;font-stretch:normal;font-family:Avenir;-inkscape-font-specification:'Avenir Light';letter-spacing:-5.59449387px;fill:#3b3b3b;fill-opacity:1"
         id="path4227"
         inkscape:connector-curvature="0" />
      <path
         d="m 263.9478,237.16811 q 0,9.64528 -2.19981,18.44449 -2.1998,8.7992 -7.44548,15.56782 -5.07646,6.76862 -13.53724,10.8298 -8.29156,4.06117 -20.47508,4.06117 -12.18351,0 -20.64429,-4.06117 -8.29156,-4.06118 -13.53724,-10.8298 -5.07647,-6.76862 -7.27627,-15.56782 -2.1998,-8.79921 -2.1998,-18.44449 l 0,-73.94718 11.16822,0 0,71.07051 q 0,6.43019 1.18451,13.70646 1.18451,7.27627 4.56882,13.53724 3.55353,6.26097 9.8145,10.32215 6.43019,4.06117 16.92155,4.06117 10.49137,0 16.75234,-4.06117 6.43019,-4.06118 9.8145,-10.32215 3.55353,-6.26097 4.73803,-13.53724 1.18451,-7.27627 1.18451,-13.70646 l 0,-71.07051 11.16823,0 0,73.94718 z"
         style="font-style:normal;font-variant:normal;font-weight:300;font-stretch:normal;font-family:Avenir;-inkscape-font-specification:'Avenir Light';letter-spacing:-5.59449387px;fill:#3b3b3b;fill-opacity:1"
         id="path4229"
         inkscape:connector-curvature="0" />
      <path
         d="m 271.99101,163.22093 12.0143,0 38.58114,105.08283 38.91957,-105.08283 11.84508,0 -45.51897,119.80458 -11.16822,0 -44.6729,-119.80458 z"
         style="font-style:normal;font-variant:normal;font-weight:300;font-stretch:normal;font-family:Avenir;-inkscape-font-specification:'Avenir Light';letter-spacing:-5.59449387px;fill:#3b3b3b;fill-opacity:1"
         id="path4231"
         inkscape:connector-curvature="0" />
      <path
         d="m 383.78979,163.22093 73.27032,0 0,10.15293 -62.1021,0 0,42.64231 58.21014,0 0,10.15293 -58.21014,0 0,46.70348 64.80955,0 0,10.15293 -75.97777,0 0,-119.80458 z"
         style="font-style:normal;font-variant:normal;font-weight:300;font-stretch:normal;font-family:Avenir;-inkscape-font-specification:'Avenir Light';letter-spacing:-5.59449387px;fill:#3b3b3b;fill-opacity:1"
         id="path4233"
         inkscape:connector-curvature="0" />
      <path
         d="m 489.83521,216.01617 23.69017,0 q 8.79921,0 14.21411,-2.19981 5.58411,-2.1998 8.62999,-5.41489 3.04588,-3.2151 4.06117,-6.93784 1.18451,-3.72274 1.18451,-6.76862 0,-3.04588 -1.18451,-6.76862 -1.01529,-3.72274 -4.06117,-6.93784 -3.04588,-3.21509 -8.62999,-5.41489 -5.4149,-2.1998 -14.21411,-2.1998 l -23.69017,0 0,42.64231 z m -11.16822,-52.79524 31.47408,0 q 2.36902,0 6.43019,0.16921 4.06117,0.16922 8.79921,1.01529 4.73803,0.84608 9.64528,2.70745 4.90725,1.86137 8.79921,5.4149 3.89196,3.55352 6.43019,8.96842 2.53823,5.4149 2.53823,13.19881 0,8.62999 -3.04588,14.2141 -2.87666,5.58412 -7.44548,9.13764 -4.3996,3.38431 -9.8145,5.07647 -5.4149,1.69215 -10.32215,2.36902 l 34.8584,57.53327 -12.69116,0 -33.67389,-56.85641 -20.81351,0 0,56.85641 -11.16822,0 0,-119.80458 z"
         style="font-style:normal;font-variant:normal;font-weight:300;font-stretch:normal;font-family:Avenir;-inkscape-font-specification:'Avenir Light';letter-spacing:-5.59449387px;fill:#3b3b3b;fill-opacity:1"
         id="path4235"
         inkscape:connector-curvature="0" />
      <path
         d="m 672.36608,275.2416 q -10.49137,5.92254 -21.82881,8.29156 -11.16822,2.53823 -22.84409,2.53823 -13.70646,0 -25.21311,-4.56882 -11.33744,-4.73803 -19.45979,-13.02959 -8.12234,-8.46078 -12.69116,-19.96743 -4.56882,-11.67588 -4.56882,-25.38233 0,-13.70646 4.56882,-25.21311 4.56882,-11.50666 12.69116,-19.79822 8.12235,-8.46077 19.45979,-13.19881 11.50665,-4.73803 25.21311,-4.73803 26.73605,0 43.14996,16.58312 l -8.12235,8.46077 q -2.70745,-3.21509 -6.76862,-5.92254 -3.89196,-2.87666 -8.62999,-4.73803 -4.56882,-2.03059 -9.64528,-3.04588 -5.07647,-1.18451 -9.98372,-1.18451 -11.67587,0 -21.15194,4.06117 -9.30685,4.06117 -15.90626,11.16822 -6.5994,7.10706 -10.15293,16.75234 -3.55352,9.64528 -3.55352,20.81351 0,11.16822 3.55352,20.81351 3.55353,9.64528 10.15293,16.75233 6.59941,7.10705 15.90626,11.16823 9.47607,4.06117 21.15194,4.06117 9.64528,0 18.10606,-1.52294 8.46078,-1.52294 15.39861,-5.58411 l 0,-40.2733 -28.76664,0 0,-10.15293 39.93487,0 0,56.85642 z"
         style="font-style:normal;font-variant:normal;font-weight:300;font-stretch:normal;font-family:Avenir;-inkscape-font-specification:'Avenir Light';letter-spacing:-5.59449387px;fill:#3b3b3b;fill-opacity:1"
         id="path4237"
         inkscape:connector-curvature="0" />
      <path
         d="m 699.81881,163.22093 14.38332,0 72.93189,104.91361 0.33843,0 0,-104.91361 11.16822,0 0,119.80458 -14.38332,0 -72.93188,-104.91362 -0.33843,0 0,104.91362 -11.16823,0 0,-119.80458 z"
         style="font-style:normal;font-variant:normal;font-weight:300;font-stretch:normal;font-family:Avenir;-inkscape-font-specification:'Avenir Light';letter-spacing:-5.59449387px;fill:#3b3b3b;fill-opacity:1"
         id="path4239"
         inkscape:connector-curvature="0" />
      <path
         d="m 826.09347,163.22093 73.27032,0 0,10.15293 -62.1021,0 0,42.64231 58.21014,0 0,10.15293 -58.21014,0 0,46.70348 64.80955,0 0,10.15293 -75.97777,0 0,-119.80458 z"
         style="font-style:normal;font-variant:normal;font-weight:300;font-stretch:normal;font-family:Avenir;-inkscape-font-specification:'Avenir Light';letter-spacing:-5.59449387px;fill:#3b3b3b;fill-opacity:1"
         id="path4241"
         inkscape:connector-curvature="0" />
      <path
         d="m 911.83303,238.35261 41.79623,0 0,9.13764 -41.79623,0 0,-9.13764 z"
         style="font-style:normal;font-variant:normal;font-weight:300;font-stretch:normal;font-family:Avenir;-inkscape-font-specification:'Avenir Light';letter-spacing:-5.59449387px;fill:#3b3b3b;fill-opacity:1"
         id="path4243"
         inkscape:connector-curvature="0" />
      <path
         d="m 982.72928,216.01617 23.69022,0 q 8.7992,0 14.2141,-2.19981 5.5841,-2.1998 8.63,-5.41489 3.0458,-3.2151 4.0611,-6.93784 1.1845,-3.72274 1.1845,-6.76862 0,-3.04588 -1.1845,-6.76862 -1.0153,-3.72274 -4.0611,-6.93784 -3.0459,-3.21509 -8.63,-5.41489 -5.4149,-2.1998 -14.2141,-2.1998 l -23.69022,0 0,42.64231 z m -11.16822,-52.79524 31.47404,0 q 2.3691,0 6.4302,0.16921 4.0612,0.16922 8.7992,1.01529 4.7381,0.84608 9.6453,2.70745 4.9073,1.86137 8.7992,5.4149 3.892,3.55352 6.4302,8.96842 2.5383,5.4149 2.5383,13.19881 0,8.62999 -3.0459,14.2141 -2.8767,5.58412 -7.4455,9.13764 -4.3996,3.38431 -9.8145,5.07647 -5.4149,1.69215 -10.3222,2.36902 l 34.8584,57.53327 -12.6911,0 -33.6739,-56.85641 -20.81352,0 0,56.85641 -11.16822,0 0,-119.80458 z"
         style="font-style:normal;font-variant:normal;font-weight:300;font-stretch:normal;font-family:Avenir;-inkscape-font-specification:'Avenir Light';letter-spacing:-5.59449387px;fill:#3b3b3b;fill-opacity:1"
         id="path4245"
         inkscape:connector-curvature="0" />
      <path
         d="m 1066.4383,163.22093 11.1682,0 0,52.79524 67.0093,0 0,-52.79524 11.1682,0 0,119.80458 -11.1682,0 0,-56.85641 -67.0093,0 0,56.85641 -11.1682,0 0,-119.80458 z"
         style="font-style:normal;font-variant:normal;font-weight:300;font-stretch:normal;font-family:Avenir;-inkscape-font-specification:'Avenir Light';letter-spacing:-5.59449387px;fill:#3b3b3b;fill-opacity:1"
         id="path4247"
         inkscape:connector-curvature="0" />
      <path
         d="m 1175.3445,223.12322 q 0,-13.70646 4.5688,-25.21311 4.5688,-11.50666 12.6912,-19.79822 8.1223,-8.46077 19.4597,-13.19881 11.5067,-4.73803 25.2131,-4.73803 13.7065,0 25.0439,4.73803 11.5067,4.73804 19.629,13.19881 8.1224,8.29156 12.6912,19.79822 4.5688,11.50665 4.5688,25.21311 0,13.70645 -4.5688,25.38233 -4.5688,11.50665 -12.6912,19.96743 -8.1223,8.29156 -19.629,13.02959 -11.3374,4.56882 -25.0439,4.56882 -13.7064,0 -25.2131,-4.56882 -11.3374,-4.73803 -19.4597,-13.02959 -8.1224,-8.46078 -12.6912,-19.96743 -4.5688,-11.67588 -4.5688,-25.38233 z m 11.1682,0 q 0,11.16822 3.5535,20.81351 3.5535,9.64528 10.1529,16.75233 6.5995,7.10705 15.9063,11.16823 9.4761,4.06117 21.1519,4.06117 11.6759,0 20.9828,-4.06117 9.476,-4.06118 16.0754,-11.16823 6.5995,-7.10705 10.153,-16.75233 3.5535,-9.64529 3.5535,-20.81351 0,-11.16823 -3.5535,-20.81351 -3.5535,-9.64528 -10.153,-16.75234 -6.5994,-7.10705 -16.0754,-11.16822 -9.3069,-4.06117 -20.9828,-4.06117 -11.6758,0 -21.1519,4.06117 -9.3068,4.06117 -15.9063,11.16822 -6.5994,7.10706 -10.1529,16.75234 -3.5535,9.64528 -3.5535,20.81351 z m 44.8421,-91.71481 11.8451,0 18.2753,24.36703 -10.999,0 -13.7065,-18.27527 -13.7065,18.27527 -9.9837,0 18.2753,-24.36703 z"
         style="font-style:normal;font-variant:normal;font-weight:300;font-stretch:normal;font-family:Avenir;-inkscape-font-specification:'Avenir Light';letter-spacing:-5.59449387px;fill:#3b3b3b;fill-opacity:1"
         id="path4249"
         inkscape:connector-curvature="0" />
      <path
         d="m 1318.6571,163.22093 14.3833,0 72.9319,104.91361 0.3384,0 0,-104.91361 11.1682,0 0,119.80458 -14.3833,0 -72.9319,-104.91362 -0.3384,0 0,104.91362 -11.1682,0 0,-119.80458 z"
         style="font-style:normal;font-variant:normal;font-weight:300;font-stretch:normal;font-family:Avenir;-inkscape-font-specification:'Avenir Light';letter-spacing:-5.59449387px;fill:#3b3b3b;fill-opacity:1"
         id="path4251"
         inkscape:connector-curvature="0" />
      <path
         d="m 1444.9316,163.22093 73.2703,0 0,10.15293 -62.1021,0 0,42.64231 58.2102,0 0,10.15293 -58.2102,0 0,46.70348 64.8096,0 0,10.15293 -75.9778,0 0,-119.80458 z"
         style="font-style:normal;font-variant:normal;font-weight:300;font-stretch:normal;font-family:Avenir;-inkscape-font-specification:'Avenir Light';letter-spacing:-5.59449387px;fill:#3b3b3b;fill-opacity:1"
         id="path4253"
         inkscape:connector-curvature="0" />
      <path
         d="m 1530.6712,238.35261 41.7962,0 0,9.13764 -41.7962,0 0,-9.13764 z"
         style="font-style:normal;font-variant:normal;font-weight:300;font-stretch:normal;font-family:Avenir;-inkscape-font-specification:'Avenir Light';letter-spacing:-5.59449387px;fill:#3b3b3b;fill-opacity:1"
         id="path4255"
         inkscape:connector-curvature="0" />
      <path
         d="m 1627.119,163.22093 11.5067,0 50.4262,119.80458 -12.5219,0 -13.0296,-31.81252 -63.4559,0 -13.5372,31.81252 -11.6759,0 52.2876,-119.80458 z m 5.2457,12.18351 -27.9206,65.65562 54.9951,0 -27.0745,-65.65562 z"
         style="font-style:normal;font-variant:normal;font-weight:300;font-stretch:normal;font-family:Avenir;-inkscape-font-specification:'Avenir Light';letter-spacing:-5.59449387px;fill:#3b3b3b;fill-opacity:1"
         id="path4257"
         inkscape:connector-curvature="0" />
      <path
         d="m 1700.8099,163.22093 11.1682,0 0,109.65165 55.8411,0 0,10.15293 -67.0093,0 0,-119.80458 z"
         style="font-style:normal;font-variant:normal;font-weight:300;font-stretch:normal;font-family:Avenir;-inkscape-font-specification:'Avenir Light';letter-spacing:-5.59449387px;fill:#3b3b3b;fill-opacity:1"
         id="path4259"
         inkscape:connector-curvature="0" />
      <path
         d="m 1780.1537,163.22093 34.5199,0 q 6.261,0 13.0296,1.52294 6.9378,1.35372 12.522,4.90725 5.7533,3.55352 9.3068,9.8145 3.7228,6.09175 3.7228,15.39861 0,8.12234 -3.0459,14.04488 -2.8767,5.92255 -7.9532,9.8145 -4.9072,3.72275 -11.5066,5.58412 -6.4302,1.86137 -13.5373,1.86137 l -25.8899,0 0,56.85641 -11.1682,0 0,-119.80458 z m 11.1682,52.79524 25.3823,0 q 4.738,0 9.3069,-1.0153 4.5688,-1.18451 8.1223,-3.55352 3.5535,-2.53824 5.7533,-6.59941 2.1998,-4.06117 2.1998,-9.98371 0,-5.75333 -2.369,-9.8145 -2.1998,-4.06118 -5.9225,-6.59941 -3.5536,-2.70745 -8.2916,-3.89195 -4.738,-1.18451 -9.4761,-1.18451 l -24.7054,0 0,42.64231 z"
         style="font-style:normal;font-variant:normal;font-weight:300;font-stretch:normal;font-family:Avenir;-inkscape-font-specification:'Avenir Light';letter-spacing:-5.59449387px;fill:#3b3b3b;fill-opacity:1"
         id="path4261"
         inkscape:connector-curvature="0" />
      <path
         d="m 1871.7259,163.22093 73.2703,0 0,10.15293 -62.1021,0 0,42.64231 58.2102,0 0,10.15293 -58.2102,0 0,46.70348 64.8096,0 0,10.15293 -75.9778,0 0,-119.80458 z"
         style="font-style:normal;font-variant:normal;font-weight:300;font-stretch:normal;font-family:Avenir;-inkscape-font-specification:'Avenir Light';letter-spacing:-5.59449387px;fill:#3b3b3b;fill-opacity:1"
         id="path4263"
         inkscape:connector-curvature="0" />
      <path
         d="m 1969.8182,260.85828 q 4.3996,7.6147 11.3374,11.33744 7.1071,3.72274 16.0755,3.72274 5.5841,0 10.4914,-1.69216 4.9072,-1.69215 8.4608,-4.73803 3.7227,-3.04588 5.7533,-7.27627 2.1998,-4.3996 2.1998,-9.8145 0,-6.26097 -2.7075,-10.32214 -2.5382,-4.06118 -6.9378,-6.59941 -4.3996,-2.70745 -9.9837,-4.56882 -5.4149,-1.86137 -11.3375,-3.72274 -5.7533,-1.86137 -11.3374,-4.23039 -5.4149,-2.36901 -9.8145,-6.09176 -4.3996,-3.89195 -7.107,-9.64528 -2.5383,-5.75333 -2.5383,-14.2141 0,-7.95313 3.0459,-14.04489 3.2151,-6.26098 8.4608,-10.32215 5.4149,-4.23039 12.3527,-6.26097 6.9378,-2.1998 14.5525,-2.1998 9.8145,0 18.1061,3.55352 8.4608,3.38431 14.5525,11.50666 l -9.6452,6.93783 q -4.2304,-5.92254 -9.9838,-8.7992 -5.5841,-3.04588 -13.368,-3.04588 -5.4149,0 -10.3221,1.52294 -4.9073,1.35372 -8.63,4.23038 -3.5535,2.70745 -5.7533,6.93784 -2.1998,4.23039 -2.1998,9.98372 0,8.96842 4.5688,13.87567 4.5688,4.73803 11.3374,7.6147 6.9378,2.70744 14.891,4.90725 8.1223,2.03058 14.8909,5.58411 6.9379,3.55352 11.5067,9.98371 4.5688,6.26098 4.5688,17.4292 0,8.12235 -3.0459,14.38332 -3.0458,6.26097 -8.2915,10.66058 -5.0765,4.23039 -11.8451,6.43019 -6.7686,2.1998 -14.0449,2.1998 -11.8451,0 -21.8288,-4.06117 -9.9837,-4.23039 -17.0908,-14.04489 l 10.6606,-7.10705 z"
         style="font-style:normal;font-variant:normal;font-weight:300;font-stretch:normal;font-family:Avenir;-inkscape-font-specification:'Avenir Light';letter-spacing:-5.59449387px;fill:#3b3b3b;fill-opacity:1"
         id="path4265"
         inkscape:connector-curvature="0" />
    </g>
    <g
       transform="matrix(4.3545147,0,0,-4.3531163,-514.13709,923.11312)"
       inkscape:label="guide-tgv-loisir"
       id="g10">
      <path
         inkscape:connector-curvature="0"
         id="path138"
         style="fill:url(#linearGradient128);stroke:none;stroke-width:1"
         d="m 121.17533,61.986208 c -1.88209,-0.07905 -3.10544,-0.948573 -3.10544,-2.808078 l 0,0 0,-82.902307 c 0,-1.445446 1.03515,-2.751616 2.63116,-2.751616 l 0,0 147.99251,0 c 1.32876,0 2.39025,0.120454 3.01511,1.874562 l 0,0 c 0,0 15.00026,46.943092 15.26375,47.790033 l 0,0 c 0.5571,1.772929 0.19574,2.672568 -1.31746,3.636198 l 0,0 C 237.45463,57.710099 165.3781,62.197002 132.64103,62.197002 l 0,0 c -4.69394,0 -8.57104,-0.0941 -11.4657,-0.210794" />
      <g
         style="stroke-width:0.2656621"
         transform="matrix(3.7641803,0,0,3.7641803,-793.92701,-171.92372)"
         id="g140">
        <g
           style="stroke-width:0.2656621"
           clip-path="url(#clipPath144)"
           id="g142">
          <g
             style="stroke-width:0.2656621"
             transform="translate(267.3338,44.7764)"
             id="g148">
            <path
               inkscape:connector-curvature="0"
               id="path150"
               style="fill:#ffffff;fill-opacity:1;fill-rule:nonzero;stroke:none;stroke-width:0.2656621"
               d="m 0,0 c -0.55,0.641 -0.768,1.468 -0.632,2.39 0.324,2.199 2.464,3.589 5.327,3.589 0.603,0 1.224,-0.038 1.782,-0.109 L 7.043,7.529 C 6.353,7.635 5.517,7.68 4.697,7.68 2.158,7.68 -0.05,6.806 -1.481,5.265 -1.526,5.217 -1.572,5.218 -1.6,5.218 c -0.044,0 -0.074,0.008 -0.062,0.047 l 0.717,2.249 -2.096,0 -2.294,-7.197 c -0.73,2.124 -2.232,4.917 -4.069,7.197 l -2.251,0 -1.683,-5.239 c 0.846,-0.629 1.114,-1.083 1.335,-1.729 0.013,-0.038 0.04,-0.046 0.081,-0.046 0.041,0 0.061,0.01 0.072,0.046 0.016,0.05 1.468,4.553 1.468,4.553 1.481,-2.119 2.951,-4.907 3.739,-7.851 l 2.414,0 1.194,3.73 c 0.013,0.038 0.039,0.046 0.079,0.046 0.042,0 0.069,-0.011 0.074,-0.046 0.363,-2.342 2.692,-3.916 5.993,-3.916 2.134,0 4.063,0.56 4.543,0.817 l 1.251,3.94 4.804,0 0.489,1.526 -4.805,0 0.829,2.587 5.725,0 0.499,1.582 -8.042,0 -2.73,-8.533 C 5.095,-1.165 4.379,-1.237 3.631,-1.237 2.02,-1.237 0.73,-0.854 0,0 m -13.558,5.939 0.478,1.503 c -0.687,0.126 -1.178,0.191 -1.998,0.21 -2.636,0.061 -5.019,-0.666 -5.632,-2.206 -0.726,-1.826 1.334,-2.853 3.119,-3.699 1.417,-0.672 2.537,-1.311 2.143,-2.148 -0.306,-0.649 -1.309,-0.957 -2.767,-0.924 -1.263,0.03 -2.838,0.392 -4.079,1.017 l -0.738,-1.596 c 0.913,-0.424 2.795,-1 4.401,-1.037 3.016,-0.069 4.969,0.69 5.751,2.332 0.925,1.944 -1.37,3.007 -3.213,3.897 -1.443,0.697 -2.427,1.061 -2.19,1.762 0.28,0.83 1.731,1.145 3.046,1.115 0.665,-0.016 1.138,-0.101 1.679,-0.226" />
          </g>
        </g>
      </g>
    </g>
  </g>
</svg>
