<?xml version="1.0" encoding="UTF-8" standalone="no"?>
<svg
   version="1.0"
   width="1140.000000pt"
   height="260.000000pt"
   viewBox="0 0 1140.000000 260.000000"
   preserveAspectRatio="xMidYMid meet"
   id="svg22"
   xmlns="http://www.w3.org/2000/svg"
   xmlns:svg="http://www.w3.org/2000/svg">
  <defs
     id="defs26" />
  <g
     transform="translate(0.000000,260.000000) scale(0.100000,-0.100000)"
     fill="#000000"
     stroke="none"
     id="g20"
     style="fill:#116bfe;fill-opacity:1">
    <path
       d="M1085 2579 c-194 -28 -429 -132 -592 -261 -499 -395 -632 -1129 -306 -1686 186 -318 511 -543 877 -607 128 -22 369 -20 493 4 375 73 671 296 852 642 66 125 124 301 133 399 2 30 0 35 -17 32 -32 -6 -41 -21 -78 -134 -44 -132 -88 -220 -162 -323 -181 -254 -444 -425 -742 -481 -135 -25 -385 -15 -513 21 -382 106 -686 398 -803 770 -40 128 -50 216 -44 387 7 221 56 383 169 566 63 101 232 279 327 342 396 264 889 269 1284 11 146 -96 305 -270 387 -425 17 -32 29 -61 27 -62 -3 -4 -537 -199 -830 -305 l-108 -39 -9 23 c-5 12 -23 180 -40 372 -17 193 -33 358 -36 368 -3 9 -14 17 -24 17 -21 0 -22 -5 -45 -260 -38 -407 -48 -505 -54 -512 -4 -4 -159 35 -346 87 -298 83 -342 93 -355 80 -9 -9 -11 -18 -5 -24 6 -5 133 -71 283 -146 149 -75 272 -141 272 -146 0 -5 -124 -71 -275 -146 -194 -97 -275 -143 -275 -154 0 -9 6 -19 13 -22 6 -2 156 35 332 84 176 49 330 89 341 89 19 0 22 -7 28 -77 7 -85 28 -302 51 -536 8 -81 15 -150 15 -153 0 -3 10 -4 22 -2 22 3 23 10 60 383 20 209 37 381 37 383 4 12 33 5 528 -134 89 -25 167 -43 173 -39 29 18 -14 47 -265 175 -148 76 -270 144 -270 150 0 6 192 105 427 219 235 114 434 213 441 220 13 10 13 18 2 54 -25 85 -77 193 -130 272 -179 270 -466 457 -795 519 -90 18 -351 20 -455 5z"
       id="path2"
       style="fill:#116bfe;fill-opacity:1" />
    <path
       d="M9060 2026 c-38 -62 -162 -169 -242 -208 -63 -31 -162 -61 -275 -84 -13 -2 -23 -11 -23 -19 0 -12 16 -15 79 -15 44 0 82 -4 85 -9 3 -5 -3 -35 -13 -67 -10 -33 -30 -102 -46 -154 -15 -52 -31 -108 -36 -125 -96 -312 -103 -422 -31 -498 50 -54 98 -71 193 -72 79 0 91 3 160 37 100 50 249 195 249 242 0 14 -10 11 -49 -18 -108 -80 -197 -98 -245 -50 -44 45 -40 68 74 449 23 77 48 164 56 194 8 29 17 58 20 62 3 5 70 9 148 9 141 0 144 0 150 23 15 58 18 57 -134 57 -77 0 -140 3 -140 8 0 4 18 63 40 132 22 69 40 128 40 133 0 4 -9 7 -19 7 -11 0 -28 -15 -41 -34z"
       id="path4"
       style="fill:#116bfe;fill-opacity:1" />
    <path
       d="M3654 1800 c-122 -18 -274 -91 -362 -174 -91 -85 -163 -224 -182 -349 -37 -249 89 -444 317 -492 232 -49 455 46 604 258 27 39 49 74 49 79 0 18 -24 6 -73 -37 -29 -25 -85 -62 -125 -82 -64 -32 -85 -37 -163 -41 -80 -4 -94 -2 -141 22 -91 45 -131 126 -132 261 0 193 114 424 238 485 23 11 54 20 68 20 30 0 73 -32 92 -68 23 -44 25 -226 4 -255 -8 -10 -77 -35 -173 -63 -258 -74 -244 -83 131 -84 160 0 292 4 307 9 21 8 28 20 37 68 16 75 7 189 -18 246 -68 153 -255 230 -478 197z"
       id="path6"
       style="fill:#116bfe;fill-opacity:1" />
    <path
       d="M6087 1800 c-108 -28 -197 -102 -336 -283 -45 -59 -87 -105 -92 -101 -11 7 -19 -7 113 191 59 90 108 165 108 168 0 3 -76 5 -169 5 -153 0 -170 -2 -175 -17 -12 -43 -236 -950 -236 -956 0 -4 70 -7 155 -7 l154 0 10 38 c6 20 35 136 65 258 61 245 80 300 131 379 63 99 164 147 232 111 36 -18 43 -33 43 -89 0 -50 -37 -133 -91 -204 -39 -53 -38 -74 3 -52 121 64 288 211 329 290 34 66 33 154 -3 201 -15 19 -42 42 -61 51 -43 21 -131 29 -180 17z"
       id="path8"
       style="fill:#116bfe;fill-opacity:1" />
    <path
       d="M6900 1803 c-77 -9 -165 -35 -238 -70 -107 -52 -225 -169 -275 -273 -102 -210 -83 -434 47 -564 186 -186 577 -157 798 59 104 101 169 239 183 390 8 85 -13 198 -49 259 -60 103 -173 175 -303 195 -71 11 -96 11 -163 4z m143 -77 c57 -35 77 -133 58 -281 -17 -127 -75 -343 -114 -428 -60 -130 -153 -200 -241 -183 -113 23 -141 143 -91 390 65 322 139 469 256 513 36 13 101 8 132 -11z"
       id="path10"
       style="fill:#116bfe;fill-opacity:1" />
    <path
       d="M7922 1800 c-224 -31 -351 -143 -354 -312 -1 -46 5 -74 20 -104 40 -79 99 -118 381 -252 30 -14 71 -42 93 -62 33 -33 38 -42 38 -83 0 -39 -6 -53 -35 -85 -41 -46 -90 -63 -184 -63 -82 0 -127 17 -165 62 -25 29 -28 39 -24 89 3 39 12 67 31 95 15 22 27 43 27 47 0 5 -65 8 -145 8 l-144 0 -12 -42 c-35 -133 53 -254 221 -305 78 -24 301 -23 390 1 194 53 310 172 310 318 0 134 -77 200 -390 335 -133 58 -173 154 -99 238 35 40 81 57 149 57 119 -1 196 -92 169 -197 -6 -22 -13 -50 -16 -63 l-5 -23 133 3 134 3 3 42 c8 113 -108 240 -255 278 -71 19 -195 25 -271 15z"
       id="path12"
       style="fill:#116bfe;fill-opacity:1" />
    <path
       d="M9775 1799 c-224 -29 -363 -132 -381 -282 l-7 -57 162 0 161 0 0 73 c1 137 52 199 172 205 80 5 118 -8 154 -52 25 -29 26 -35 21 -111 -4 -62 -27 -163 -42 -182 -1 -2 -95 -17 -210 -33 -246 -36 -281 -44 -360 -81 -152 -71 -225 -192 -195 -324 21 -94 84 -153 187 -176 71 -16 177 -2 253 34 74 35 185 130 239 206 25 33 50 61 58 61 7 0 13 -3 13 -6 0 -3 -34 -62 -75 -131 -41 -68 -75 -128 -75 -134 0 -5 67 -9 163 -9 l162 0 58 228 c89 345 99 391 99 467 3 227 -217 347 -557 304z m211 -511 c-10 -51 -82 -194 -122 -243 -111 -137 -328 -100 -300 50 10 50 67 109 140 145 62 30 221 78 265 79 21 1 23 -2 17 -31z"
       id="path14"
       style="fill:#116bfe;fill-opacity:1" />
    <path
       d="M11092 1790 c-29 -10 -68 -28 -87 -40 -44 -27 -154 -146 -230 -248 -33 -45 -66 -81 -74 -82 -20 0 -12 15 99 180 56 83 104 158 107 166 4 12 -21 14 -164 14 l-168 0 -119 -477 c-66 -263 -121 -484 -124 -491 -3 -10 29 -12 154 -10 l159 3 66 265 c74 294 105 375 174 449 76 81 173 103 221 50 41 -46 10 -168 -69 -272 -66 -86 -46 -89 71 -11 113 76 222 180 255 246 91 180 -67 332 -271 258z"
       id="path16"
       style="fill:#116bfe;fill-opacity:1" />
    <path
       d="M4288 1428 c-103 -418 -102 -414 -88 -484 27 -131 154 -194 326 -165 132 23 257 108 364 246 40 52 60 67 60 45 0 -5 -34 -65 -75 -132 -41 -67 -75 -126 -75 -130 0 -4 74 -8 163 -8 l164 0 118 478 c65 262 120 483 123 490 3 10 -29 12 -154 10 l-158 -3 -8 -30 c-5 -16 -35 -142 -68 -279 -67 -276 -95 -347 -167 -424 -58 -62 -120 -91 -190 -92 -41 0 -58 5 -80 24 -25 21 -28 31 -26 78 0 29 37 198 82 375 45 178 81 329 81 338 0 13 -23 15 -153 15 l-152 0 -87 -352z"
       id="path18"
       style="fill:#116bfe;fill-opacity:1" />
  </g>
</svg>
