<?xml version="1.0" encoding="UTF-8" standalone="no"?>
<!-- Created with Inkscape (http://www.inkscape.org/) -->

<svg
   xmlns:dc="http://purl.org/dc/elements/1.1/"
   xmlns:cc="http://creativecommons.org/ns#"
   xmlns:rdf="http://www.w3.org/1999/02/22-rdf-syntax-ns#"
   xmlns:svg="http://www.w3.org/2000/svg"
   xmlns="http://www.w3.org/2000/svg"
   xmlns:xlink="http://www.w3.org/1999/xlink"
   xmlns:sodipodi="http://sodipodi.sourceforge.net/DTD/sodipodi-0.dtd"
   xmlns:inkscape="http://www.inkscape.org/namespaces/inkscape"
   width="1024"
   height="230"
   id="svg2"
   version="1.1"
   inkscape:version="0.48.5 r10040"
   sodipodi:docname="Nouveau document 1">
  <defs
     id="defs4">
    <linearGradient
       gradientTransform="matrix(1,0,0,-1,-185.6875,-222.1875)"
       y2="-264.61719"
       x2="351.96579"
       y1="-264.61719"
       x1="190.2363"
       gradientUnits="userSpaceOnUse"
       id="path9752_1_">
      <stop
         id="stop4505"
         style="stop-color:#832C71"
         offset="0" />
      <stop
         id="stop4507"
         style="stop-color:#AD066F"
         offset="0.2515" />
      <stop
         id="stop4509"
         style="stop-color:#C4064C"
         offset="0.5031" />
      <stop
         id="stop4511"
         style="stop-color:#DC021B"
         offset="1" />
    </linearGradient>
    <linearGradient
       inkscape:collect="always"
       xlink:href="#path9752_1_"
       id="linearGradient3826"
       gradientUnits="userSpaceOnUse"
       gradientTransform="matrix(1,0,0,-1,-185.6875,-222.1875)"
       x1="190.2363"
       y1="-264.61719"
       x2="351.96579"
       y2="-264.61719" />
  </defs>
  <sodipodi:namedview
     id="base"
     pagecolor="#ffffff"
     bordercolor="#666666"
     borderopacity="1.0"
     inkscape:pageopacity="0.0"
     inkscape:pageshadow="2"
     inkscape:zoom="0.7"
     inkscape:cx="542.06923"
     inkscape:cy="82.703516"
     inkscape:document-units="px"
     inkscape:current-layer="layer1"
     showgrid="false"
     inkscape:window-width="1920"
     inkscape:window-height="1017"
     inkscape:window-x="-8"
     inkscape:window-y="-8"
     inkscape:window-maximized="1" />
  <metadata
     id="metadata7">
    <rdf:RDF>
      <cc:Work
         rdf:about="">
        <dc:format>image/svg+xml</dc:format>
        <dc:type
           rdf:resource="http://purl.org/dc/dcmitype/StillImage" />
        <dc:title></dc:title>
      </cc:Work>
    </rdf:RDF>
  </metadata>
  <g
     inkscape:label="Calque 1"
     inkscape:groupmode="layer"
     id="layer1"
     transform="translate(0,-822.36218)">
    <g
       id="g3896"
       transform="matrix(1.4113809,0,0,1.4113809,-14.619432,-420.54587)">
      <g
         id="g3802"
         transform="matrix(1.2434028,0,0,1.2434028,29.944963,907.5592)">
        <polygon
           id="polygon3804"
           points="11.303,31.802 11.303,76.261 148.566,76.261 156.494,31.802 "
           style="fill:#ffffff;stroke:#000000;stroke-width:0.01351131" />
        <linearGradient
           gradientTransform="matrix(1,0,0,-1,-185.6875,-222.1875)"
           y2="-264.61719"
           x2="351.96579"
           y1="-264.61719"
           x1="190.2363"
           gradientUnits="userSpaceOnUse"
           id="linearGradient3806">
          <stop
             id="stop3808"
             style="stop-color:#832C71"
             offset="0" />
          <stop
             id="stop3810"
             style="stop-color:#AD066F"
             offset="0.2515" />
          <stop
             id="stop3812"
             style="stop-color:#C4064C"
             offset="0.5031" />
          <stop
             id="stop3814"
             style="stop-color:#DC021B"
             offset="1" />
        </linearGradient>
        <path
           d="M 5.64,84.383 C 5.454,84.226 5.133,83.876 4.924,83.609 L 4.548,83.124 V 42.707 C 4.548,4.561 4.564,2.257 4.842,1.712 5.449,0.521 5.584,0.486 10.134,0.339 21.43,-0.027 34.595,0.302 47.891,1.284 c 37.157,2.744 70.334,10.192 96.029,21.555 8.218,3.636 20.598,10.428 21.965,12.051 0.804,0.955 1.11,-0.159 -6.675,24.209 -6.629,20.744 -7.873,24.524 -8.212,24.942 -0.215,0.266 -0.571,0.401 -1.29,0.491 -0.546,0.067 -33.108,0.127 -72.362,0.133 C 10.14,84.673 5.959,84.655 5.64,84.383 l 0,0 z M 31.731,73.567 c 4.546,-0.336 7.599,-1.049 10.436,-2.436 3.101,-1.518 5.171,-3.576 6.352,-6.31 0.484,-1.126 0.544,-1.436 0.547,-2.864 0.002,-1.468 -0.043,-1.695 -0.539,-2.704 -0.692,-1.409 -2.417,-3.172 -4.375,-4.476 -0.815,-0.542 -4.162,-2.349 -7.44,-4.014 -4.762,-2.42 -6.143,-3.196 -6.871,-3.87 -0.819,-0.756 -0.911,-0.911 -0.918,-1.547 -0.015,-1.289 0.905,-2.304 2.952,-3.262 1.303,-0.611 2.967,-0.972 5.412,-1.175 2.006,-0.167 2.86,-0.126 6.281,0.3 1.951,0.242 2.263,0.247 2.402,0.037 0.25,-0.387 1.504,-4.384 1.546,-4.933 0.048,-0.616 -0.108,-0.667 -3.236,-1.047 -3.161,-0.385 -9.215,-0.26 -11.885,0.244 -6.446,1.215 -10.603,3.574 -12.263,6.955 -1.539,3.129 -1.012,5.805 1.663,8.472 1.566,1.561 2.866,2.4 7.27,4.69 7.356,3.831 8.519,4.583 9.513,6.151 0.544,0.855 0.585,1.276 0.216,2.163 -0.778,1.864 -2.898,2.908 -6.605,3.248 -5.507,0.504 -10.018,-0.336 -17.751,-3.303 -0.217,-0.083 -0.441,0.22 -1.043,1.414 -1.123,2.241 -1.99,4.421 -1.826,4.587 0.232,0.233 3.524,1.432 5.443,1.985 2.749,0.791 6.177,1.43 9.419,1.756 1.253,0.128 3.038,0.107 5.3,-0.061 l 0,0 0,0 z m 81.555,-0.478 c 1.156,-0.185 2.86,-0.499 3.784,-0.698 1.63,-0.351 5.027,-1.377 5.406,-1.636 0.103,-0.069 1.175,-3.258 2.388,-7.085 1.208,-3.828 2.247,-7.009 2.31,-7.069 0.06,-0.062 3.993,-0.137 8.742,-0.168 l 8.629,-0.058 0.782,-2.472 c 0.43,-1.36 0.781,-2.631 0.781,-2.824 0,-0.526 -0.638,-0.565 -9.282,-0.565 -4.245,0 -7.718,-0.046 -7.718,-0.103 0,-0.116 2.698,-8.543 2.752,-8.598 0.02,-0.019 4.699,-0.088 10.402,-0.154 l 10.368,-0.12 0.778,-2.55 c 0.429,-1.403 0.779,-2.743 0.779,-2.979 0,-0.415 -0.044,-0.431 -1.39,-0.535 -1.821,-0.142 -19.604,-0.141 -24.16,0 l -3.551,0.11 -1.768,5.319 c -0.971,2.924 -2.723,8.309 -3.893,11.965 -1.168,3.657 -2.615,8.178 -3.213,10.047 l -1.089,3.398 -0.879,0.175 c -3.743,0.747 -9.618,0.638 -12.986,-0.242 -4.204,-1.098 -6.927,-3.416 -8.093,-6.886 -0.643,-1.919 -0.627,-4.94 0.04,-7.081 1.347,-4.327 5.318,-7.986 10.398,-9.579 3.006,-0.941 3.793,-1.026 9.533,-1.021 l 5.33,0.004 0.958,-3.008 c 0.529,-1.656 0.896,-3.074 0.818,-3.152 -0.576,-0.573 -10.367,-0.763 -13.761,-0.266 -6.374,0.933 -11.508,3.229 -15.721,7.032 -0.795,0.72 -1.474,1.287 -1.498,1.259 -0.029,-0.027 0.396,-1.558 0.944,-3.402 1.304,-4.396 1.331,-4.538 0.825,-4.672 -0.527,-0.142 -5.774,-0.122 -6.619,0.026 l -0.673,0.119 -0.724,2.103 c -0.398,1.156 -2.236,6.792 -4.081,12.523 -1.846,5.731 -3.378,10.443 -3.407,10.471 -0.026,0.027 -0.572,-1.177 -1.212,-2.678 -2.18,-5.115 -4.715,-9.915 -7.71,-14.594 -1.454,-2.272 -4.286,-6.249 -5.198,-7.297 l -0.562,-0.65 -3.204,-0.09 c -1.761,-0.049 -3.617,-0.039 -4.126,0.025 l -0.925,0.116 -1.63,4.915 c -0.897,2.705 -2.243,6.886 -2.99,9.294 -0.748,2.406 -1.395,4.474 -1.436,4.596 -0.042,0.121 0.554,0.842 1.324,1.599 1.582,1.556 2.279,2.511 2.996,4.094 0.418,0.918 0.557,1.085 0.867,1.042 0.336,-0.049 0.65,-0.881 2.984,-7.913 1.434,-4.323 2.652,-7.901 2.706,-7.952 0.053,-0.05 0.629,0.722 1.282,1.716 4.514,6.889 8.251,14.707 10.987,22.978 l 1.047,3.159 4.47,-0.044 4.472,-0.045 2.054,-6.355 c 1.128,-3.494 2.124,-6.52 2.214,-6.722 0.141,-0.317 0.229,-0.166 0.622,1.097 1.602,5.138 5.267,8.74 11.134,10.94 1.518,0.569 4.434,1.267 6.098,1.457 2.237,0.254 9.094,0.069 11.495,-0.316 l 0,0 0,0 z"
           connector-curvature="0"
           id="path3816"
           inkscape:connector-curvature="0"
           style="fill:url(#linearGradient3826);stroke:#000000;stroke-width:0.01351131" />
      </g>
      <g
         id="text3818"
         style="font-size:59.91689682px;font-style:normal;font-variant:normal;font-weight:300;font-stretch:normal;line-height:125%;letter-spacing:0px;word-spacing:0px;fill:#404042;fill-opacity:1;stroke:#404042;stroke-width:0.98092461;stroke-opacity:1;font-family:Avenir LT Std 55 Roman;-inkscape-font-specification:Avenir LT Std 55 Roman"
         transform="matrix(1.0276898,0,0,0.97305625,30,277.14286)">
        <path
           inkscape:connector-curvature="0"
           id="path3829"
           d="m 251.13581,706.54639 7.54943,0 0,-42.42062 -7.54943,0 z" />
        <path
           inkscape:connector-curvature="0"
           id="path3831"
           d="m 267.93313,706.54639 7.54944,0 0,-32.53446 0.11983,0 20.97064,32.53446 9.58658,0 0,-42.42062 -7.54943,0 0,31.51588 -0.11983,0 -20.55123,-31.51588 -10.006,0 z" />
        <path
           inkscape:connector-curvature="0"
           id="path3833"
           d="m 324.36725,706.54639 7.54943,0 0,-35.59018 13.0018,0 0,-6.83044 -33.55303,0 0,6.83044 13.0018,0 z" />
        <path
           inkscape:connector-curvature="0"
           id="path3835"
           d="m 350.08481,706.54639 29.17916,0 0,-6.83044 -21.62972,0 0,-11.5039 19.47274,0 0,-6.83044 -19.47274,0 0,-10.4254 20.55123,0 0,-6.83044 -28.10067,0 z" />
        <path
           inkscape:connector-curvature="0"
           id="path3837"
           d="m 386.71371,706.54639 7.54943,0 0,-17.97484 5.51228,0 9.82625,17.97484 9.10725,0 -11.26424,-18.75375 c 3.1618,-0.49055 5.5859,-1.75627 7.27232,-3.79719 1.68636,-2.04086 2.53767,-4.60977 2.55393,-7.70671 -0.14983,-4.67467 -1.76756,-7.89266 -4.85321,-9.65398 -3.08571,-1.76125 -6.74059,-2.59757 -10.96465,-2.50899 l -14.73936,0 z m 7.54943,-24.44578 0,-11.5039 6.53085,0 c 2.06085,-0.0799 3.97567,0.22972 5.74446,0.9287 1.76875,0.69906 2.70993,2.26686 2.82355,4.70342 -0.11861,2.65631 -1.1247,4.32397 -3.01827,5.00299 -1.89363,0.67908 -3.96323,0.96867 -6.20881,0.86879 z" />
        <path
           inkscape:connector-curvature="0"
           id="path3839"
           d="m 459.50386,669.75789 c -2.09461,-2.40285 -4.37642,-4.12794 -6.84542,-5.17526 -2.46908,-1.04724 -5.14033,-1.55903 -8.01378,-1.53535 -6.64822,0.0862 -12.0157,2.13081 -16.10246,6.13391 -4.08679,4.00318 -6.18884,9.44805 -6.30617,16.33464 0.11733,6.71436 2.21938,12.05438 6.30617,16.02007 4.08676,3.9657 9.45424,5.99536 16.10246,6.08898 3.14557,0.015 6.08145,-0.58419 8.80767,-1.79749 2.72614,-1.2133 5.06287,-3.13061 7.01018,-5.75194 l -6.23127,-4.4338 c -1.41555,1.78751 -2.92844,3.09568 -4.53865,3.92451 -1.61028,0.82884 -3.27295,1.23827 -4.98802,1.22828 -4.43381,-0.0911 -7.95388,-1.58652 -10.56022,-4.48622 -2.60636,-2.89968 -3.93949,-6.65691 -3.9994,-11.27172 0.0599,-4.32767 1.39304,-7.91015 3.99941,-10.74746 2.60633,-2.83724 6.1264,-4.30768 10.56021,-4.41132 1.46168,-0.0312 2.92713,0.25593 4.39635,0.86129 1.46916,0.60544 2.97954,1.71638 4.53116,3.33284 z" />
        <path
           inkscape:connector-curvature="0"
           id="path3841"
           d="m 465.40893,706.54639 7.54943,0 0,-42.42062 -7.54943,0 z" />
        <path
           inkscape:connector-curvature="0"
           id="path3843"
           d="m 490.8941,706.54639 7.54943,0 0,-35.59018 13.0018,0 0,-6.83044 -33.55303,0 0,6.83044 13.0018,0 z" />
        <path
           inkscape:connector-curvature="0"
           id="path3845"
           d="m 516.61167,706.54639 29.17915,0 0,-6.83044 -21.62972,0 0,-11.5039 19.47274,0 0,-6.83044 -19.47274,0 0,-10.4254 20.55123,0 0,-6.83044 -28.10066,0 z m 10.7849,-45.29659 5.63212,0 8.44817,-8.62793 -8.14859,0 z" />
        <path
           inkscape:connector-curvature="0"
           id="path3847"
           d="m 579.54372,667.42116 c -1.67144,-1.5453 -3.5563,-2.66373 -5.65458,-3.35531 -2.09834,-0.69149 -4.2678,-1.03101 -6.50839,-1.01857 -4.08555,-0.0124 -7.67302,1.0311 -10.76243,3.13062 -3.08943,2.0996 -4.71466,5.33007 -4.87568,9.69143 0.10485,3.69829 1.15338,6.39014 3.1456,8.07557 1.9922,1.68547 4.29897,2.91313 6.92031,3.68297 2.62132,0.76988 4.92808,1.63055 6.92031,2.58201 1.99219,0.9515 3.04072,2.54239 3.1456,4.77269 -0.0924,1.94604 -0.89627,3.4015 -2.41162,4.36639 -1.5154,0.96491 -3.18806,1.44673 -5.01798,1.44548 -1.70138,-0.009 -3.28666,-0.39569 -4.75584,-1.16088 -1.4692,-0.76517 -2.68001,-1.85614 -3.63242,-3.27291 l -5.69203,5.51228 c 1.77002,2.04838 3.86209,3.52382 6.27622,4.4263 2.41411,0.90249 4.95554,1.34437 7.62432,1.32565 4.29023,0.005 7.91764,-1.11344 10.88227,-3.35531 2.96457,-2.24185 4.5099,-5.6371 4.63601,-10.18574 -0.10488,-3.68794 -1.15342,-6.38916 -3.1456,-8.10366 -1.99224,-1.71445 -4.29901,-2.9627 -6.92031,-3.74475 -2.62135,-0.78201 -4.92812,-1.61834 -6.92031,-2.50899 -1.99223,-0.8906 -3.04076,-2.35605 -3.1456,-4.39634 0.0724,-1.93102 0.79637,-3.32656 2.17196,-4.18664 1.37556,-0.86001 2.96833,-1.28192 4.77831,-1.26573 1.49289,-0.002 2.89593,0.27215 4.20911,0.82385 1.31314,0.55176 2.38663,1.39558 3.22049,2.53145 z" />
      </g>
      <g
         id="text3822"
         style="font-size:35.65779495px;font-style:normal;font-variant:normal;font-weight:300;font-stretch:normal;line-height:125%;letter-spacing:0px;word-spacing:0px;fill:#787879;fill-opacity:1;stroke:#787879;stroke-width:1.01693952;stroke-miterlimit:4;stroke-opacity:1;font-family:Avenir LT Std 55 Roman;-inkscape-font-specification:Avenir LT Std 55 Roman"
         transform="matrix(1.006573,0,0,0.99346993,30,277.14286)">
        <path
           inkscape:connector-curvature="0"
           id="path3850"
           style="fill:#787879;stroke:#787879;font-family:Avenir LT Std 45 Book;-inkscape-font-specification:'Avenir LT Std 45 Book, Light'"
           d="m 264.20604,714.00693 -2.56733,0 0,25.24539 14.33425,0 0,-2.35338 -11.76692,0 z" />
        <path
           inkscape:connector-curvature="0"
           id="path3852"
           style="fill:#787879;stroke:#787879;font-family:Avenir LT Std 45 Book;-inkscape-font-specification:'Avenir LT Std 45 Book, Light'"
           d="m 294.15843,731.55033 0,-1.06972 c -0.0164,-2.34223 -0.71465,-4.29892 -2.09487,-5.87008 -1.38025,-1.57114 -3.34437,-2.39571 -5.89237,-2.47373 -2.42545,0.0513 -4.42078,0.88476 -5.98598,2.50047 -1.56521,1.61574 -2.37493,3.70614 -2.42915,6.27123 0.0498,2.56511 0.8684,4.65552 2.4559,6.27124 1.58748,1.61572 3.64521,2.44921 6.17317,2.50047 1.37725,0.009 2.66983,-0.26743 3.87774,-0.82904 1.20787,-0.5616 2.30434,-1.46194 3.28939,-2.70104 l -1.81853,-1.49761 c -0.47247,0.77555 -1.16779,1.44413 -2.08595,2.00573 -0.91819,0.5616 -2.00574,0.85578 -3.26265,0.88252 -1.68853,-0.0401 -3.08957,-0.61955 -4.20311,-1.7383 -1.11355,-1.11874 -1.75687,-2.53612 -1.92995,-4.25214 z m -13.83505,-1.92549 c 0.052,-1.42405 0.64332,-2.65869 1.77396,-3.70391 1.13062,-1.04519 2.48857,-1.59342 4.07385,-1.64469 1.70782,0.0245 3.03457,0.51927 3.98025,1.48424 0.94564,0.96499 1.42553,2.2531 1.43966,3.86436 z" />
        <path
           inkscape:connector-curvature="0"
           id="path3854"
           style="fill:#787879;stroke:#787879;font-family:Avenir LT Std 45 Book;-inkscape-font-specification:'Avenir LT Std 45 Book, Light'"
           d="m 309.40721,725.13201 c -0.55493,-1.07639 -1.32602,-1.84748 -2.31327,-2.31327 -0.98727,-0.46575 -2.07036,-0.69307 -3.24927,-0.68194 -1.62985,-0.007 -3.0502,0.39893 -4.26105,1.2168 -1.21087,0.81791 -1.84676,2.0882 -1.90767,3.81088 0.10697,1.55334 0.67749,2.64534 1.71155,3.27602 1.03406,0.6307 1.88983,1.00064 2.56733,1.10983 l 2.28207,0.53486 c 0.89662,0.1939 1.64394,0.48361 2.24195,0.86915 0.59799,0.38555 0.90851,0.98727 0.93155,1.80516 -0.0431,0.95829 -0.45613,1.66252 -1.23909,2.11269 -0.78299,0.45018 -1.67739,0.67304 -2.68322,0.66858 -0.98058,-0.0104 -1.83635,-0.2392 -2.56732,-0.68641 -0.73098,-0.4472 -1.33716,-1.0504 -1.81853,-1.80961 l -2.03247,1.39064 c 0.79561,1.16481 1.74498,1.99978 2.84813,2.50493 1.10315,0.50514 2.29321,0.75177 3.57019,0.73989 1.69,0.0134 3.17721,-0.38778 4.46163,-1.20344 1.28439,-0.81566 1.96039,-2.12606 2.02801,-3.93122 -0.0245,-1.18634 -0.4123,-2.17435 -1.16332,-2.96401 -0.75105,-0.78966 -1.71825,-1.32303 -2.90162,-1.60013 l -2.38904,-0.57052 c -1.0883,-0.23027 -1.90693,-0.53633 -2.4559,-0.91817 -0.54898,-0.38182 -0.82384,-0.95531 -0.82457,-1.72047 0.0416,-0.88399 0.41302,-1.52285 1.11429,-1.91658 0.70125,-0.3937 1.48274,-0.58685 2.34447,-0.57943 0.85428,0.009 1.57931,0.21396 2.1751,0.61509 0.59576,0.40116 1.07119,0.94493 1.42629,1.63132 z" />
        <path
           inkscape:connector-curvature="0"
           id="path3856"
           style="fill:#787879;stroke:#787879;font-family:Avenir LT Std 45 Book;-inkscape-font-specification:'Avenir LT Std 45 Book, Light'"
           d="m 332.16137,722.56469 -4.81374,0 0,-4.70677 -2.35338,0 0,4.70677 -3.53008,0 0,2.13944 3.53008,0 0,10.51891 c 0.0609,1.79253 0.52743,2.99447 1.39955,3.60585 0.87211,0.61137 1.78434,0.89515 2.7367,0.85132 0.59354,-7.5e-4 1.16257,-0.0527 1.70709,-0.156 0.54451,-0.10326 1.03331,-0.25332 1.46641,-0.45018 l -0.10697,-2.17509 c -0.36178,0.19834 -0.75253,0.35434 -1.17223,0.468 -0.41973,0.11366 -0.83722,0.1716 -1.25247,0.17383 -0.74064,0.0312 -1.3275,-0.156 -1.76058,-0.56161 -0.4331,-0.4056 -0.65447,-1.2168 -0.66412,-2.43361 l 0,-9.84142 4.81374,0 z" />
        <path
           inkscape:connector-curvature="0"
           id="path3858"
           style="fill:#787879;stroke:#787879;font-family:Avenir LT Std 45 Book;-inkscape-font-specification:'Avenir LT Std 45 Book, Light'"
           d="m 335.6214,739.25232 2.35339,0 0,-9.41354 c -0.007,-1.20565 0.40857,-2.37789 1.248,-3.5167 0.83943,-1.13879 2.14686,-1.74943 3.92231,-1.8319 0.31942,7.6e-4 0.58982,0.0171 0.81121,0.049 0.22136,0.032 0.40261,0.075 0.54377,0.12926 l 0.46355,-2.31773 c -0.49328,-0.14261 -1.07568,-0.21392 -1.74721,-0.21394 -1.45974,0.0357 -2.63197,0.40116 -3.51671,1.09646 -0.88475,0.69533 -1.49538,1.50654 -1.83189,2.43361 l -0.0713,0 0,-3.10218 -2.31773,0 c 0.0371,1.18413 0.0698,2.16768 0.0981,2.95064 0.0282,0.78299 0.0431,1.53476 0.0446,2.25533 z" />
        <path
           inkscape:connector-curvature="0"
           id="path3860"
           style="fill:#787879;stroke:#787879;font-family:Avenir LT Std 45 Book;-inkscape-font-specification:'Avenir LT Std 45 Book, Light'"
           d="m 356.73181,729.01866 c -1.38536,-0.029 -2.87372,0.0687 -4.46509,0.29319 -1.59138,0.22451 -2.96088,0.75013 -4.10852,1.57684 -1.14764,0.82673 -1.74853,2.12888 -1.80267,3.90646 0.0542,1.62316 0.64108,2.84293 1.76058,3.65934 1.11948,0.8164 2.44623,1.22497 3.98025,1.22572 1.33045,0.007 2.47594,-0.2392 3.43647,-0.73989 0.96051,-0.50069 1.77617,-1.30001 2.44699,-2.39796 l 0.0713,0 c -1e-5,0.45166 0.0178,0.91224 0.0535,1.38172 0.0356,0.46949 0.0891,0.91224 0.16046,1.32824 l 2.28207,0 c -0.0743,-0.46577 -0.13968,-1.04075 -0.19612,-1.72493 -0.0565,-0.68417 -0.0862,-1.3572 -0.0891,-2.01909 l 0,-7.45238 c -0.049,-2.02503 -0.65522,-3.51967 -1.81853,-4.48391 -1.16333,-0.96422 -2.58962,-1.44262 -4.27888,-1.43521 -1.57116,0.003 -2.94842,0.21099 -4.13179,0.624 -1.18338,0.41305 -2.1595,1.01328 -2.92836,1.8007 l 1.42629,1.67589 c 0.71389,-0.6433 1.49686,-1.13062 2.34893,-1.46195 0.85206,-0.3313 1.76875,-0.4977 2.75007,-0.4992 1.44189,-7.3e-4 2.51606,0.35733 3.22253,1.07418 0.70645,0.71687 1.05857,1.79699 1.05635,3.24036 l 0,0.42788 z m 1.17669,1.9255 0,1.21235 c 0.003,1.51916 -0.41304,2.78648 -1.248,3.80196 -0.83499,1.0155 -2.10677,1.54293 -3.81534,1.5823 -0.99024,0.0104 -1.88019,-0.22434 -2.66984,-0.70424 -0.78967,-0.47988 -1.20716,-1.26731 -1.25247,-2.36229 0.0517,-1.09877 0.54653,-1.9004 1.48441,-2.40489 0.93787,-0.50448 2.00846,-0.82276 3.2118,-0.95483 1.20331,-0.13205 2.22901,-0.18884 3.07709,-0.17036 z" />
        <path
           inkscape:connector-curvature="0"
           id="path3862"
           style="fill:#787879;stroke:#787879;font-family:Avenir LT Std 45 Book;-inkscape-font-specification:'Avenir LT Std 45 Book, Light'"
           d="m 368.62488,722.56469 -2.35338,0 0,16.68763 2.35338,0 z m 0.53486,-6.41832 c -0.0178,-0.5081 -0.19612,-0.91816 -0.53486,-1.23018 -0.33875,-0.31198 -0.73098,-0.47244 -1.17669,-0.48138 -0.44572,0.009 -0.83795,0.1694 -1.17669,0.48138 -0.33875,0.31202 -0.51703,0.72208 -0.53486,1.23018 0.0178,0.50814 0.19611,0.91819 0.53486,1.23017 0.33874,0.31203 0.73097,0.47248 1.17669,0.48138 0.44571,-0.009 0.83794,-0.16935 1.17669,-0.48138 0.33874,-0.31198 0.51703,-0.72204 0.53486,-1.23017 z" />
        <path
           inkscape:connector-curvature="0"
           id="path3864"
           style="fill:#787879;stroke:#787879;font-family:Avenir LT Std 45 Book;-inkscape-font-specification:'Avenir LT Std 45 Book, Light'"
           d="m 374.12458,722.56469 c 0.0386,0.62773 0.0773,1.27996 0.11589,1.95669 0.0386,0.67676 0.0594,1.24877 0.0624,1.71601 l 0,13.01493 2.35338,0 0,-8.55776 c 0.0533,-1.99878 0.45386,-3.45677 1.20179,-4.37397 0.74792,-0.91717 1.52357,-1.49561 2.32697,-1.73532 0.80338,-0.23968 1.31491,-0.34269 1.53459,-0.30903 1.71748,0.007 2.90903,0.5007 3.57464,1.47978 0.66559,0.9791 0.98354,2.39945 0.95384,4.26105 l 0,9.23525 2.35338,0 0,-10.59023 c 0.004,-2.08148 -0.51185,-3.68606 -1.54664,-4.81374 -1.03482,-1.12765 -2.61116,-1.69816 -4.72905,-1.71155 -1.13584,0.0156 -2.21596,0.30533 -3.24036,0.86915 -1.02441,0.56384 -1.81036,1.30819 -2.35784,2.23304 l -0.0713,0 c 0.002,-0.44571 -0.002,-0.89142 -0.0134,-1.33715 -0.0111,-0.44571 -0.0423,-0.89142 -0.0936,-1.33715 z" />
        <path
           inkscape:connector-curvature="0"
           id="path3866"
           style="fill:#787879;stroke:#787879;font-family:Avenir LT Std 45 Book;-inkscape-font-specification:'Avenir LT Std 45 Book, Light'"
           d="m 405.09825,725.13201 c -0.55493,-1.07639 -1.32602,-1.84748 -2.31327,-2.31327 -0.98727,-0.46575 -2.07036,-0.69307 -3.24927,-0.68194 -1.62985,-0.007 -3.0502,0.39893 -4.26105,1.2168 -1.21087,0.81791 -1.84676,2.0882 -1.90767,3.81088 0.10697,1.55334 0.67749,2.64534 1.71155,3.27602 1.03406,0.6307 1.88983,1.00064 2.56733,1.10983 l 2.28207,0.53486 c 0.89662,0.1939 1.64394,0.48361 2.24195,0.86915 0.59799,0.38555 0.90851,0.98727 0.93155,1.80516 -0.0431,0.95829 -0.45613,1.66252 -1.23909,2.11269 -0.78299,0.45018 -1.67739,0.67304 -2.68322,0.66858 -0.98058,-0.0104 -1.83635,-0.2392 -2.56732,-0.68641 -0.73098,-0.4472 -1.33716,-1.0504 -1.81853,-1.80961 l -2.03247,1.39064 c 0.79561,1.16481 1.74498,1.99978 2.84813,2.50493 1.10315,0.50514 2.29321,0.75177 3.57019,0.73989 1.69,0.0134 3.17721,-0.38778 4.46163,-1.20344 1.28439,-0.81566 1.96039,-2.12606 2.02801,-3.93122 -0.0245,-1.18634 -0.4123,-2.17435 -1.16332,-2.96401 -0.75105,-0.78966 -1.71825,-1.32303 -2.90162,-1.60013 l -2.38904,-0.57052 c -1.0883,-0.23027 -1.90693,-0.53633 -2.4559,-0.91817 -0.54898,-0.38182 -0.82384,-0.95531 -0.82457,-1.72047 0.0416,-0.88399 0.41302,-1.52285 1.11429,-1.91658 0.70125,-0.3937 1.48274,-0.58685 2.34447,-0.57943 0.85428,0.009 1.57931,0.21396 2.1751,0.61509 0.59576,0.40116 1.07119,0.94493 1.42629,1.63132 z" />
        <path
           inkscape:connector-curvature="0"
           id="path3868"
           style="fill:#787879;stroke:#787879;font-family:Avenir LT Std 45 Book;-inkscape-font-specification:'Avenir LT Std 45 Book, Light'"
           d="m 433.30798,725.02504 c -0.83128,-0.9605 -1.77174,-1.67811 -2.82139,-2.15281 -1.04967,-0.47467 -2.14168,-0.71982 -3.27601,-0.73543 -2.75528,0.0201 -4.91106,0.84465 -6.46735,2.47373 -1.5563,1.6291 -2.34819,3.72843 -2.37567,6.29797 0.0275,2.56956 0.81937,4.66889 2.37567,6.29798 1.55629,1.62909 3.71207,2.45367 6.46735,2.47373 1.13433,-0.0156 2.22634,-0.26075 3.27602,-0.73544 1.04964,-0.47468 1.9901,-1.19229 2.82138,-2.15281 l -1.92549,-1.46195 c -0.40116,0.62252 -0.96277,1.14253 -1.68481,1.56001 -0.72208,0.41749 -1.55111,0.63441 -2.4871,0.65075 -1.96191,-0.007 -3.49369,-0.62623 -4.59534,-1.85864 -1.10167,-1.2324 -1.66179,-2.82361 -1.68035,-4.77363 0.0186,-1.95 0.57868,-3.5412 1.68035,-4.77362 1.10165,-1.2324 2.63343,-1.85194 4.59534,-1.85864 0.93599,0.0164 1.76502,0.23327 2.4871,0.65074 0.72204,0.41751 1.28365,0.93751 1.68481,1.56001 z" />
        <path
           inkscape:connector-curvature="0"
           id="path3870"
           style="fill:#787879;stroke:#787879;font-family:Avenir LT Std 45 Book;-inkscape-font-specification:'Avenir LT Std 45 Book, Light'"
           d="m 439.31368,712.29537 -2.35338,0 0,26.95695 2.35338,0 z" />
        <path
           inkscape:connector-curvature="0"
           id="path3872"
           style="fill:#787879;stroke:#787879;font-family:Avenir LT Std 45 Book;-inkscape-font-specification:'Avenir LT Std 45 Book, Light'"
           d="m 454.51217,729.01866 c -1.38537,-0.029 -2.87373,0.0687 -4.46509,0.29319 -1.59138,0.22451 -2.96089,0.75013 -4.10852,1.57684 -1.14764,0.82673 -1.74853,2.12888 -1.80268,3.90646 0.0542,1.62316 0.64109,2.84293 1.76058,3.65934 1.11949,0.8164 2.44624,1.22497 3.98025,1.22572 1.33046,0.007 2.47595,-0.2392 3.43648,-0.73989 0.96051,-0.50069 1.77617,-1.30001 2.44699,-2.39796 l 0.0713,0 c -10e-6,0.45166 0.0178,0.91224 0.0535,1.38172 0.0356,0.46949 0.0891,0.91224 0.16045,1.32824 l 2.28207,0 c -0.0743,-0.46577 -0.13967,-1.04075 -0.19611,-1.72493 -0.0565,-0.68417 -0.0862,-1.3572 -0.0892,-2.01909 l 0,-7.45238 c -0.049,-2.02503 -0.65521,-3.51967 -1.81852,-4.48391 -1.16333,-0.96422 -2.58962,-1.44262 -4.27888,-1.43521 -1.57116,0.003 -2.94842,0.21099 -4.13179,0.624 -1.18339,0.41305 -2.1595,1.01328 -2.92836,1.8007 l 1.42629,1.67589 c 0.71389,-0.6433 1.49686,-1.13062 2.34893,-1.46195 0.85205,-0.3313 1.76874,-0.4977 2.75007,-0.4992 1.44188,-7.3e-4 2.51606,0.35733 3.22253,1.07418 0.70645,0.71687 1.05857,1.79699 1.05635,3.24036 l 0,0.42788 z m 1.17669,1.9255 0,1.21235 c 0.003,1.51916 -0.41304,2.78648 -1.24801,3.80196 -0.83498,1.0155 -2.10676,1.54293 -3.81533,1.5823 -0.99024,0.0104 -1.88019,-0.22434 -2.66984,-0.70424 -0.78967,-0.47988 -1.20716,-1.26731 -1.25247,-2.36229 0.0517,-1.09877 0.54652,-1.9004 1.4844,-2.40489 0.93787,-0.50448 2.00847,-0.82276 3.21181,-0.95483 1.20331,-0.13205 2.22901,-0.18884 3.07709,-0.17036 z" />
        <path
           inkscape:connector-curvature="0"
           id="path3874"
           style="fill:#787879;stroke:#787879;font-family:Avenir LT Std 45 Book;-inkscape-font-specification:'Avenir LT Std 45 Book, Light'"
           d="m 474.46381,725.13201 c -0.55493,-1.07639 -1.32602,-1.84748 -2.31327,-2.31327 -0.98728,-0.46575 -2.07037,-0.69307 -3.24928,-0.68194 -1.62984,-0.007 -3.05019,0.39893 -4.26105,1.2168 -1.21087,0.81791 -1.84675,2.0882 -1.90767,3.81088 0.10697,1.55334 0.67749,2.64534 1.71156,3.27602 1.03405,0.6307 1.88983,1.00064 2.56732,1.10983 l 2.28207,0.53486 c 0.89663,0.1939 1.64394,0.48361 2.24196,0.86915 0.59799,0.38555 0.90851,0.98727 0.93155,1.80516 -0.0431,0.95829 -0.45613,1.66252 -1.2391,2.11269 -0.78298,0.45018 -1.67739,0.67304 -2.68321,0.66858 -0.98058,-0.0104 -1.83636,-0.2392 -2.56733,-0.68641 -0.73098,-0.4472 -1.33715,-1.0504 -1.81852,-1.80961 l -2.03247,1.39064 c 0.7956,1.16481 1.74498,1.99978 2.84813,2.50493 1.10314,0.50514 2.2932,0.75177 3.57019,0.73989 1.69,0.0134 3.17721,-0.38778 4.46162,-1.20344 1.2844,-0.81566 1.9604,-2.12606 2.02801,-3.93122 -0.0245,-1.18634 -0.4123,-2.17435 -1.16332,-2.96401 -0.75104,-0.78966 -1.71825,-1.32303 -2.90161,-1.60013 l -2.38904,-0.57052 c -1.0883,-0.23027 -1.90693,-0.53633 -2.4559,-0.91817 -0.54898,-0.38182 -0.82384,-0.95531 -0.82458,-1.72047 0.0416,-0.88399 0.41303,-1.52285 1.11429,-1.91658 0.70126,-0.3937 1.48275,-0.58685 2.34447,-0.57943 0.85428,0.009 1.57932,0.21396 2.1751,0.61509 0.59576,0.40116 1.0712,0.94493 1.42629,1.63132 z" />
        <path
           inkscape:connector-curvature="0"
           id="path3876"
           style="fill:#787879;stroke:#787879;font-family:Avenir LT Std 45 Book;-inkscape-font-specification:'Avenir LT Std 45 Book, Light'"
           d="m 489.64623,725.13201 c -0.55493,-1.07639 -1.32602,-1.84748 -2.31327,-2.31327 -0.98728,-0.46575 -2.07037,-0.69307 -3.24928,-0.68194 -1.62984,-0.007 -3.05019,0.39893 -4.26105,1.2168 -1.21087,0.81791 -1.84676,2.0882 -1.90767,3.81088 0.10697,1.55334 0.67749,2.64534 1.71155,3.27602 1.03406,0.6307 1.88984,1.00064 2.56733,1.10983 l 2.28207,0.53486 c 0.89663,0.1939 1.64394,0.48361 2.24196,0.86915 0.59799,0.38555 0.9085,0.98727 0.93154,1.80516 -0.0431,0.95829 -0.45612,1.66252 -1.23909,2.11269 -0.78298,0.45018 -1.67739,0.67304 -2.68321,0.66858 -0.98059,-0.0104 -1.83636,-0.2392 -2.56733,-0.68641 -0.73098,-0.4472 -1.33715,-1.0504 -1.81852,-1.80961 l -2.03247,1.39064 c 0.7956,1.16481 1.74498,1.99978 2.84813,2.50493 1.10314,0.50514 2.2932,0.75177 3.57019,0.73989 1.69,0.0134 3.1772,-0.38778 4.46162,-1.20344 1.28439,-0.81566 1.9604,-2.12606 2.02801,-3.93122 -0.0245,-1.18634 -0.4123,-2.17435 -1.16332,-2.96401 -0.75104,-0.78966 -1.71825,-1.32303 -2.90161,-1.60013 l -2.38904,-0.57052 c -1.0883,-0.23027 -1.90694,-0.53633 -2.4559,-0.91817 -0.54898,-0.38182 -0.82384,-0.95531 -0.82458,-1.72047 0.0416,-0.88399 0.41303,-1.52285 1.11429,-1.91658 0.70126,-0.3937 1.48275,-0.58685 2.34447,-0.57943 0.85428,0.009 1.57932,0.21396 2.1751,0.61509 0.59576,0.40116 1.07119,0.94493 1.42629,1.63132 z" />
        <path
           inkscape:connector-curvature="0"
           id="path3878"
           style="fill:#787879;stroke:#787879;font-family:Avenir LT Std 45 Book;-inkscape-font-specification:'Avenir LT Std 45 Book, Light'"
           d="m 496.77009,722.56469 -2.35339,0 0,16.68763 2.35339,0 z m 0.53486,-6.41832 c -0.0178,-0.5081 -0.19612,-0.91816 -0.53486,-1.23018 -0.33875,-0.31198 -0.73098,-0.47244 -1.1767,-0.48138 -0.44572,0.009 -0.83795,0.1694 -1.17669,0.48138 -0.33875,0.31202 -0.51703,0.72208 -0.53486,1.23018 0.0178,0.50814 0.19612,0.91819 0.53486,1.23017 0.33874,0.31203 0.73097,0.47248 1.17669,0.48138 0.44572,-0.009 0.83795,-0.16935 1.1767,-0.48138 0.33874,-0.31198 0.51702,-0.72204 0.53486,-1.23017 z" />
        <path
           inkscape:connector-curvature="0"
           id="path3880"
           style="fill:#787879;stroke:#787879;font-family:Avenir LT Std 45 Book;-inkscape-font-specification:'Avenir LT Std 45 Book, Light'"
           d="m 519.10004,722.56469 -2.35338,0 0,2.78127 -0.0713,0 c -0.80305,-1.11651 -1.79997,-1.93217 -2.99076,-2.44699 -1.19082,-0.51478 -2.35711,-0.76884 -3.49887,-0.76217 -2.64757,0.0513 -4.77809,0.88476 -6.39158,2.50047 -1.6135,1.61574 -2.44253,3.70614 -2.4871,6.27123 0.0446,2.56511 0.8736,4.65552 2.4871,6.27124 1.61349,1.61572 3.74401,2.44921 6.39158,2.50047 1.14176,0.007 2.30805,-0.24738 3.49887,-0.76218 1.19079,-0.5148 2.18771,-1.33046 2.99076,-2.44698 l 0.0713,0 0,13.05058 2.35338,0 z m -15.22568,8.34381 c 0.02,-1.91434 0.58611,-3.48772 1.69818,-4.72014 1.11206,-1.23239 2.64978,-1.86976 4.61317,-1.91212 1.96262,0.0424 3.55532,0.67973 4.77808,1.91212 1.22273,1.23242 1.85268,2.8058 1.88984,4.72014 -0.0372,1.91436 -0.66711,3.48774 -1.88984,4.72014 -1.22276,1.23241 -2.81546,1.86979 -4.77808,1.91213 -1.96339,-0.0423 -3.50111,-0.67972 -4.61317,-1.91213 -1.11207,-1.2324 -1.67813,-2.80578 -1.69818,-4.72014 z" />
        <path
           inkscape:connector-curvature="0"
           id="path3882"
           style="fill:#787879;stroke:#787879;font-family:Avenir LT Std 45 Book;-inkscape-font-specification:'Avenir LT Std 45 Book, Light'"
           d="m 538.72356,739.25232 c -0.0387,-0.62772 -0.0773,-1.27995 -0.11589,-1.9567 -0.0386,-0.67674 -0.0594,-1.24874 -0.0624,-1.71601 l 0,-13.01492 -2.35338,0 0,8.55776 c -0.0533,1.99879 -0.45388,3.45678 -1.20179,4.37396 -0.74793,0.91719 -1.52359,1.49563 -2.32697,1.73533 -0.8034,0.23969 -1.31493,0.3427 -1.53458,0.30903 -1.71751,-0.007 -2.90906,-0.50069 -3.57465,-1.47978 -0.66561,-0.97909 -0.98356,-2.39944 -0.95384,-4.26105 l 0,-9.23525 -2.35338,0 0,10.59022 c -0.004,2.08151 0.51183,3.68608 1.54664,4.81375 1.0348,1.12766 2.61115,1.69818 4.72905,1.71155 1.13583,-0.0156 2.21594,-0.30532 3.24036,-0.86915 1.02439,-0.56383 1.81034,-1.30818 2.35784,-2.23304 l 0.0713,0 c -0.002,0.44572 0.002,0.89143 0.0134,1.33715 0.0111,0.44572 0.0423,0.89143 0.0936,1.33715 z" />
        <path
           inkscape:connector-curvature="0"
           id="path3884"
           style="fill:#787879;stroke:#787879;font-family:Avenir LT Std 45 Book;-inkscape-font-specification:'Avenir LT Std 45 Book, Light'"
           d="m 559.64185,731.55033 0,-1.06972 c -0.0164,-2.34223 -0.71465,-4.29892 -2.09487,-5.87008 -1.38025,-1.57114 -3.34437,-2.39571 -5.89237,-2.47373 -2.42545,0.0513 -4.42078,0.88476 -5.98598,2.50047 -1.56521,1.61574 -2.37493,3.70614 -2.42915,6.27123 0.0498,2.56511 0.8684,4.65552 2.45589,6.27124 1.58749,1.61572 3.64522,2.44921 6.17318,2.50047 1.37725,0.009 2.66983,-0.26743 3.87774,-0.82904 1.20787,-0.5616 2.30433,-1.46194 3.28939,-2.70104 l -1.81853,-1.49761 c -0.47247,0.77555 -1.16779,1.44413 -2.08595,2.00573 -0.91819,0.5616 -2.00574,0.85578 -3.26265,0.88252 -1.68853,-0.0401 -3.08957,-0.61955 -4.20311,-1.7383 -1.11355,-1.11874 -1.75687,-2.53612 -1.92995,-4.25214 z m -13.83505,-1.92549 c 0.052,-1.42405 0.64332,-2.65869 1.77396,-3.70391 1.13062,-1.04519 2.48857,-1.59342 4.07385,-1.64469 1.70782,0.0245 3.03457,0.51927 3.98025,1.48424 0.94564,0.96499 1.42553,2.2531 1.43966,3.86436 z" />
        <path
           inkscape:connector-curvature="0"
           id="path3886"
           style="fill:#787879;stroke:#787879;font-family:Avenir LT Std 45 Book;-inkscape-font-specification:'Avenir LT Std 45 Book, Light'"
           d="m 574.89063,725.13201 c -0.55493,-1.07639 -1.32602,-1.84748 -2.31327,-2.31327 -0.98728,-0.46575 -2.07037,-0.69307 -3.24928,-0.68194 -1.62984,-0.007 -3.05019,0.39893 -4.26105,1.2168 -1.21087,0.81791 -1.84676,2.0882 -1.90767,3.81088 0.10697,1.55334 0.67749,2.64534 1.71155,3.27602 1.03406,0.6307 1.88984,1.00064 2.56733,1.10983 l 2.28207,0.53486 c 0.89663,0.1939 1.64394,0.48361 2.24196,0.86915 0.59799,0.38555 0.9085,0.98727 0.93154,1.80516 -0.0431,0.95829 -0.45612,1.66252 -1.23909,2.11269 -0.78298,0.45018 -1.67739,0.67304 -2.68321,0.66858 -0.98059,-0.0104 -1.83636,-0.2392 -2.56733,-0.68641 -0.73098,-0.4472 -1.33715,-1.0504 -1.81852,-1.80961 l -2.03247,1.39064 c 0.7956,1.16481 1.74498,1.99978 2.84813,2.50493 1.10314,0.50514 2.2932,0.75177 3.57019,0.73989 1.69,0.0134 3.1772,-0.38778 4.46162,-1.20344 1.2844,-0.81566 1.9604,-2.12606 2.02801,-3.93122 -0.0245,-1.18634 -0.4123,-2.17435 -1.16332,-2.96401 -0.75104,-0.78966 -1.71825,-1.32303 -2.90161,-1.60013 l -2.38904,-0.57052 c -1.0883,-0.23027 -1.90694,-0.53633 -2.4559,-0.91817 -0.54898,-0.38182 -0.82384,-0.95531 -0.82458,-1.72047 0.0416,-0.88399 0.41303,-1.52285 1.11429,-1.91658 0.70126,-0.3937 1.48275,-0.58685 2.34447,-0.57943 0.85428,0.009 1.57932,0.21396 2.1751,0.61509 0.59576,0.40116 1.07119,0.94493 1.42629,1.63132 z" />
        <path
           inkscape:connector-curvature="0"
           id="path3888"
           style="fill:#787879;stroke:#787879;font-family:Avenir LT Std 45 Book;-inkscape-font-specification:'Avenir LT Std 45 Book, Light'"
           d="m 604.06312,716.43162 c -0.99248,-1.12615 -2.07408,-1.9225 -3.24482,-2.38904 -1.17076,-0.46649 -2.46631,-0.69232 -3.88665,-0.67749 -2.13425,-0.007 -4.00774,0.57723 -5.62049,1.75167 -1.61275,1.17449 -2.4611,2.97964 -2.54504,5.41546 0.0674,2.24559 0.74156,3.8563 2.02244,4.83212 1.28087,0.97586 2.76399,1.69625 4.44937,2.16117 1.68535,0.46495 3.16847,1.05385 4.44936,1.76671 1.28087,0.71288 1.95501,1.92913 2.02244,3.64875 -0.0676,1.48647 -0.65447,2.62305 -1.76058,3.40973 -1.10613,0.78669 -2.32591,1.18338 -3.65933,1.19007 -1.32676,-0.0119 -2.47968,-0.2912 -3.45876,-0.83795 -0.9791,-0.54674 -1.73979,-1.2896 -2.28207,-2.22858 l -2.31773,1.67589 c 0.98206,1.31041 2.16469,2.26424 3.54791,2.8615 1.3832,0.59726 2.85109,0.89143 4.40368,0.88252 2.09337,-0.0171 3.97726,-0.6604 5.65168,-1.92995 1.6744,-1.26955 2.55989,-3.06282 2.65648,-5.3798 -0.0674,-2.21298 -0.74158,-3.8131 -2.02244,-4.80037 -1.2809,-0.98725 -2.76402,-1.72268 -4.44937,-2.2063 -1.68538,-0.48359 -3.1685,-1.07639 -4.44937,-1.77841 -1.28088,-0.70199 -1.95503,-1.87422 -2.02244,-3.5167 0.0594,-1.57856 0.62697,-2.73594 1.70264,-3.47214 1.07566,-0.73615 2.30286,-1.10015 3.68162,-1.092 2.14537,2e-5 3.77372,0.82014 4.88506,2.46035 z" />
        <path
           inkscape:connector-curvature="0"
           id="path3890"
           style="fill:#787879;stroke:#787879;font-family:Avenir LT Std 45 Book;-inkscape-font-specification:'Avenir LT Std 45 Book, Light'"
           d="m 612.92923,714.00693 -3.20916,0 0,25.24539 2.56733,0 0,-21.60835 0.0713,0 15.0474,21.60835 3.20916,0 0,-25.24539 -2.56733,0 0,21.3944 -0.0713,0 z" />
        <path
           inkscape:connector-curvature="0"
           id="path3892"
           style="fill:#787879;stroke:#787879;font-family:Avenir LT Std 45 Book;-inkscape-font-specification:'Avenir LT Std 45 Book, Light'"
           d="m 656.1229,733.76109 c -0.96351,1.4367 -2.07632,2.43213 -3.33842,2.9863 -1.26214,0.55418 -2.56214,0.81864 -3.90002,0.79338 -3.27157,-0.0914 -5.81216,-1.18338 -7.62176,-3.27602 -1.80961,-2.09263 -2.72779,-4.63767 -2.75453,-7.63513 0.0267,-2.99743 0.94492,-5.54247 2.75453,-7.63512 1.8096,-2.09262 4.35019,-3.18463 7.62176,-3.27602 1.37799,0.0357 2.66908,0.38334 3.87328,1.04297 1.20415,0.65969 2.07627,1.4174 2.61635,2.27316 l 2.24642,-1.67589 c -1.13512,-1.39879 -2.47524,-2.41651 -4.02037,-3.05317 -1.54517,-0.6366 -3.11706,-0.95009 -4.71568,-0.94046 -3.83986,0.0736 -6.97325,1.32604 -9.40017,3.75739 -2.42693,2.43141 -3.67939,5.60045 -3.75739,9.50714 0.078,3.90672 1.33046,7.07576 3.75739,9.50714 2.42692,2.43138 5.56031,3.68385 9.40017,3.75739 2.10971,-0.0305 3.97874,-0.47766 5.60711,-1.34161 1.62833,-0.86394 2.87337,-1.96189 3.73511,-3.29384 z" />
        <path
           inkscape:connector-curvature="0"
           id="path3894"
           style="fill:#787879;stroke:#787879;font-family:Avenir LT Std 45 Book;-inkscape-font-specification:'Avenir LT Std 45 Book, Light'"
           d="m 665.07765,727.30711 11.76692,0 0,-2.35338 -11.76692,0 0,-8.59342 12.65836,0 0,-2.35338 -15.22569,0 0,25.24539 2.56733,0 z" />
      </g>
    </g>
  </g>
</svg>
