<?xml version="1.0" encoding="UTF-8"?>
<svg version="1.1" xmlns="http://www.w3.org/2000/svg" width="225" height="225">
<path d="M0 0 C74.25 0 148.5 0 225 0 C225 74.25 225 148.5 225 225 C150.75 225 76.5 225 0 225 C0 150.75 0 76.5 0 0 Z " fill="#C10130" transform="translate(0,0)"/>
<path d="M0 0 C10.45214153 6.49640797 16.97746443 15.2437143 20.6171875 26.9921875 C22.85169333 38.71194259 19.94261785 50.17097909 13.3125 59.9375 C9.46716404 64.82768695 5.49376287 68.12363594 0 71 C-0.72445312 71.41121094 -1.44890625 71.82242188 -2.1953125 72.24609375 C-10.6329893 76.37912527 -20.93826815 76.33389672 -30 74.33984375 C-39.20438455 71.0176362 -47.06381646 64.42763044 -52 56 C-57.06236304 45.09644883 -59.33238775 33.7704563 -55.375 22.0625 C-50.78869257 11.25990828 -42.56660938 2.6319618 -31.75 -2 C-20.83515347 -5.7484048 -10.40530234 -4.95490588 0 0 Z " fill="#FDF9FA" transform="translate(166,78)"/>
<path d="M0 0 C4.713555 3.96367125 9.03508734 9.10526201 11 15 C11.68486368 25.36514836 11.38807735 33.05304741 4.8125 41.25 C0.27381721 46.13412165 -5.28875013 49.34524392 -12 50 C-12.64453125 50.07476562 -13.2890625 50.14953125 -13.953125 50.2265625 C-20.60447533 50.66843542 -25.54776712 48.76046287 -31 45 C-38.32303044 38.58303943 -41.83698376 31.85075879 -42.5625 22.1875 C-42.31592674 15.00325198 -38.90529857 8.44707919 -34.32421875 3.01171875 C-24.84667637 -5.76862511 -10.92001779 -6.88974318 0 0 Z " fill="#C10330" transform="translate(163,91)"/>
<path d="M0 0 C1.6622467 1.09204102 1.6622467 1.09204102 3 3 C3.38768005 6.07397461 3.38768005 6.07397461 3.40405273 9.90234375 C3.41091599 10.60022003 3.41777924 11.29809631 3.42485046 12.01712036 C3.4431532 14.32412047 3.43927671 16.63044287 3.43359375 18.9375 C3.43815358 20.54028546 3.44345855 22.14306896 3.44947815 23.74584961 C3.45841579 27.10506127 3.45597844 30.46403527 3.44604492 33.82324219 C3.43454813 38.13118344 3.45477353 42.43830588 3.48396206 46.74613953 C3.50229392 50.05583925 3.5020378 53.3653416 3.49632454 56.67507935 C3.49617099 58.26353098 3.5022434 59.85199571 3.51461601 61.44039917 C3.52947016 63.66001012 3.51889292 65.87809362 3.50170898 68.09765625 C3.50154282 69.36101807 3.50137665 70.62437988 3.50120544 71.92602539 C3 75 3 75 1.16395569 76.93920898 C-1.91583393 78.44895023 -3.77236563 77.9823235 -7 77 C-9.44176516 73.33735226 -9.25850402 71.55669643 -9.2746582 67.18945312 C-9.27976913 66.50133041 -9.28488007 65.8132077 -9.29014587 65.10423279 C-9.30404525 62.82981672 -9.3030851 60.55570349 -9.30078125 58.28125 C-9.3046676 56.7008859 -9.30900214 55.12052283 -9.31376648 53.54016113 C-9.32122912 50.22807427 -9.32093683 46.91609401 -9.31567383 43.60400391 C-9.30987475 39.35673646 -9.32682024 35.10990446 -9.3500185 30.86270905 C-9.36473877 27.59935957 -9.36562997 24.33611544 -9.36250877 21.07273865 C-9.36302271 19.50661862 -9.36827393 17.9404928 -9.37832069 16.37440491 C-9.39063714 14.18616278 -9.38392356 11.99877499 -9.37231445 9.81054688 C-9.37294388 8.56494995 -9.3735733 7.31935303 -9.3742218 6.03601074 C-9 3 -9 3 -7.66423035 1.09777832 C-5.05462203 -0.62360084 -3.03751291 -0.37968911 0 0 Z " fill="#FEFBFC" transform="translate(75,75)"/>
<path d="M0 0 C3.5 0.4375 3.5 0.4375 5.1934967 1.64344788 C6.94689509 4.05116327 6.88668969 5.61428128 6.90405273 8.57983398 C6.91673691 9.62779648 6.92942108 10.67575897 6.94248962 11.75547791 C6.93808617 13.45239525 6.93808617 13.45239525 6.93359375 15.18359375 C6.9388356 16.34625259 6.94407745 17.50891144 6.94947815 18.70680237 C6.95590577 21.16723837 6.95455185 23.62770507 6.94604492 26.08813477 C6.93754098 29.85683854 6.96627902 33.62402442 6.99804688 37.39257812 C6.99965905 39.78124954 6.99908105 42.16992365 6.99609375 44.55859375 C7.01294472 46.25247475 7.01294472 46.25247475 7.03013611 47.98057556 C7.02075516 49.03169022 7.01137421 50.08280487 7.00170898 51.16577148 C7.00145973 52.55118385 7.00145973 52.55118385 7.00120544 53.96458435 C6.34543065 57.20013529 5.04134732 58.39753485 2.5 60.4375 C0 61 0 61 -2.5 60.4375 C-5.07518931 58.2368299 -6.34903581 56.41981148 -6.86837769 53.04049683 C-7.01385044 49.99775557 -7.02786086 46.97969076 -6.99609375 43.93359375 C-6.99754898 42.81815689 -6.99900421 41.70272003 -7.00050354 40.55348206 C-6.99884581 38.19912093 -6.98729875 35.84474882 -6.96655273 33.49047852 C-6.93757603 29.88446116 -6.94595182 26.27991204 -6.95898438 22.67382812 C-6.95274754 20.38540951 -6.94435703 18.09699555 -6.93359375 15.80859375 C-6.93652939 14.72936142 -6.93946503 13.65012909 -6.94248962 12.53819275 C-6.92980545 11.53357498 -6.91712128 10.52895721 -6.90405273 9.49389648 C-6.89864975 8.61185043 -6.89324677 7.72980438 -6.88768005 6.82102966 C-6.14020784 2.22543033 -4.58716859 0.57339607 0 0 Z " fill="#FBF2F4" transform="translate(93.5,92.5625)"/>
<path d="M0 0 C1.9375 1.125 1.9375 1.125 3 3 C3.53852618 6.61581862 3.42236225 8.34111489 1.4375 11.4375 C-1 13 -1 13 -4.625 12.9375 C-8 12 -8 12 -10 9 C-10.32162076 5.9124407 -10.48724515 3.85984439 -8.9375 1.125 C-5.8930714 -0.64273274 -3.4368988 -0.36823916 0 0 Z " fill="#FDD801" transform="translate(97,75)"/>
<path d="M0 0 C3.5625 0.3125 3.5625 0.3125 5.5 1.4375 C7.09240283 4.24762264 7.01569325 6.14014724 6.5625 9.3125 C4.9375 11.75 4.9375 11.75 2.5625 13.3125 C-0.95109068 13.3125 -2.71278132 12.9437066 -5.375 10.625 C-6.82300221 7.47346578 -6.367426 5.60300737 -5.4375 2.3125 C-3.4375 0.3125 -3.4375 0.3125 0 0 Z " fill="#122048" transform="translate(50.4375,139.6875)"/>
<path d="M0 0 C0 3 0 3 -2.5 5.6875 C-3.325 6.450625 -4.15 7.21375 -5 8 C-5.66 7.67 -6.32 7.34 -7 7 C-2.25 1.125 -2.25 1.125 0 0 Z " fill="#C21335" transform="translate(133,91)"/>
<path d="M0 0 C2.125 0.375 2.125 0.375 4 1 C2.824375 1.928125 2.824375 1.928125 1.625 2.875 C-0.96837647 4.89858661 -0.96837647 4.89858661 -3 7 C-2.25 2.25 -2.25 2.25 0 0 Z " fill="#F8CC06" transform="translate(90,75)"/>
</svg>
