<svg width="204" height="32" viewBox="0 0 204 32" fill="none" xmlns="http://www.w3.org/2000/svg">
<path d="M158.832 0.0568037C158.328 0.0803086 158 0.315358 158 0.816796V23.2463C158 23.6361 158.277 23.9887 158.704 23.9887H198.367C198.723 23.9887 199.01 23.9574 199.177 23.4814C199.177 23.4814 203.197 10.7829 203.267 10.5557C203.416 10.0738 203.321 9.83093 202.914 9.57041C189.993 1.21442 170.678 0 161.908 0C160.648 0 159.608 0.0235051 158.834 0.0568037H158.832Z" fill="url(#paint0_linear_184_20713)"/>
<path d="M167.034 14.3929C165.579 13.6819 164.587 13.3116 164.826 12.5967C165.107 11.7505 166.572 11.4313 167.899 11.4626C168.57 11.4802 169.046 11.5664 169.591 11.6918L170.072 10.162C169.381 10.0327 168.887 9.96808 168.06 9.94653C165.4 9.88385 162.994 10.6262 162.379 12.1932C161.644 14.0521 163.722 15.098 165.52 15.9599C166.952 16.6435 168.081 17.2938 167.686 18.1478C167.375 18.8079 166.364 19.1213 164.894 19.086C163.621 19.0566 162.032 18.6864 160.778 18.0498L160.035 19.6776C160.955 20.1085 162.854 20.6941 164.475 20.7353C167.517 20.8019 169.488 20.0321 170.276 18.3574C171.209 16.381 168.894 15.2978 167.034 14.3909V14.3929Z" fill="white"/>
<path d="M171.165 17.1842C171.18 17.2214 171.206 17.2331 171.246 17.2331C171.287 17.2331 171.307 17.2214 171.318 17.1842C171.336 17.1313 172.801 12.5478 172.801 12.5478C174.295 14.7044 175.777 17.5426 176.571 20.5454H179.007L180.212 16.7434C180.224 16.7062 180.253 16.6964 180.29 16.6964C180.327 16.6964 180.36 16.7082 180.364 16.7434C180.732 19.1292 183.082 20.7334 186.41 20.7334C188.565 20.7334 190.509 20.1634 190.993 19.9009L192.254 15.8894H197.103L197.593 14.3342H192.747L193.583 11.7016H199.361L199.862 10.0896H191.749L188.996 18.7805C188.41 18.9294 187.688 19.0019 186.935 19.0019C185.31 19.0019 184.008 18.614 183.27 17.7444C182.717 17.0901 182.498 16.2498 182.634 15.3077C182.96 13.0688 185.121 11.6566 188.012 11.6566C188.62 11.6566 189.246 11.6918 189.807 11.7663L190.378 10.0759C189.681 9.97011 188.839 9.9231 188.012 9.9231C185.449 9.9231 183.222 10.8143 181.778 12.3813C181.734 12.4303 181.685 12.4283 181.658 12.4283C181.613 12.4283 181.584 12.4205 181.596 12.3813L182.32 10.0915H180.203L177.888 17.4192C177.153 15.2587 175.637 12.4107 173.784 10.0915H171.514L169.816 15.4272C170.67 16.0618 170.94 16.528 171.163 17.1861L171.165 17.1842Z" fill="white"/>
<path d="M158 27.8079H159.017L160.018 30.4855H160.03L161.046 27.8079H162.001L160.332 31.8938H159.618L158 27.8079Z" fill="#642974"/>
<path d="M162.92 29.8509C162.92 29.5238 162.974 29.228 163.083 28.9616C163.192 28.6952 163.343 28.47 163.537 28.2839C163.731 28.0978 163.962 27.9548 164.228 27.853C164.493 27.7531 164.786 27.7021 165.103 27.7021C165.419 27.7021 165.71 27.7531 165.978 27.853C166.244 27.9529 166.475 28.0959 166.669 28.2839C166.863 28.47 167.014 28.6972 167.123 28.9616C167.231 29.228 167.286 29.5238 167.286 29.8509C167.286 30.178 167.231 30.4738 167.123 30.7402C167.014 31.0065 166.863 31.2318 166.669 31.4179C166.475 31.604 166.244 31.7469 165.978 31.8488C165.71 31.9487 165.419 31.9996 165.103 31.9996C164.786 31.9996 164.495 31.9487 164.228 31.8488C163.96 31.7489 163.731 31.6059 163.537 31.4179C163.343 31.2318 163.192 31.0046 163.083 30.7402C162.974 30.4757 162.92 30.178 162.92 29.8509ZM163.845 29.8509C163.845 30.0428 163.875 30.2191 163.935 30.3797C163.993 30.5404 164.078 30.6775 164.189 30.795C164.299 30.9125 164.431 31.0046 164.587 31.0692C164.742 31.1339 164.913 31.1672 165.105 31.1672C165.297 31.1672 165.468 31.1339 165.623 31.0692C165.778 31.0046 165.91 30.9125 166.02 30.795C166.131 30.6775 166.216 30.5384 166.275 30.3797C166.333 30.2211 166.364 30.0448 166.364 29.8509C166.364 29.657 166.335 29.4866 166.275 29.3259C166.216 29.1634 166.131 29.0243 166.02 28.9068C165.91 28.7893 165.778 28.6972 165.623 28.6326C165.468 28.5679 165.297 28.5346 165.105 28.5346C164.913 28.5346 164.742 28.5679 164.587 28.6326C164.431 28.6972 164.299 28.7893 164.189 28.9068C164.078 29.0243 163.993 29.1634 163.935 29.3259C163.876 29.4885 163.845 29.6628 163.845 29.8509Z" fill="#642974"/>
<path d="M169.486 30.1527L167.965 27.8101H169.075L169.932 29.3398L170.84 27.8101H171.898L170.377 30.1527V31.896H169.484V30.1527H169.486Z" fill="#642974"/>
<path d="M173.936 27.8079H174.673L176.433 31.8938H175.426L175.077 31.028H173.505L173.167 31.8938H172.184L173.934 27.8079H173.936ZM174.279 28.9968L173.788 30.2661H174.778L174.281 28.9968H174.279Z" fill="#642974"/>
<path d="M181.218 31.6062C180.957 31.7452 180.681 31.8451 180.396 31.9059C180.111 31.9666 179.818 31.9979 179.521 31.9979C179.204 31.9979 178.913 31.947 178.646 31.8471C178.378 31.7472 178.149 31.6042 177.955 31.4162C177.761 31.2301 177.61 31.0029 177.501 30.7384C177.392 30.474 177.338 30.1763 177.338 29.8492C177.338 29.5221 177.392 29.2263 177.501 28.9599C177.61 28.6935 177.761 28.4683 177.955 28.2822C178.149 28.0961 178.38 27.9531 178.646 27.8513C178.911 27.7514 179.204 27.7004 179.521 27.7004C179.837 27.7004 180.144 27.7396 180.415 27.818C180.687 27.8963 180.927 28.0315 181.133 28.2254L180.504 28.9188C180.382 28.7915 180.244 28.6955 180.093 28.6308C179.94 28.5662 179.75 28.5329 179.521 28.5329C179.331 28.5329 179.158 28.5662 179.003 28.6308C178.847 28.6955 178.715 28.7875 178.605 28.9051C178.494 29.0226 178.409 29.1617 178.351 29.3242C178.293 29.4868 178.261 29.6611 178.261 29.8492C178.261 30.0372 178.291 30.2174 178.351 30.378C178.409 30.5387 178.494 30.6758 178.605 30.7933C178.715 30.9108 178.847 31.0029 179.003 31.0675C179.158 31.1322 179.329 31.1655 179.521 31.1655C179.713 31.1655 179.884 31.1439 180.023 31.0989C180.165 31.0538 180.277 31.0088 180.361 30.9637V30.2997H179.635V29.4692H181.218V31.6042V31.6062Z" fill="#642974"/>
<path d="M182.863 27.8084H185.613V28.6389H183.754V29.4008H185.51V30.2313H183.754V31.0618H185.715V31.8923H182.863V27.8064V27.8084Z" fill="#642974"/>
<path d="M190.559 30.319C190.559 30.5619 190.523 30.7851 190.451 30.9889C190.379 31.1926 190.27 31.3689 190.129 31.5197C189.987 31.6705 189.809 31.788 189.593 31.8723C189.38 31.9565 189.133 31.9996 188.856 31.9996C188.578 31.9996 188.326 31.9565 188.113 31.8723C187.899 31.788 187.721 31.6705 187.579 31.5197C187.438 31.3689 187.329 31.1926 187.257 30.9889C187.185 30.7851 187.148 30.5619 187.148 30.319V27.8079H188.041V30.2837C188.041 30.411 188.06 30.5286 188.101 30.6363C188.142 30.744 188.198 30.838 188.27 30.9164C188.342 30.9947 188.429 31.0574 188.53 31.1005C188.631 31.1456 188.739 31.1671 188.858 31.1671C188.976 31.1671 189.085 31.1456 189.184 31.1005C189.283 31.0555 189.368 30.9947 189.442 30.9164C189.514 30.838 189.57 30.744 189.611 30.6363C189.651 30.5286 189.671 30.411 189.671 30.2837V27.8079H190.563V30.319H190.559Z" fill="#642974"/>
<path d="M192.096 27.8079H193.661C193.867 27.8079 194.063 27.8274 194.247 27.8686C194.432 27.9097 194.595 27.9763 194.733 28.0703C194.872 28.1644 194.983 28.2917 195.064 28.4503C195.146 28.609 195.187 28.8088 195.187 29.0477C195.187 29.3357 195.113 29.5825 194.963 29.7842C194.814 29.986 194.599 30.1133 194.311 30.1681L195.34 31.8938H194.271L193.425 30.2602H192.984V31.8938H192.092V27.8079H192.096ZM192.988 29.4983H193.514C193.594 29.4983 193.679 29.4963 193.768 29.4904C193.857 29.4845 193.939 29.4669 194.011 29.4375C194.083 29.4082 194.143 29.3631 194.191 29.3024C194.238 29.2417 194.263 29.1535 194.263 29.0419C194.263 28.9381 194.242 28.8558 194.201 28.7931C194.16 28.7304 194.106 28.6854 194.042 28.6521C193.978 28.6188 193.902 28.5972 193.819 28.5855C193.735 28.5737 193.654 28.5679 193.572 28.5679H192.988V29.4963V29.4983Z" fill="#642974"/>
<path d="M198.518 28.8069C198.446 28.7148 198.347 28.6463 198.223 28.6012C198.099 28.5562 197.982 28.5346 197.872 28.5346C197.808 28.5346 197.74 28.5425 197.672 28.5581C197.604 28.5738 197.538 28.5973 197.478 28.6306C197.418 28.6639 197.367 28.707 197.329 28.7599C197.29 28.8147 197.272 28.8794 197.272 28.9557C197.272 29.0791 197.319 29.1732 197.41 29.2378C197.501 29.3024 197.618 29.3592 197.755 29.4043C197.893 29.4493 198.045 29.4964 198.204 29.5434C198.365 29.5904 198.514 29.655 198.652 29.7392C198.79 29.8235 198.906 29.9371 198.997 30.0801C199.088 30.223 199.135 30.413 199.135 30.652C199.135 30.891 199.092 31.0771 199.009 31.2455C198.925 31.414 198.811 31.555 198.669 31.6666C198.526 31.7783 198.361 31.8606 198.173 31.9154C197.984 31.9683 197.785 31.9957 197.575 31.9957C197.313 31.9957 197.069 31.9546 196.843 31.8743C196.618 31.794 196.409 31.6627 196.215 31.4825L196.849 30.7793C196.941 30.9027 197.057 30.9968 197.195 31.0653C197.332 31.1339 197.478 31.1672 197.625 31.1672C197.697 31.1672 197.771 31.1593 197.845 31.1417C197.918 31.1241 197.986 31.0986 198.045 31.0634C198.103 31.0281 198.151 30.985 198.188 30.9302C198.225 30.8753 198.242 30.8126 198.242 30.7402C198.242 30.6168 198.196 30.5208 198.103 30.4483C198.01 30.3778 197.891 30.3171 197.752 30.2661C197.61 30.2152 197.459 30.1662 197.294 30.1153C197.131 30.0664 196.977 29.9978 196.836 29.9136C196.694 29.8293 196.578 29.7177 196.485 29.5786C196.391 29.4396 196.345 29.2574 196.345 29.0302C196.345 28.803 196.388 28.6188 196.473 28.4523C196.558 28.2859 196.673 28.1487 196.816 28.0371C196.96 27.9254 197.125 27.8412 197.311 27.7864C197.497 27.7315 197.689 27.7021 197.889 27.7021C198.118 27.7021 198.339 27.7354 198.553 27.8001C198.766 27.8647 198.958 27.9744 199.131 28.1292L198.52 28.8049L198.518 28.8069Z" fill="#642974"/>
<path d="M151 3.96362H150.998C150.815 3.96362 150.666 4.12068 150.666 4.31442V27.3487C150.666 27.5425 150.815 27.6995 150.998 27.6995H151C151.184 27.6995 151.333 27.5425 151.333 27.3487V4.31442C151.333 4.12068 151.184 3.96362 151 3.96362Z" fill="#C83944"/>
<path d="M49.6682 4H49.6664C49.4828 4 49.334 4.15706 49.334 4.3508V27.3851C49.334 27.5789 49.4828 27.7359 49.6664 27.7359H49.6682C49.8518 27.7359 50.0007 27.5789 50.0007 27.3851V4.3508C50.0007 4.15706 49.8518 4 49.6682 4Z" fill="#C83944"/>
<path d="M33.5471 23.763L5.75935 20.9881C3.74336 15.1743 4.48966 8.32488 8.04672 2.31572L31.25 0C28.4877 7.42595 29.2243 16.1319 33.5471 23.763Z" fill="#B31D2F"/>
<path d="M16.092 5.8039C16.2277 5.86252 16.3828 5.89184 16.5379 5.86252C16.5282 5.90161 16.5088 5.94069 16.4894 5.97978C16.47 6.02863 16.4409 6.06772 16.4215 6.11657C16.344 6.30222 16.2859 6.39993 16.1017 6.39993C15.9176 6.39993 15.8594 6.29245 15.7819 6.1068C15.7625 6.06772 15.7431 6.01886 15.7237 5.97978C15.7043 5.94069 15.6849 5.90161 15.6752 5.86252C15.8109 5.89184 15.9563 5.8723 16.092 5.8039ZM20.0368 3.23413C19.9883 3.23413 19.8914 3.23413 19.8817 3.26344C19.8817 3.33184 19.9108 3.39047 19.9495 3.44909C20.1434 3.63474 20.1337 3.76176 20.1143 3.79108C20.0949 3.82039 20.1143 3.95718 19.9883 3.77153C19.8235 3.49795 19.4746 3.39047 19.1838 3.50772C19.1354 3.50772 19.1257 3.50772 19.1257 3.57612C19.1257 3.63474 19.1548 3.6836 19.1838 3.72268C18.9803 3.69337 18.7768 3.76176 18.6217 3.89856C18.5829 3.93764 18.6217 4.01581 18.6508 4.05489C18.6605 4.07444 18.6798 4.09398 18.7089 4.10375C18.4569 4.26008 18.3115 4.54344 18.3406 4.84634C18.4666 5.54008 19.1838 5.8723 20.3081 5.74527C20.9963 5.65733 21.6748 5.48146 22.3241 5.23718C22.7409 5.09062 23.2158 4.92451 23.7683 4.76817C24.5437 4.50436 25.3966 4.55321 26.1429 4.90497C26.4143 5.04176 26.6178 5.27627 26.7147 5.5694C26.7535 5.75504 26.705 5.94069 26.579 6.08726C26.2689 6.44878 25.8037 6.62466 25.3384 6.56604C24.7957 6.54649 24.2626 6.4781 23.7295 6.38039C23.3224 6.31199 22.8184 6.22405 22.0237 6.13611C21.4325 6.07749 20.8412 6.06772 20.25 6.1068H19.8526C19.5037 6.13611 19.1548 6.11657 18.8058 6.06772C18.3697 6.02863 17.9529 5.88207 17.5943 5.61825C17.5652 5.54008 17.7785 5.46191 17.9626 5.4326C18.0305 5.42283 18.0692 5.3642 18.0595 5.29581C18.0499 5.24695 18.0111 5.20787 17.9626 5.1981C17.8657 5.17856 17.5943 5.09062 17.5943 4.93428C17.5749 4.73886 17.5265 4.55321 17.4489 4.36756C17.5362 4.20146 17.5459 4.00604 17.4877 3.83016C17.4683 3.74222 17.4199 3.67383 17.352 3.6152C17.1485 3.57612 16.9352 3.62497 16.7802 3.76176C16.5669 3.67383 16.344 3.62497 16.1114 3.62497H16.0726C15.8206 3.63474 15.5783 3.6836 15.3554 3.78131C15.1906 3.64451 14.9774 3.58589 14.7739 3.62497C14.706 3.67382 14.6576 3.75199 14.6382 3.83993C14.58 4.01581 14.5994 4.21123 14.6866 4.36756L14.7254 4.42619C14.6866 4.60207 14.6672 4.78772 14.6672 4.96359C14.6672 5.07107 14.3668 5.17856 14.2408 5.20787C14.1923 5.20787 14.1342 5.22741 14.1245 5.28604C14.1245 5.35443 14.1729 5.42283 14.2408 5.44237C14.454 5.49123 14.6091 5.59871 14.6091 5.63779C14.58 5.8039 14.2699 5.94069 14.1729 5.97978C14.076 6.01886 14.076 6.02863 14.0857 6.08726C14.1051 6.15565 14.1536 6.20451 14.2117 6.21428C14.3377 6.21428 14.58 6.29245 14.6188 6.39016C14.6091 6.46833 14.58 6.53672 14.5219 6.59535C13.9597 6.54649 13.4169 6.41947 12.9033 6.20451C12.6028 6.05794 12.1085 5.78436 12.0116 5.72573C11.7111 5.49123 11.4494 5.22741 11.2071 4.92451C11.1683 4.8268 11.1102 4.72909 11.0423 4.65092C10.926 4.5239 10.7613 4.44573 10.5868 4.43596L10.4996 4.30894C10.3736 4.1526 10.1022 4.11352 9.63696 4.20146L9.57881 4.1526C9.31712 3.96695 8.91004 4.26985 8.87127 4.30894C8.8325 4.34802 8.8422 4.39688 8.87127 4.44573C8.89066 4.49459 8.94881 4.5239 8.99727 4.51413C9.06512 4.50436 9.13297 4.50436 9.20081 4.51413C9.23958 4.57276 9.27835 4.64115 9.32681 4.69001L9.15235 4.77795C9.11358 4.80726 9.11358 4.86588 9.15235 4.91474C9.17173 4.96359 9.2202 5.00268 9.26866 4.99291C9.36558 4.98314 9.4625 5.00268 9.55942 5.03199L9.70481 5.18833L9.75327 5.23718C9.67573 5.27627 9.5885 5.31535 9.56912 5.32512C9.54004 5.37398 9.54004 5.42283 9.56912 5.47169C9.5885 5.52054 9.63696 5.54985 9.68542 5.54985C9.78235 5.54008 9.87927 5.55962 9.97619 5.58894L10.0537 5.72573C10.1022 5.84298 10.17 5.95046 10.2573 6.0384C10.3639 6.13611 10.4899 6.19474 10.6256 6.23382C10.7613 6.26313 10.8873 6.32176 10.9939 6.4097L11.0617 6.46833L11.1877 6.57581C11.2653 6.63443 11.2846 6.68329 11.2846 6.70283C11.2846 6.72237 11.2459 6.73214 11.2071 6.76145C11.178 6.81031 11.178 6.87871 11.2071 6.92756C11.2265 6.97642 11.2846 7.00573 11.3331 6.99596C11.6336 6.93733 11.8371 6.99596 11.8565 7.05458C11.8759 7.11321 11.7983 7.17184 11.6723 7.25977C11.6239 7.29886 11.6142 7.37703 11.653 7.42588C11.682 7.47474 11.7499 7.50405 11.7983 7.48451C12.1376 7.35748 12.4186 7.3868 12.4574 7.48451C12.4962 7.58222 12.3993 7.64084 12.1957 7.76787C12.1473 7.80695 12.1376 7.88512 12.1763 7.94374C12.2054 8.00237 12.2733 8.02191 12.3314 7.9926C12.6997 7.82649 12.9905 7.8558 13.0486 7.95351C13.0971 8.05122 12.9517 8.20756 12.7094 8.3639C12.6803 8.3639 12.7094 8.41275 12.69 8.44206C12.6803 8.51046 12.7288 8.56909 12.7966 8.57886C12.816 8.57886 12.8451 8.57886 12.8645 8.56909H12.8839C13.1068 8.43229 13.3782 8.39321 13.6302 8.47138C13.6786 8.50069 13.7174 8.53 13.7562 8.55932C13.7562 8.55932 13.8046 8.53 13.6786 8.62771C12.0213 10.0445 11.6142 10.4842 11.0714 10.6601H11.0036C10.9163 10.6308 10.8291 10.621 10.7419 10.6112C10.6062 10.6015 10.4705 10.6698 10.393 10.7871H10.2185C10.015 10.7871 9.82112 10.8653 9.67573 11.1975C9.62727 11.3245 9.59819 11.4711 9.60789 11.6079C9.60789 11.6567 9.63696 11.6958 9.67573 11.7153C9.76296 11.7447 9.85988 11.7544 9.95681 11.7447C10.015 11.7447 10.0634 11.6958 10.0731 11.6372C10.0828 11.5883 10.0925 11.5492 10.1119 11.5004C10.1022 11.5492 10.1022 11.5981 10.1119 11.6372C10.1216 11.6958 10.17 11.7349 10.2185 11.7349C10.3251 11.7447 10.4317 11.7447 10.5383 11.7349C10.5674 11.7349 10.5965 11.7153 10.6159 11.686C10.6353 11.6567 10.6159 11.6372 10.6159 11.5883C10.6353 11.4515 10.6934 11.3245 10.771 11.217C10.7322 11.344 10.7128 11.4711 10.7031 11.6079C10.7031 11.6763 10.7516 11.7251 10.8097 11.7349C11.1877 11.774 11.5754 11.7642 11.9534 11.7056C12.2442 11.6176 12.3023 11.5297 12.3702 11.3831L12.409 11.305C12.4574 11.1975 12.535 11.1095 12.6222 11.0411C12.7191 10.9239 12.8645 10.8653 13.0196 10.8653C13.0486 10.8848 13.0777 10.9141 13.0874 10.9532C13.1068 11.0021 13.1456 11.0411 13.2037 11.0411C13.2522 11.0411 13.3006 11.0021 13.32 10.9532C13.3879 10.6992 13.5236 10.5428 13.6108 10.5526C13.698 10.5624 13.7368 10.6601 13.7562 10.7871C13.7659 10.8555 13.824 10.8946 13.8919 10.8848C13.9403 10.875 13.9791 10.836 13.9888 10.7871C14.0082 10.4451 14.1536 10.2497 14.2505 10.2497C14.3183 10.2497 14.4153 10.3669 14.454 10.5819C14.4831 10.6405 14.5509 10.6698 14.6091 10.6503C14.6479 10.6308 14.6769 10.6014 14.6769 10.5526C14.6576 10.3474 14.7157 10.1324 14.8514 9.97611C14.8805 9.94679 14.9192 9.91748 14.958 9.91748C15.0646 9.91748 15.2003 10.0738 15.2488 10.3572C15.2585 10.4256 15.3166 10.4647 15.3845 10.4647C15.4523 10.4549 15.5008 10.3963 15.4911 10.3279V10.2986C15.462 10.0836 15.5202 9.8784 15.6462 9.70252C15.6849 9.65366 15.7431 9.62435 15.8012 9.61458C15.9272 9.61458 16.0532 9.73183 16.1405 9.93702C16.1599 9.99565 16.2277 10.0347 16.2956 10.0152C16.344 9.99565 16.3731 9.95657 16.3731 9.89794C16.3731 9.76115 16.6154 9.58527 16.9643 9.54618H17.1C17.2939 9.55596 17.4974 9.52664 17.6815 9.44848C17.8463 9.33122 17.9917 9.2042 18.1177 9.04786C18.3891 8.71565 18.738 8.44206 19.1257 8.25641C19.4649 8.11962 19.8235 8.01214 20.1821 7.93397C20.0755 7.97306 19.9883 8.04145 19.9302 8.13916C19.6975 8.54954 19.7654 9.05764 20.0852 9.39962L20.1337 9.45825C20.376 9.78069 20.3857 9.82954 20.3275 9.88817C20.2015 10.0054 20.0658 10.1129 19.9592 10.2008C19.8526 10.2888 19.8332 10.2986 19.7945 10.3279L19.6878 10.4353C19.6103 10.5135 19.5328 10.6405 19.4843 10.6405H19.4165C19.3389 10.621 19.2517 10.6015 19.1645 10.5917C19.0385 10.5819 18.9125 10.6405 18.8349 10.748H18.7283C18.4957 10.748 18.2825 10.8946 18.2049 11.1193C18.1565 11.2463 18.1274 11.3734 18.1371 11.5102C18.1371 11.559 18.1662 11.5981 18.2049 11.6176C18.2922 11.6469 18.3891 11.6567 18.486 11.6469C18.5442 11.6469 18.5926 11.6079 18.6023 11.559C18.612 11.6079 18.6605 11.6469 18.7089 11.6469C18.8058 11.6567 18.9028 11.6567 19.0094 11.6469C19.0482 11.6469 19.0772 11.6274 19.0966 11.5981C19.1063 11.5688 19.1063 11.5395 19.0966 11.5004C19.116 11.3929 19.1548 11.2952 19.2129 11.2073C19.1838 11.3147 19.1742 11.4124 19.1645 11.5199C19.1548 11.5883 19.2032 11.6469 19.2711 11.6469C19.2711 11.6469 19.5425 11.6665 19.8235 11.6665C19.998 11.6763 20.1725 11.6567 20.3469 11.6176C20.6571 11.5297 20.7152 11.432 20.7831 11.2463C20.7831 11.2366 20.7831 11.2268 20.7831 11.217C20.7928 11.1486 20.8218 11.0802 20.8703 11.0216C21.1417 10.6992 21.4325 10.5721 21.5585 10.6503L21.6166 10.6894C21.6748 10.7285 21.7426 10.7089 21.7814 10.6503C21.8008 10.6112 21.8104 10.5624 21.7814 10.5233C21.7135 10.3963 21.6845 10.2888 21.7232 10.2497C21.762 10.2106 21.9364 10.1911 22.1594 10.2888C22.1884 10.2985 22.2175 10.2985 22.2466 10.2888C22.3048 10.2595 22.3338 10.1911 22.3048 10.1324C22.2951 10.1031 22.2757 10.0836 22.2466 10.0738C22.0043 9.97611 21.8395 9.81977 21.8783 9.70252C21.9171 9.58527 22.1012 9.49733 22.3532 9.48756C22.4211 9.48756 22.4695 9.42893 22.4695 9.37031C22.4695 9.31168 22.4308 9.2726 22.3823 9.25306L22.2563 9.21397C22.0237 9.18466 21.8008 9.08695 21.6263 8.92084C21.6166 8.86222 21.7814 8.73519 22.1303 8.64725C22.2854 8.70588 22.4308 8.77428 22.5761 8.87199C22.8766 9.05763 23.2061 9.2042 23.5454 9.31168C24.1269 9.41916 24.7181 9.48756 25.3094 9.51687C25.5807 9.70252 25.697 10.0445 25.6001 10.3474C25.5517 10.4549 25.4451 10.6503 25.3578 10.6503H25.2803C25.193 10.6308 25.0961 10.6112 25.0089 10.6014C24.8635 10.5917 24.7278 10.6503 24.6406 10.7676H24.5146C24.2723 10.7676 24.0494 10.9141 23.9621 11.1389C23.904 11.2659 23.8846 11.4027 23.8943 11.5395C23.8943 11.5883 23.9234 11.6274 23.9621 11.6469C24.0591 11.6763 24.156 11.686 24.2432 11.6763C24.2529 11.6176 24.3111 11.5785 24.3692 11.5883C24.4177 11.5981 24.4467 11.6274 24.4564 11.6763C24.5631 11.686 24.6794 11.686 24.786 11.6763C24.8151 11.6763 24.8538 11.6567 24.8732 11.6274C24.8829 11.5981 24.8829 11.559 24.8732 11.5297C24.9023 11.3929 24.9604 11.2659 25.0477 11.1584C25.0089 11.2854 24.9798 11.4222 24.9701 11.5492C24.9604 11.6176 25.0089 11.6763 25.0767 11.6763C25.0961 11.6763 25.416 11.6958 25.7358 11.6958C25.9297 11.7056 26.1332 11.686 26.327 11.6469C26.5887 11.5785 26.7632 11.305 26.8601 10.836C26.8698 10.7676 26.8795 10.6992 26.8795 10.6308C26.8795 10.4451 26.8504 10.2204 26.8504 9.90771C26.8504 9.5071 27.0055 9.24328 27.1509 9.24328H27.1897C27.2575 9.24328 27.306 9.18466 27.2963 9.11626C27.2963 9.06741 27.2575 9.01855 27.209 9.00878C26.9183 8.94038 26.802 8.8329 26.8117 8.78405C26.8117 8.73519 26.8795 8.68634 27.0346 8.63748H27.083C27.1412 8.60817 27.1606 8.53977 27.1315 8.48115C27.1121 8.43229 27.054 8.41275 27.0055 8.42252C26.7535 8.47138 26.5403 8.42252 26.4918 8.32481C26.4434 8.2271 26.4918 8.13916 26.5984 8.02191L26.6178 7.9926C26.6372 7.94374 26.6275 7.89489 26.5984 7.8558C26.5597 7.81672 26.4918 7.80695 26.4434 7.82649C26.1914 7.98283 25.9006 8.08054 25.6098 8.12939H25.4935C25.29 8.11962 25.0961 8.08054 24.9023 8.02191C24.5824 7.91443 24.3111 7.70924 24.1172 7.43565C24.0494 7.35748 23.9815 7.27932 23.904 7.20115L23.8071 7.11321L23.9912 7.13275C24.4177 7.12298 24.8441 7.14252 25.2706 7.18161C26.1914 7.24023 27.0249 6.89825 27.3835 6.31199C27.6452 5.90161 27.6452 5.39352 27.3835 4.98314C27.0152 4.41642 26.4337 4.02558 25.7649 3.9181C25.038 3.79108 24.2917 3.82039 23.5744 4.02558C23.2546 4.10375 22.9057 4.21123 22.5083 4.34802C21.7717 4.62161 21.006 4.84634 20.2403 5.01245C19.9398 5.07107 19.6297 5.04176 19.3486 4.92451C19.3098 4.88543 19.2808 4.83657 19.2808 4.78772C19.2808 4.73886 19.4262 4.65092 19.8429 4.64115C21.6748 4.64115 22.1788 3.6836 22.2369 3.57612C22.266 3.51749 22.2369 3.43932 22.1788 3.41001C22.14 3.39047 22.0915 3.40024 22.0528 3.42955C21.6941 3.63474 21.2774 3.73245 20.8703 3.72268C20.8025 3.6836 20.7346 3.63474 20.6861 3.56634C20.5214 3.3807 20.2888 3.2439 20.0368 3.23413Z" fill="#621B20"/>
<path d="M17.6136 5.99929C17.5748 6.0286 17.5457 6.06768 17.5361 6.11654C17.4973 6.29242 17.7202 6.59532 18.0304 6.82982C17.6621 6.77119 17.4585 6.81028 17.3422 6.95684C17.2356 7.07409 17.3616 7.34768 17.507 7.57242C17.0611 7.53333 16.5959 7.67012 16.5571 7.94371C16.5571 7.95348 16.5571 7.97303 16.5571 7.9828C16.5087 7.92417 16.4893 7.86554 16.4796 7.78738C16.499 7.56264 16.8188 7.39654 17.2259 7.41608C17.1096 7.25974 17.0902 7.04478 17.1581 6.8689C17.255 6.69303 17.4682 6.61486 17.6524 6.68326C17.4488 6.58555 17.3325 6.37058 17.3519 6.14585C17.381 6.0286 17.5942 5.99929 17.6136 5.99929ZM15.4231 5.57913C15.6073 5.67684 15.8302 5.67684 16.0144 5.57913C16.1985 5.67684 16.4214 5.67684 16.6056 5.57913C16.6541 5.54982 16.6056 5.7941 16.5087 5.95043C16.373 6.15562 16.3342 6.43898 15.995 6.42921C15.6654 6.42921 15.6267 6.14585 15.5104 5.95043C15.4038 5.75501 15.3747 5.55959 15.4231 5.57913ZM15.6945 5.19807C15.6945 5.19807 15.9078 5.22738 16.0047 5.22738C16.0919 5.22738 16.3245 5.19807 16.3245 5.19807C16.3439 5.19807 16.3536 5.21761 16.3536 5.23715V5.24692L16.0338 5.4228H16.0047L15.6751 5.24692C15.6654 5.23715 15.6654 5.21761 15.6945 5.19807C15.6945 5.20784 15.6848 5.20784 15.6945 5.19807ZM16.6638 4.61181C16.7801 4.61181 16.8867 4.63135 16.9933 4.66066C16.9739 4.71929 16.9351 4.76814 16.877 4.80723C16.7994 4.89517 16.6831 4.94402 16.5571 4.94402C16.4021 4.97333 16.247 4.87562 16.2179 4.71929V4.70952C16.3051 4.66066 16.4118 4.63135 16.5184 4.62158C16.5765 4.61181 16.625 4.61181 16.6638 4.61181ZM15.3941 4.61181C15.4134 4.61181 15.4425 4.61181 15.4619 4.61181C15.6751 4.63135 15.7624 4.6802 15.7624 4.69975C15.743 4.85608 15.5976 4.96356 15.4328 4.94402H15.4231C15.2971 4.94402 15.1808 4.89517 15.1033 4.80723H15.113C15.0645 4.76814 15.0258 4.71929 15.0064 4.66066C15.1227 4.62158 15.2584 4.61181 15.3941 4.61181ZM26.9085 8.4518C26.9182 8.4518 26.9376 8.4518 26.9472 8.4518H26.9085ZM19.8913 3.29272C20.1627 3.55654 20.153 3.79104 20.027 3.83013C19.9494 3.85944 19.8719 3.8399 19.8234 3.78127C19.6684 3.55654 19.3873 3.4686 19.1256 3.54677C19.1256 3.54677 19.4454 3.65425 19.3776 3.80082C19.3776 3.82036 19.3194 3.83013 19.2807 3.83013C19.2516 3.8399 19.2225 3.8399 19.1837 3.83013C18.9996 3.72265 18.7573 3.76173 18.6216 3.92784C18.6216 3.92784 18.8542 3.87898 18.9027 3.97669C18.5537 4.15257 18.2824 4.41639 18.3405 4.76814C18.4665 5.4912 19.2904 5.66707 20.182 5.56936C21.2288 5.46188 22.1302 4.99288 23.6228 4.56295C25.1154 4.13303 26.482 4.60204 26.7146 5.45211C26.8309 5.90158 26.4432 6.566 25.222 6.51715C24.0105 6.46829 23.7003 6.29242 21.8976 6.07745C21.1803 6.01883 20.4631 6.01883 19.7459 6.07745C19.3873 6.10677 19.0287 6.08723 18.6797 6.03837C18.3114 5.97974 17.3713 5.80387 17.3616 5.54982C17.3519 5.29578 17.8365 5.23715 17.8365 5.23715C17.8365 5.23715 17.381 5.13944 17.3519 4.86585C17.3325 4.66066 17.2937 4.46524 17.2162 4.26982L17.255 4.22097C17.3519 4.03532 17.3422 3.81059 17.2162 3.63471C17.0321 3.61517 16.8479 3.68356 16.7219 3.81059C16.499 3.69334 16.2567 3.61517 16.0047 3.59562C15.743 3.6054 15.491 3.66402 15.2584 3.78127C15.1227 3.63471 14.9191 3.57608 14.7253 3.59562C14.5993 3.76173 14.5896 3.99624 14.6865 4.18188C14.7059 4.22097 14.7253 4.25028 14.7544 4.27959C14.6865 4.46524 14.6478 4.65089 14.6381 4.84631C14.6187 5.09059 14.1728 5.21761 14.1631 5.21761C14.1631 5.21761 14.6768 5.33486 14.6284 5.54982C14.5799 5.83318 14.1438 5.96997 14.1438 5.96997C14.1438 5.96997 14.609 6.00906 14.6575 6.24356C14.6768 6.34127 14.5896 6.42921 14.4733 6.566C13.8821 6.52692 13.3005 6.39013 12.7481 6.16539C12.4282 6.01883 12.1278 5.85272 11.8273 5.66707C11.5365 5.43257 11.2652 5.15898 11.0229 4.86585C10.9841 4.77791 10.9356 4.68998 10.8775 4.61181C10.7612 4.48478 10.5964 4.41639 10.4219 4.43593C10.3735 4.36753 10.325 4.29914 10.3056 4.26005C10.1893 4.10372 9.79193 4.15257 9.50116 4.2112C9.47209 4.18188 9.44301 4.15257 9.41393 4.13303C9.22009 3.99624 8.88086 4.27959 8.88086 4.27959C8.88086 4.27959 9.13286 4.24051 9.19101 4.32845L9.41393 4.25028C9.3364 4.29914 9.28794 4.38707 9.28794 4.47501L9.3364 4.54341C9.60778 4.45547 9.88886 4.43593 10.1699 4.48478C10.0342 4.53364 9.89855 4.59227 9.77255 4.67043L9.74347 4.65089C9.52055 4.50433 9.14255 4.77791 9.14255 4.77791C9.26855 4.76814 9.39455 4.78769 9.51086 4.83654L9.53993 4.86585L9.71439 4.71929C9.66593 4.79746 9.64655 4.89517 9.64655 4.9831L9.67563 5.02219L9.73378 5.08081C9.73378 5.08081 10.5964 4.83654 10.829 5.08081C10.5964 5.0515 10.3638 5.11013 10.1699 5.23715C9.94701 5.09059 9.56901 5.36417 9.56901 5.36417C9.69501 5.3544 9.82101 5.37394 9.93732 5.4228L9.97609 5.45211L10.1215 5.32509C10.073 5.41303 10.0536 5.51074 10.0633 5.60845C10.1021 5.70616 10.1602 5.80387 10.2378 5.88204C10.4413 6.07745 10.7224 6.01883 10.9841 6.25333L11.1779 6.40967C11.2555 6.45852 11.3039 6.53669 11.3233 6.62463C11.3233 6.7028 11.2845 6.77119 11.2264 6.81028C11.5462 6.75165 11.8273 6.81028 11.8758 6.94707C11.9242 7.08387 11.8273 7.19135 11.6625 7.31837C12.0308 7.18158 12.4088 7.20112 12.467 7.36722C12.5348 7.53333 12.4088 7.67013 12.1859 7.81669C12.5542 7.64081 12.9516 7.64081 13.0582 7.81669C13.1551 7.99257 12.9904 8.20753 12.7093 8.38341H12.7287C12.9807 8.22707 13.2908 8.18799 13.5719 8.2857C13.8821 8.10005 14.1728 7.86554 14.4248 7.60173C14.2407 7.99257 13.979 8.34432 13.6591 8.62768C13.5525 8.73516 12.845 9.30188 12.7287 9.41913C12.1278 9.87837 11.5075 10.3962 11.459 10.4158C11.3136 10.4744 11.1198 10.621 10.9841 10.621C10.8775 10.5916 10.7612 10.5623 10.6545 10.5526C10.5285 10.5526 10.4219 10.621 10.3638 10.7382C10.2862 10.7382 10.1699 10.7187 10.1312 10.7187C9.9567 10.7187 9.80162 10.9043 9.69501 11.1388C9.65624 11.2561 9.63686 11.3831 9.63686 11.5101C9.7047 11.5297 9.78224 11.5394 9.85978 11.5297C9.92762 11.2561 10.0924 11.0118 10.3153 10.8359C10.199 11.0509 10.1409 11.2952 10.1409 11.5394C10.2378 11.5492 10.3347 11.5492 10.4316 11.5394C10.4316 11.3342 10.703 10.7675 10.9938 10.7968H11.0616C10.8096 10.8848 10.7612 11.5394 10.7612 11.5394C11.1295 11.5785 11.5075 11.5687 11.8758 11.5199C12.1859 11.4222 12.1665 11.344 12.2441 11.1779C12.2925 11.0802 12.3701 10.9923 12.4573 10.9239C12.5833 10.7773 12.7772 10.7089 12.971 10.7284C13.0388 10.7578 13.097 10.8164 13.1067 10.8945C13.1842 10.6014 13.3587 10.3865 13.5235 10.406C13.6979 10.4255 13.7367 10.5526 13.7755 10.7382C13.7948 10.3669 13.9693 10.0738 14.1631 10.0836C14.357 10.0933 14.4345 10.2692 14.483 10.5135C14.483 10.1226 14.6381 9.8002 14.8513 9.79043C15.0645 9.78066 15.2196 10.0152 15.2584 10.3278V10.2985C15.2293 9.8686 15.4134 9.50707 15.6751 9.48753C15.8981 9.50707 16.0725 9.67318 16.121 9.88814C16.121 9.67318 16.4311 9.46799 16.8188 9.4289H16.9642C17.1387 9.43867 17.3228 9.40936 17.4876 9.35073C17.9237 9.06738 18.0207 8.60814 18.9317 8.1489C19.3194 7.99257 19.7265 7.86554 20.1336 7.77761C20.5019 7.66035 20.8993 7.6115 21.287 7.62127H21.316C21.413 7.65058 21.5099 7.69944 21.5874 7.76783C21.82 7.97303 22.0139 8.2173 22.1787 8.48112C22.2562 8.62768 22.2077 8.54951 22.4888 8.74493C22.7796 8.92081 23.0994 9.06738 23.429 9.16509C24.0105 9.28234 24.592 9.3605 25.1736 9.40936H25.2026C25.5322 9.62432 25.6679 10.0347 25.5419 10.406C25.474 10.5428 25.3674 10.7089 25.2026 10.6991C25.0863 10.6698 24.97 10.6503 24.8537 10.6405C24.7277 10.6405 24.6211 10.7089 24.5533 10.8066L24.3691 10.7871C24.1946 10.7871 24.0299 10.9629 23.9136 11.1877C23.8651 11.2952 23.8457 11.4124 23.8554 11.5297C23.933 11.5492 24.0105 11.559 24.0977 11.5492C24.1559 11.2658 24.311 11.0118 24.5436 10.8457C24.4273 11.0411 24.3691 11.2658 24.3691 11.5004C24.4757 11.5101 24.5726 11.5101 24.6793 11.5004C24.6793 11.3245 24.9603 10.7578 25.2705 10.7871H25.3383C25.0766 10.8652 25.0185 11.5004 25.0185 11.5004C25.4256 11.5394 25.8326 11.5297 26.23 11.4808C26.5402 11.3929 26.6468 10.9239 26.6759 10.7675C26.6856 10.7089 26.6952 10.6405 26.6952 10.5819C26.6759 10.3767 26.6662 10.1324 26.6662 9.83928C26.6662 9.40936 26.8406 9.06738 27.0829 9.04783H27.1217C26.8116 8.98921 26.608 8.85241 26.6177 8.70585H26.608C26.608 8.60814 26.7243 8.5202 26.8988 8.46157C26.6177 8.50066 26.3754 8.4518 26.2979 8.29547C26.23 8.12936 26.2785 7.95348 26.4142 7.83623C26.1331 7.9828 25.8229 8.07074 25.5128 8.10982H25.3965C25.1833 8.10005 24.97 8.08051 24.7665 8.03165C24.2237 7.88509 23.9911 7.44539 23.7197 7.18158C23.6034 7.04478 23.458 6.94707 23.2836 6.88845C23.2836 6.88845 23.2642 6.84936 23.5937 6.88845C23.9233 6.92753 24.1849 6.96661 25.1445 7.02524C26.6952 7.12295 27.7517 6.07745 27.1314 5.00265C26.5111 3.92784 24.8634 3.68356 23.4677 4.04509C22.6342 4.26005 21.568 4.73883 20.1045 5.04173C19.7847 5.11013 19.4454 5.08081 19.1353 4.94402C18.9996 4.87562 18.7864 4.48478 19.6877 4.47501C21.442 4.47501 21.917 3.58585 21.9751 3.47837C21.5777 3.67379 21.1416 3.78127 20.7054 3.7715C20.6764 3.7715 20.657 3.76173 20.6279 3.75196C20.3953 3.61517 20.3662 3.34158 19.8913 3.29272Z" fill="#F5DA34"/>
<path d="M22.2464 9.31158L22.1204 9.2725C21.7521 9.19433 21.4032 9.01845 21.4032 8.86212C21.4032 8.70578 21.6649 8.55922 22.0041 8.49082C21.9653 8.42242 21.9653 8.42242 21.9169 8.35402C21.7715 8.08044 21.5389 7.86548 21.2578 7.73845C21.1415 7.72868 21.0349 7.73845 20.9185 7.75799C20.4921 7.8557 20.0366 7.93387 19.9299 8.12929C19.7264 8.50059 19.7846 8.95982 20.0753 9.26273C20.3467 9.60471 20.4436 9.7415 20.3079 9.91738C20.1432 10.0835 19.959 10.2301 19.7652 10.3668C19.6198 10.5036 19.5326 10.6404 19.3969 10.6404C19.2999 10.6111 19.1933 10.5916 19.0867 10.5818C18.9704 10.5818 18.8735 10.6502 18.825 10.7479L18.6506 10.7186C18.4761 10.7186 18.321 10.8945 18.2144 11.0899C18.1756 11.1974 18.1562 11.3049 18.1562 11.4221C18.2338 11.4417 18.3113 11.4514 18.3889 11.4417C18.4373 11.1974 18.573 10.9726 18.7572 10.8163C18.6602 11.0215 18.6021 11.2365 18.6021 11.471C18.6893 11.4807 18.7862 11.4807 18.8735 11.471C18.8735 11.3146 19.1255 10.7577 19.3969 10.7772H19.455C19.2127 10.8554 19.1642 11.471 19.1642 11.471C19.5132 11.5101 19.8621 11.5101 20.2013 11.471C20.4727 11.3928 20.5018 11.3244 20.5502 11.1778C20.5599 11.0801 20.5987 10.9922 20.6569 10.9238C20.9379 10.5818 21.2965 10.3962 21.5001 10.5232L21.5582 10.5623C21.4613 10.3864 21.4419 10.2398 21.5195 10.1519C21.6939 10.0542 21.9072 10.0542 22.0816 10.1519C21.7715 10.0249 21.5873 9.82944 21.6261 9.64379C21.7036 9.4386 21.9556 9.33112 22.2464 9.31158Z" fill="#F5DA34"/>
<path d="M16.092 14.6662C16.2277 14.7248 16.3828 14.7541 16.5379 14.7248C16.5282 14.7639 16.5088 14.803 16.4894 14.8421C16.47 14.8909 16.4409 14.93 16.4215 14.9789C16.344 15.1645 16.2859 15.2622 16.1017 15.2622C15.9176 15.2622 15.8594 15.1548 15.7819 14.9691C15.7625 14.93 15.7431 14.8812 15.7237 14.8421C15.7043 14.803 15.6849 14.7639 15.6752 14.7248C15.8109 14.7541 15.9563 14.7248 16.092 14.6662ZM20.0368 12.0867C19.9883 12.0867 19.8914 12.0867 19.8817 12.116C19.8817 12.1844 19.9108 12.243 19.9495 12.3016C20.1434 12.4873 20.1337 12.6143 20.1143 12.6436C20.0949 12.6729 20.1143 12.8097 19.9883 12.6241C19.8235 12.3505 19.4746 12.243 19.1838 12.3603C19.1354 12.3603 19.1257 12.3603 19.1257 12.4287C19.1257 12.4873 19.1548 12.5361 19.1838 12.5752C18.9803 12.5459 18.7768 12.6143 18.6217 12.7511C18.5829 12.7902 18.6217 12.8683 18.6508 12.9074C18.6605 12.927 18.6798 12.9465 18.7089 12.9563C18.4569 13.1126 18.3115 13.396 18.3406 13.6989C18.4666 14.3926 19.1838 14.7248 20.3081 14.5978C20.9963 14.5099 21.6748 14.334 22.3241 14.0897C22.7409 13.9432 23.2158 13.777 23.7683 13.6207C24.5437 13.3569 25.3966 13.4058 26.1429 13.7575C26.4143 13.8943 26.6178 14.1288 26.7147 14.4219C26.7535 14.6076 26.705 14.7932 26.579 14.9398C26.2689 15.3013 25.8037 15.4772 25.3384 15.4186C24.7957 15.399 24.2626 15.3306 23.7295 15.2329C23.3224 15.1645 22.8184 15.0766 22.0237 14.9887C21.4325 14.93 20.8412 14.9203 20.25 14.9593H19.8526C19.5037 14.9887 19.1548 14.9691 18.8058 14.9203C18.3697 14.8812 17.9529 14.7346 17.5943 14.4708C17.5652 14.3926 17.7785 14.3145 17.9626 14.2851C18.0305 14.2754 18.0692 14.2167 18.0595 14.1483C18.0499 14.0995 18.0111 14.0604 17.9626 14.0506C17.8657 14.0311 17.5943 13.9432 17.5943 13.7868C17.5749 13.5914 17.5265 13.4058 17.4489 13.2201C17.5362 13.054 17.5459 12.8586 17.4877 12.6827C17.4683 12.5948 17.4199 12.5264 17.352 12.4677C17.1485 12.4287 16.9352 12.4775 16.7802 12.6143C16.5669 12.5264 16.344 12.4775 16.1114 12.4775H16.0726C15.8206 12.4873 15.5783 12.5361 15.3554 12.6338C15.1906 12.4971 14.9774 12.4384 14.7739 12.4775C14.706 12.5264 14.6576 12.6045 14.6382 12.6925C14.58 12.8683 14.5994 13.0638 14.6866 13.2201L14.7254 13.2787C14.6866 13.4546 14.6672 13.6403 14.6672 13.8161C14.6672 13.9236 14.3668 14.0311 14.2408 14.0604C14.1923 14.0604 14.1342 14.0799 14.1245 14.1386C14.1245 14.207 14.1729 14.2754 14.2408 14.2949C14.454 14.3438 14.6091 14.4512 14.6091 14.4903C14.58 14.6564 14.2699 14.7932 14.1729 14.8323C14.076 14.8714 14.076 14.8812 14.0857 14.9398C14.1051 15.0082 14.1536 15.057 14.2117 15.0668C14.3377 15.0668 14.58 15.145 14.6188 15.2427C14.6091 15.3209 14.58 15.3893 14.5219 15.4479C13.9597 15.399 13.4169 15.272 12.9033 15.057C12.6028 14.9105 12.1085 14.6369 12.0116 14.5783C11.7111 14.3438 11.4494 14.0799 11.2071 13.777C11.1683 13.6793 11.1102 13.5816 11.0423 13.5035C10.926 13.3764 10.7613 13.2983 10.5868 13.2885L10.4996 13.1615C10.3736 13.0051 10.1022 12.9661 9.63696 13.054L9.57881 13.0051C9.31712 12.8195 8.91004 13.1224 8.87127 13.1615C8.8325 13.2006 8.8422 13.2494 8.87127 13.2983C8.89066 13.3471 8.94881 13.3764 8.99727 13.3667C9.06512 13.3569 9.13297 13.3569 9.20081 13.3667C9.23958 13.4253 9.27835 13.4937 9.32681 13.5425L9.15235 13.6305C9.11358 13.6598 9.11358 13.7184 9.15235 13.7673C9.17173 13.8161 9.2202 13.8454 9.26866 13.8454C9.36558 13.8357 9.4625 13.8552 9.55942 13.8845L9.70481 14.0409L9.75327 14.0897C9.67573 14.1288 9.5885 14.1679 9.56912 14.1777C9.54004 14.2265 9.54004 14.2754 9.56912 14.3242C9.5885 14.3731 9.63696 14.4024 9.68542 14.4024C9.78235 14.3926 9.87927 14.4122 9.97619 14.4415L10.0537 14.5783C10.1022 14.6955 10.17 14.803 10.2573 14.8909C10.3639 14.9887 10.4899 15.0473 10.6256 15.0864C10.7613 15.1157 10.8873 15.1743 10.9939 15.2622L11.0617 15.3209L11.1877 15.4283C11.2653 15.487 11.2846 15.5358 11.2846 15.5554C11.2846 15.5749 11.2459 15.5847 11.2071 15.614C11.178 15.6628 11.178 15.7312 11.2071 15.7801C11.2265 15.829 11.2846 15.8583 11.3331 15.8485C11.6336 15.7899 11.8371 15.8485 11.8565 15.9071C11.8759 15.9657 11.7983 16.0244 11.6723 16.1123C11.6239 16.1514 11.6142 16.2296 11.653 16.2784C11.682 16.3273 11.7499 16.3566 11.7983 16.337C12.1376 16.21 12.4186 16.2393 12.4574 16.337C12.4962 16.4348 12.3993 16.4934 12.1957 16.6204C12.1473 16.6595 12.1376 16.7377 12.1763 16.7963C12.2054 16.8549 12.2733 16.8745 12.3314 16.8451C12.6997 16.679 12.9905 16.7083 13.0486 16.8061C13.0971 16.9038 12.9517 17.0601 12.7094 17.2164C12.6803 17.2164 12.7094 17.2653 12.69 17.2946C12.6803 17.363 12.7288 17.4216 12.7966 17.4314C12.816 17.4314 12.8451 17.4314 12.8645 17.4216H12.8839C13.1068 17.2848 13.3782 17.2457 13.6302 17.3239C13.6786 17.3532 13.7174 17.3825 13.7562 17.4119C13.7562 17.4119 13.8046 17.3825 13.6786 17.4803C12.0213 18.897 11.6142 19.3367 11.0714 19.5126H11.0036C10.9163 19.4833 10.8291 19.4735 10.7419 19.4638C10.6062 19.454 10.4705 19.5224 10.393 19.6396H10.2185C10.015 19.6396 9.82112 19.7178 9.67573 20.05C9.62727 20.177 9.59819 20.3236 9.60789 20.4604C9.60789 20.5093 9.63696 20.5483 9.67573 20.5679C9.76296 20.5972 9.85988 20.607 9.95681 20.5972C10.015 20.5972 10.0634 20.5483 10.0731 20.4897C10.0828 20.4409 10.0925 20.4018 10.1119 20.3529C10.1022 20.4018 10.1022 20.4506 10.1119 20.4897C10.1216 20.5483 10.17 20.5874 10.2185 20.5874C10.3251 20.5972 10.4317 20.5972 10.5383 20.5874C10.5674 20.5874 10.5965 20.5679 10.6159 20.5386C10.6353 20.5093 10.6159 20.4897 10.6159 20.4409C10.6353 20.3041 10.6934 20.177 10.771 20.0696C10.7322 20.1966 10.7128 20.3236 10.7031 20.4604C10.7031 20.5288 10.7516 20.5777 10.8097 20.5874C11.1877 20.6265 11.5754 20.6167 11.9534 20.5581C12.2442 20.4702 12.3023 20.3822 12.3702 20.2357L12.409 20.1575C12.4574 20.05 12.535 19.9621 12.6222 19.8937C12.7191 19.7764 12.8645 19.7178 13.0196 19.7178C13.0486 19.7373 13.0777 19.7667 13.0874 19.8057C13.1068 19.8546 13.1456 19.8937 13.2037 19.8937C13.2522 19.8937 13.3006 19.8546 13.32 19.8057C13.3879 19.5517 13.5236 19.3954 13.6108 19.4051C13.698 19.4149 13.7368 19.5126 13.7562 19.6396C13.7659 19.708 13.824 19.7471 13.8919 19.7373C13.9403 19.7276 13.9791 19.6885 13.9888 19.6396C14.0082 19.2977 14.1536 19.1022 14.2505 19.1022C14.3183 19.1022 14.4153 19.2195 14.454 19.4344C14.4831 19.4931 14.5509 19.5224 14.6091 19.5028C14.6479 19.4833 14.6769 19.454 14.6769 19.4051C14.6576 19.1999 14.7157 18.985 14.8514 18.8286C14.8805 18.7993 14.9192 18.77 14.958 18.77C15.0646 18.77 15.2003 18.9264 15.2488 19.2097C15.2585 19.2781 15.3166 19.3172 15.3845 19.3172C15.4523 19.3074 15.5008 19.2488 15.4911 19.1804V19.1511C15.462 18.9361 15.5202 18.7309 15.6462 18.5551C15.6849 18.5062 15.7431 18.4769 15.8012 18.4671C15.9272 18.4671 16.0532 18.5844 16.1405 18.7896C16.1599 18.8482 16.2277 18.8873 16.2956 18.8677C16.344 18.8482 16.3731 18.8091 16.3731 18.7505C16.3731 18.6137 16.6154 18.4378 16.9643 18.3987H17.1C17.2939 18.4085 17.4974 18.3792 17.6815 18.301C17.8463 18.1838 17.9917 18.0567 18.1177 17.9004C18.3891 17.5682 18.738 17.2946 19.1257 17.109C19.4649 16.9722 19.8235 16.8647 20.1821 16.7865C20.0755 16.8256 19.9883 16.894 19.9302 16.9917C19.6975 17.4021 19.7654 17.9102 20.0852 18.2522L20.1337 18.3108C20.376 18.6332 20.3857 18.6821 20.3275 18.7407C20.2015 18.858 20.0658 18.9654 19.9592 19.0534C19.8526 19.1413 19.8332 19.1511 19.7945 19.1804L19.6878 19.2879C19.6103 19.3661 19.5328 19.4931 19.4843 19.4931H19.4165C19.3389 19.4735 19.2517 19.454 19.1645 19.4442C19.0385 19.4344 18.9125 19.4931 18.8349 19.6006H18.7283C18.4957 19.6006 18.2825 19.7471 18.2049 19.9719C18.1565 20.0989 18.1274 20.2259 18.1371 20.3627C18.1371 20.4115 18.1662 20.4506 18.2049 20.4702C18.2922 20.4995 18.3891 20.5093 18.486 20.4995C18.5442 20.4995 18.5926 20.4604 18.6023 20.4115C18.612 20.4604 18.6605 20.4995 18.7089 20.4995C18.8058 20.5093 18.9028 20.5093 19.0094 20.4995C19.0482 20.4995 19.0772 20.4799 19.0966 20.4506C19.1063 20.4213 19.1063 20.392 19.0966 20.3529C19.116 20.2454 19.1548 20.1477 19.2129 20.0598C19.1838 20.1673 19.1742 20.265 19.1645 20.3725C19.1548 20.4409 19.2032 20.4995 19.2711 20.4995C19.2711 20.4995 19.5425 20.519 19.8235 20.519C19.998 20.5288 20.1725 20.5093 20.3469 20.4702C20.6571 20.3822 20.7152 20.2845 20.7831 20.0989C20.7831 20.0891 20.7831 20.0793 20.7831 20.0696C20.7928 20.0012 20.8218 19.9328 20.8703 19.8741C21.1417 19.5517 21.4325 19.4247 21.5585 19.5028L21.6166 19.5419C21.6748 19.581 21.7426 19.5615 21.7814 19.5028C21.8008 19.4638 21.8104 19.4149 21.7814 19.3758C21.7135 19.2488 21.6845 19.1413 21.7232 19.1022C21.762 19.0631 21.9364 19.0436 22.1594 19.1413C22.1884 19.1511 22.2175 19.1511 22.2466 19.1413C22.3048 19.112 22.3338 19.0436 22.3048 18.985C22.2951 18.9557 22.2757 18.9361 22.2466 18.9264C22.0043 18.8286 21.8395 18.6723 21.8783 18.5551C21.9171 18.4378 22.1012 18.3499 22.3532 18.3401C22.4211 18.3401 22.4695 18.2815 22.4695 18.2228C22.4695 18.1642 22.4308 18.1251 22.3823 18.1056L22.2563 18.0665C22.0237 18.0372 21.8008 17.9395 21.6263 17.7734C21.6166 17.7148 21.7814 17.5877 22.1303 17.4998C22.2854 17.5584 22.4308 17.6268 22.5761 17.7245C22.8766 17.9102 23.2061 18.0567 23.5454 18.1642C24.1269 18.2717 24.7181 18.3401 25.3094 18.3694C25.5807 18.5551 25.697 18.897 25.6001 19.1999C25.5517 19.3074 25.4451 19.5028 25.3578 19.5028H25.2803C25.193 19.4833 25.0961 19.4638 25.0089 19.454C24.8635 19.4442 24.7278 19.5028 24.6406 19.6201H24.5146C24.2723 19.6201 24.0494 19.7667 23.9621 19.9914C23.904 20.1184 23.8846 20.2552 23.8943 20.392C23.8943 20.4409 23.9234 20.4799 23.9621 20.4995C24.0591 20.5288 24.156 20.5386 24.2432 20.5288C24.2529 20.4702 24.3111 20.4311 24.3692 20.4409C24.4177 20.4506 24.4467 20.4799 24.4564 20.5288C24.5631 20.5386 24.6794 20.5386 24.786 20.5288C24.8151 20.5288 24.8538 20.5093 24.8732 20.4799C24.8829 20.4506 24.8829 20.4115 24.8732 20.3822C24.9023 20.2454 24.9604 20.1184 25.0477 20.0109C25.0089 20.138 24.9798 20.2748 24.9701 20.4018C24.9604 20.4702 25.0089 20.5288 25.0767 20.5288C25.0961 20.5288 25.416 20.5483 25.7358 20.5483C25.9297 20.5581 26.1332 20.5386 26.327 20.4995C26.5887 20.4311 26.7632 20.1575 26.8601 19.6885C26.8698 19.6201 26.8795 19.5517 26.8795 19.4833C26.8795 19.2977 26.8504 19.0729 26.8504 18.7602C26.8504 18.3596 27.0055 18.0958 27.1509 18.0958H27.1897C27.2575 18.0958 27.306 18.0372 27.2963 17.9688C27.2963 17.9199 27.2575 17.8711 27.209 17.8613C26.9183 17.7929 26.802 17.6854 26.8117 17.6366C26.8117 17.5877 26.8795 17.5389 27.0346 17.49H27.083C27.1412 17.4607 27.1606 17.3923 27.1315 17.3337C27.1121 17.2848 27.054 17.2653 27.0055 17.2751C26.7535 17.3239 26.5403 17.2751 26.4918 17.1773C26.4434 17.0796 26.4918 16.9917 26.5984 16.8745L26.6178 16.8451C26.6372 16.7963 26.6275 16.7474 26.5984 16.7083C26.5597 16.6693 26.4918 16.6595 26.4434 16.679C26.1914 16.8354 25.9006 16.9331 25.6098 16.9819H25.4935C25.29 16.9722 25.0961 16.9331 24.9023 16.8745C24.5824 16.767 24.3111 16.5618 24.1172 16.2882C24.0494 16.21 23.9815 16.1319 23.904 16.0537L23.8071 15.9657L23.9912 15.9853C24.4177 15.9755 24.8441 15.9951 25.2706 16.0341C26.1914 16.0928 27.0249 15.7508 27.3835 15.1645C27.6452 14.7541 27.6452 14.2461 27.3835 13.8357C27.0152 13.269 26.4337 12.8781 25.7649 12.7706C25.038 12.6436 24.2917 12.6729 23.5744 12.8781C23.2546 12.9563 22.9057 13.0638 22.5083 13.2006C21.7717 13.4741 21.006 13.6989 20.2403 13.865C19.9398 13.9236 19.6297 13.8943 19.3486 13.777C19.3098 13.738 19.2808 13.6891 19.2808 13.6403C19.2808 13.5914 19.4262 13.5035 19.8429 13.4937C21.6748 13.4937 22.1788 12.5361 22.2369 12.4287C22.266 12.37 22.2369 12.2919 22.1788 12.2625C22.14 12.243 22.0915 12.2528 22.0528 12.2821C21.6941 12.4873 21.2774 12.585 20.8703 12.5752C20.8025 12.5361 20.7346 12.4873 20.6861 12.4189C20.5214 12.2332 20.2888 12.1062 20.0368 12.0867Z" fill="#621B20"/>
<path d="M17.6136 14.8614C17.5748 14.8907 17.5457 14.9297 17.5361 14.9786C17.4973 15.1545 17.7202 15.4574 18.0304 15.6919C17.6621 15.6333 17.4585 15.6723 17.3422 15.8189C17.2356 15.9362 17.3616 16.2097 17.507 16.4345C17.0611 16.3954 16.5959 16.5322 16.5571 16.8058C16.5571 16.8155 16.5571 16.8351 16.5571 16.8449C16.5087 16.7862 16.4893 16.7276 16.4796 16.6494C16.499 16.4247 16.8188 16.2586 17.2259 16.2781C17.1096 16.1218 17.0902 15.9068 17.1581 15.731C17.255 15.5551 17.4682 15.4769 17.6524 15.5453C17.4488 15.4476 17.3325 15.2327 17.3519 15.0079C17.381 14.8907 17.5942 14.8614 17.6136 14.8614ZM15.4231 14.4412C15.6073 14.5389 15.8302 14.5389 16.0144 14.4412C16.1985 14.5389 16.4214 14.5389 16.6056 14.4412C16.6541 14.4119 16.6056 14.6562 16.5087 14.8125C16.373 15.0177 16.3342 15.301 15.995 15.2913C15.6654 15.2913 15.6267 15.0079 15.5104 14.8125C15.4038 14.6073 15.3747 14.4119 15.4231 14.4412ZM15.6945 14.0601C15.6945 14.0601 15.9078 14.0894 16.0047 14.0894C16.0919 14.0894 16.3245 14.0601 16.3245 14.0601C16.3439 14.0601 16.3536 14.0797 16.3536 14.0992V14.109L16.0338 14.2849H16.0047L15.6751 14.109C15.6654 14.0894 15.6654 14.0699 15.6945 14.0601ZM16.6638 13.4739C16.7801 13.4739 16.8867 13.4934 16.9933 13.5227C16.9739 13.5814 16.9351 13.6302 16.877 13.6693C16.7994 13.7572 16.6831 13.8061 16.5571 13.8061C16.4021 13.8354 16.247 13.7377 16.2179 13.5814V13.5716C16.3051 13.5227 16.4118 13.4934 16.5184 13.4836C16.5765 13.4739 16.625 13.4739 16.6638 13.4739ZM15.3941 13.4739C15.4134 13.4739 15.4425 13.4739 15.4619 13.4739C15.6751 13.4934 15.7624 13.5423 15.7624 13.5618C15.743 13.7181 15.5976 13.8256 15.4328 13.8061H15.4231C15.2971 13.8061 15.1808 13.7572 15.1033 13.6693H15.113C15.0645 13.6302 15.0258 13.5814 15.0064 13.5227C15.1227 13.4836 15.2584 13.4641 15.3941 13.4739ZM26.9085 17.3139C26.9182 17.3139 26.9376 17.3139 26.9472 17.3139H26.9085ZM19.8913 12.145C20.1627 12.4088 20.153 12.6433 20.027 12.6824C19.9494 12.7117 19.8719 12.6922 19.8234 12.6336C19.6684 12.4088 19.3873 12.3209 19.1256 12.3991C19.1256 12.3991 19.4454 12.5065 19.3776 12.6531C19.3776 12.6727 19.3194 12.6824 19.2807 12.6824C19.2516 12.6922 19.2225 12.6922 19.1837 12.6824C18.9996 12.5749 18.7573 12.614 18.6216 12.7801C18.6216 12.7801 18.8542 12.7313 18.9027 12.829C18.5537 13.0049 18.2824 13.2687 18.3405 13.6204C18.4665 14.3435 19.2904 14.5194 20.182 14.4217C21.2288 14.3142 22.1302 13.8452 23.6228 13.4152C25.1154 12.9853 26.482 13.4543 26.7146 14.3044C26.8309 14.7539 26.4432 15.4183 25.222 15.3694C24.0105 15.3206 23.7003 15.1447 21.8976 14.9297C21.1803 14.8711 20.4631 14.8711 19.7459 14.9297C19.3873 14.9591 19.0287 14.9395 18.6797 14.8907C18.3114 14.832 17.3713 14.6562 17.3616 14.4021C17.3519 14.1481 17.8365 14.0992 17.8365 14.0992C17.8365 14.0992 17.381 14.0015 17.3519 13.7279C17.3325 13.5227 17.2937 13.3273 17.2162 13.1319L17.255 13.083C17.3519 12.8974 17.3422 12.6727 17.2162 12.4968C17.0321 12.4772 16.8479 12.5456 16.7219 12.6727C16.499 12.5554 16.2567 12.4772 16.0047 12.4577C15.743 12.4675 15.491 12.5261 15.2584 12.6433C15.1227 12.4968 14.9191 12.4381 14.7253 12.4577C14.5993 12.6238 14.5896 12.8583 14.6865 13.0439C14.7059 13.083 14.7253 13.1123 14.7544 13.1417C14.6865 13.3273 14.6478 13.513 14.6381 13.7084C14.6187 13.9527 14.1728 14.0797 14.1631 14.0797C14.1631 14.0797 14.6768 14.1969 14.6284 14.4119C14.5799 14.6952 14.1438 14.832 14.1438 14.832C14.1438 14.832 14.609 14.8711 14.6575 15.1056C14.6768 15.2033 14.5896 15.2913 14.4733 15.4281C13.8821 15.389 13.3005 15.2522 12.7481 15.0275C12.4282 14.8809 12.1278 14.7148 11.8273 14.5291C11.5365 14.2946 11.2652 14.021 11.0229 13.7279C10.9841 13.64 10.9356 13.552 10.8775 13.4739C10.7612 13.3469 10.5964 13.2785 10.4219 13.298C10.3735 13.2296 10.325 13.1612 10.3056 13.1221C10.1893 12.9658 9.79193 13.0146 9.50116 13.0733C9.47209 13.0439 9.44301 13.0146 9.41393 12.9951C9.22009 12.8583 8.88086 13.1417 8.88086 13.1417C8.88086 13.1417 9.13286 13.1026 9.19101 13.1905L9.41393 13.1123C9.3364 13.1612 9.28794 13.2491 9.28794 13.3371L9.3364 13.4055C9.60778 13.3175 9.88886 13.298 10.1699 13.3469C10.0342 13.3957 9.89855 13.4543 9.77255 13.5325L9.74347 13.513C9.52055 13.3664 9.14255 13.64 9.14255 13.64C9.26855 13.6302 9.39455 13.6498 9.51086 13.6986L9.53993 13.7279L9.71439 13.5814C9.66593 13.6595 9.64655 13.7572 9.64655 13.8452L9.67563 13.8843L9.73378 13.9429C9.73378 13.9429 10.5964 13.6986 10.829 13.9429C10.5964 13.9136 10.3638 13.9722 10.1699 14.0992C9.94701 13.9527 9.56901 14.2262 9.56901 14.2262C9.69501 14.2165 9.82101 14.236 9.93732 14.2849L9.97609 14.3142L10.1215 14.1872C10.073 14.2751 10.0536 14.3728 10.0633 14.4705C10.1021 14.5682 10.1602 14.6659 10.2378 14.7441C10.4413 14.9395 10.7224 14.8809 10.9841 15.1154L11.1779 15.2717C11.2555 15.3206 11.3039 15.3988 11.3233 15.4867C11.3233 15.5649 11.2845 15.6333 11.2264 15.6723C11.5462 15.6137 11.8273 15.6723 11.8758 15.8091C11.9242 15.9459 11.8273 16.0534 11.6625 16.1804C12.0308 16.0436 12.4088 16.0632 12.467 16.2293C12.5348 16.3954 12.4088 16.5322 12.1859 16.6788C12.5542 16.5029 12.9516 16.5029 13.0582 16.6788C13.1551 16.8546 12.9904 17.0696 12.7093 17.2455H12.7287C12.9807 17.0891 13.2908 17.0501 13.5719 17.1478C13.8821 16.9621 14.1728 16.7276 14.4248 16.4638C14.2407 16.8546 13.979 17.2064 13.6591 17.4897C13.5525 17.5972 12.845 18.1639 12.7287 18.2812C12.1278 18.7404 11.5075 19.2583 11.459 19.2778C11.3136 19.3365 11.1198 19.483 10.9841 19.483C10.8775 19.4537 10.7612 19.4244 10.6545 19.4146C10.5285 19.4146 10.4219 19.483 10.3638 19.6003C10.2862 19.6003 10.1699 19.5807 10.1312 19.5807C9.9567 19.5807 9.80162 19.7664 9.69501 20.0009C9.65624 20.1181 9.63686 20.2452 9.63686 20.3722C9.7047 20.3917 9.78224 20.4015 9.85978 20.3917C9.92762 20.1181 10.0924 19.8739 10.3153 19.6882C10.199 19.9032 10.1409 20.1475 10.1409 20.3917C10.2378 20.4015 10.3347 20.4015 10.4316 20.3917C10.4316 20.1865 10.703 19.6198 10.9938 19.6491H11.0616C10.8096 19.7371 10.7612 20.3917 10.7612 20.3917C11.1295 20.4308 11.5075 20.421 11.8758 20.3722C12.1859 20.2745 12.1665 20.1963 12.2441 20.0302C12.2925 19.9325 12.3701 19.8446 12.4573 19.7762C12.5833 19.6296 12.7772 19.5612 12.971 19.5807C13.0388 19.6101 13.097 19.6687 13.1067 19.7468C13.1842 19.4537 13.3587 19.2388 13.5235 19.2583C13.6979 19.2778 13.7367 19.4049 13.7755 19.5905C13.7948 19.2192 13.9693 18.9261 14.1631 18.9359C14.357 18.9456 14.4345 19.1215 14.483 19.3658C14.483 18.9749 14.6381 18.6525 14.8513 18.6427C15.0645 18.633 15.2196 18.8675 15.2584 19.1801V19.1508C15.2293 18.7209 15.4134 18.3594 15.6751 18.3398C15.8981 18.3594 16.0725 18.5255 16.121 18.7404C16.121 18.5255 16.4311 18.3203 16.8188 18.2812H16.9642C17.1387 18.291 17.3228 18.2617 17.4876 18.203C17.9237 17.9197 18.0207 17.4604 18.9317 17.0012C19.3194 16.8449 19.7265 16.7178 20.1336 16.6299C20.5019 16.5126 20.8993 16.4638 21.287 16.4736H21.316C21.413 16.5029 21.5099 16.5517 21.5874 16.6201C21.82 16.8253 22.0139 17.0696 22.1787 17.3334C22.2562 17.48 22.2077 17.4018 22.4888 17.5972C22.7796 17.7731 23.0994 17.9197 23.429 18.0174C24.0105 18.1346 24.592 18.2128 25.1736 18.2617H25.2026C25.5322 18.4766 25.6679 18.887 25.5419 19.2583C25.474 19.3951 25.3674 19.5612 25.2026 19.5514C25.0863 19.5221 24.97 19.5026 24.8537 19.4928C24.7277 19.4928 24.6211 19.5612 24.5533 19.6589L24.3691 19.6394C24.1946 19.6394 24.0299 19.8152 23.9136 20.04C23.8651 20.1475 23.8457 20.2647 23.8554 20.382C23.933 20.4015 24.0105 20.4113 24.0977 20.4015C24.1559 20.1181 24.311 19.8641 24.5436 19.698C24.4273 19.8934 24.3691 20.1181 24.3691 20.3526C24.4757 20.3624 24.5726 20.3624 24.6793 20.3526C24.6793 20.1768 24.9603 19.6101 25.2705 19.6394H25.3383C25.0766 19.7175 25.0185 20.3526 25.0185 20.3526C25.4256 20.3917 25.8326 20.382 26.23 20.3331C26.5402 20.2452 26.6468 19.7762 26.6759 19.6198C26.6856 19.5612 26.6952 19.4928 26.6952 19.4342C26.6759 19.229 26.6662 18.9847 26.6662 18.6916C26.6662 18.2617 26.8406 17.9197 27.0829 17.9001H27.1217C26.8116 17.8415 26.608 17.7047 26.6177 17.5581H26.608C26.608 17.4604 26.7243 17.3725 26.8988 17.3139C26.6177 17.353 26.3754 17.3041 26.2979 17.1478C26.23 16.9817 26.2785 16.8058 26.4142 16.6885C26.1331 16.8351 25.8229 16.923 25.5128 16.9621H25.3965C25.1833 16.9523 24.97 16.9328 24.7665 16.8839C24.2237 16.7374 23.9911 16.2977 23.7197 16.0339C23.6034 15.8971 23.458 15.7994 23.2836 15.7407C23.2836 15.7407 23.2642 15.7017 23.5937 15.7407C23.9233 15.7798 24.1849 15.8189 25.1445 15.8775C26.6952 15.9752 27.7517 14.9297 27.1314 13.8549C26.5111 12.7801 24.8634 12.5359 23.4677 12.8974C22.6342 13.1123 21.568 13.5911 20.1045 13.894C19.7847 13.9624 19.4454 13.9233 19.1353 13.7963C18.9996 13.7279 18.7864 13.3371 19.6877 13.3273C21.442 13.3273 21.917 12.4381 21.9751 12.3307C21.5777 12.5261 21.1416 12.6336 20.7054 12.6238C20.6764 12.6238 20.657 12.614 20.6279 12.6043C20.3953 12.4772 20.3662 12.2036 19.8913 12.145Z" fill="#F5DA34"/>
<path d="M22.2464 18.1739L22.1204 18.1348C21.7521 18.0566 21.4032 17.8808 21.4032 17.7244C21.4032 17.5681 21.6649 17.4215 22.0041 17.3531C21.9653 17.2847 21.9653 17.2847 21.9169 17.2163C21.7715 16.9427 21.5389 16.7278 21.2578 16.6008C21.1415 16.591 21.0349 16.6008 20.9185 16.6203C20.4921 16.718 20.0366 16.7962 19.9299 16.9916C19.7264 17.3629 19.7846 17.8221 20.0753 18.125C20.3467 18.467 20.4436 18.6038 20.3079 18.7797C20.1432 18.9458 19.959 19.0924 19.7652 19.2292C19.6198 19.3659 19.5326 19.5027 19.3969 19.5027C19.2999 19.4734 19.1933 19.4539 19.0867 19.4441C18.9704 19.4441 18.8735 19.5125 18.825 19.6102L18.6506 19.5809C18.4761 19.5809 18.321 19.7568 18.2144 19.9522C18.1756 20.0597 18.1562 20.1672 18.1562 20.2844C18.2338 20.304 18.3113 20.3137 18.3889 20.304C18.4373 20.0597 18.573 19.835 18.7572 19.6786C18.6602 19.8838 18.6021 20.0988 18.6021 20.3333C18.6893 20.343 18.7862 20.343 18.8735 20.3333C18.8735 20.1769 19.1255 19.62 19.3969 19.6395H19.455C19.2127 19.7177 19.1642 20.3333 19.1642 20.3333C19.5132 20.3724 19.8621 20.3724 20.2013 20.3333C20.4727 20.2551 20.5018 20.1867 20.5502 20.0401C20.5599 19.9424 20.5987 19.8545 20.6569 19.7861C20.9379 19.4441 21.2965 19.2585 21.5001 19.3855L21.5582 19.4246C21.4613 19.2487 21.4419 19.1021 21.5195 19.0142C21.6939 18.9165 21.9072 18.9165 22.0816 19.0142C21.7715 18.8872 21.5873 18.6917 21.6261 18.5061C21.7036 18.2911 21.9556 18.1934 22.2464 18.1739Z" fill="#F5DA34"/>
<path d="M7.2224 24.2906C7.39686 24.3004 7.56163 24.3688 7.68763 24.4861C7.79424 24.6131 7.8524 24.7694 7.8427 24.9355C7.8427 25.4925 7.41625 25.6097 7.05763 25.6097H6.36948V24.2906H7.15455C7.17394 24.2906 7.20302 24.2906 7.2224 24.2906ZM6.15625 24.0757L6.16594 26.665H6.37917V25.7954H7.07702C7.14486 25.7954 7.21271 25.7954 7.28055 25.7856L7.92994 26.6552H8.20132L7.50348 25.7368C7.88147 25.6293 8.08501 25.3361 8.07532 24.9062C8.07532 24.6522 7.98809 24.0659 7.16425 24.0659L6.15625 24.0757Z" fill="#08090A"/>
<path d="M10.6313 24.0658H8.88672L8.89641 26.6552H10.7089V26.4402H9.10964V25.4924H10.4084V25.2872H9.11933V24.2613H10.641L10.6313 24.0658ZM10.2921 23.3037L9.65241 23.9486H9.89471L10.5635 23.333L10.2921 23.3037Z" fill="#08090A"/>
<path d="M12.6194 25.4048V25.61H13.6371V26.1669C13.3754 26.3526 13.0555 26.4601 12.726 26.4503C12.1057 26.4601 11.6017 25.9715 11.5823 25.3559C11.5823 25.0628 11.6986 24.7795 11.9215 24.584C12.1348 24.3788 12.4255 24.2616 12.726 24.2616C13.0458 24.2518 13.356 24.3593 13.5983 24.5743L13.6274 24.6036L13.7728 24.4472L13.7437 24.4179C13.4626 24.1737 13.104 24.0369 12.726 24.0466C12.3674 24.0466 12.0184 24.1834 11.7665 24.4375C11.5048 24.6817 11.3691 25.014 11.3594 25.3657C11.3788 26.0985 11.9894 26.6848 12.726 26.675C13.1234 26.675 13.5208 26.548 13.8406 26.294L13.86 26.2842V25.4146L12.6194 25.4048Z" fill="#08090A"/>
<path d="M17.144 24.2613C17.7643 24.2516 18.2683 24.7401 18.2876 25.3557C18.2779 25.9713 17.7643 26.4598 17.144 26.45C16.5236 26.4598 16.0197 25.981 16.0003 25.3557C16.0003 25.0626 16.1166 24.7792 16.3298 24.5838C16.5527 24.3786 16.8435 24.2613 17.144 24.2613ZM17.144 24.0464C16.7853 24.0464 16.4364 24.1832 16.1844 24.4372C15.9324 24.6815 15.787 25.0137 15.7773 25.3655C15.7967 26.0983 16.4073 26.6846 17.144 26.6748C17.8806 26.6846 18.4912 26.0983 18.5106 25.3557C18.5106 25.0039 18.3652 24.6717 18.1035 24.4275C17.8418 24.1832 17.5026 24.0464 17.144 24.0464Z" fill="#08090A"/>
<path d="M21.517 24.0659H21.3038V26.2546L19.5204 24.0757H19.375L19.3847 26.665H19.5979L19.5882 24.4861L21.3716 26.6455L21.3813 26.665H21.5267L21.517 24.0659Z" fill="#08090A"/>
<path d="M14.9573 24.0757H14.7344V26.665H14.9573V24.0757Z" fill="#08090A"/>
<path d="M3.09183 27.5542L3.10153 30.7884L0.455537 27.5542H0L0.00969227 32H0.63969L0.629997 28.7658L3.28568 31.9902H3.73152L3.72183 27.5444L3.09183 27.5542Z" fill="#08090A"/>
<path d="M7.13684 28.1403C8.04791 28.1207 8.80391 28.8438 8.82329 29.7525C8.82329 30.1824 8.64883 30.5928 8.33868 30.8859C8.01883 31.1888 7.59237 31.3647 7.14653 31.3647C6.70069 31.3647 6.27423 31.1986 5.95438 30.8957C5.63454 30.6026 5.45038 30.1922 5.45038 29.7623C5.46977 28.8536 6.22576 28.1207 7.13684 28.1403ZM7.15622 27.5149C6.54561 27.5149 5.95438 27.7494 5.50854 28.1696C5.07238 28.58 4.83008 29.1565 4.83008 29.7525C4.85915 31.0129 5.89623 32.0096 7.15622 31.99C7.76684 31.99 8.35806 31.7555 8.79422 31.3354C9.23037 30.925 9.47267 30.3485 9.47267 29.7525C9.45329 28.492 8.41622 27.4954 7.15622 27.5149Z" fill="#08090A"/>
<path d="M12.3396 28.1892C12.5819 28.1892 12.8242 28.2869 13.0083 28.4531C13.1537 28.6289 13.2313 28.8439 13.2216 29.0686C13.2507 29.3422 13.144 29.606 12.9405 29.7819C12.6982 29.948 12.4074 30.0262 12.107 30.0066H11.128V28.1892H12.2427C12.2814 28.1795 12.3105 28.1795 12.3396 28.1892ZM12.3299 27.5541C12.3105 27.5541 12.2814 27.5541 12.262 27.5541H10.498L10.5077 31.9901H11.1377V30.6027H12.1167C12.2039 30.6027 12.2814 30.6027 12.3783 30.5929L13.4057 31.9804H14.1908L13.0277 30.4268C13.5608 30.1923 13.8516 29.7135 13.8516 29.0295C13.8613 28.6485 13.7353 28.2869 13.4833 27.9938C13.1828 27.7105 12.766 27.5443 12.3299 27.5541Z" fill="#08090A"/>
<path d="M18.7442 27.5444L17.0578 30.3194L15.3519 27.5542H14.8867L14.8964 32H15.5264L15.5167 29.0003L17.0578 31.5115L18.5795 29.0003L18.5892 31.9902H19.2192L19.2095 27.5542L18.7442 27.5444Z" fill="#08090A"/>
<path d="M22.1942 28.5411L22.9502 30.2217L21.4479 30.2314L22.1942 28.5411ZM22.4171 27.5542H21.981L19.9844 32H20.6725L21.1765 30.8372H23.2022L23.7256 32H24.4137L22.4171 27.5542Z" fill="#08090A"/>
<path d="M28.2305 27.5542L28.2402 30.7884L25.5942 27.5542H25.1387L25.1484 32H25.7784L25.7687 28.7658L28.4243 31.9902H28.8702L28.8605 27.5542H28.2305Z" fill="#08090A"/>
<path d="M30.7431 28.1896H31.567C32.449 28.1896 33.1662 28.9028 33.1662 29.792C33.1565 30.6323 32.5071 31.326 31.6736 31.3944L30.7431 31.3847V28.1896ZM31.6542 27.5544C31.6251 27.5544 31.5961 27.5544 31.5573 27.5544H31.5476H30.0938L30.1034 31.9905H31.7027C32.9336 31.9514 33.8931 30.9254 33.8543 29.6943C33.8253 28.512 32.8464 27.5642 31.6542 27.5544Z" fill="#08090A"/>
<path d="M35.5167 27.5535L34.8867 27.5552L34.8983 31.9912L35.5283 31.9895L35.5167 27.5535Z" fill="#08090A"/>
<path d="M39.9798 31.3747H37.421V30.1435H39.5145V29.5279H37.421V28.1795L39.8635 28.1698V27.5444L36.791 27.5542L36.8104 32L39.9992 31.9902L39.9798 31.3747Z" fill="#08090A"/>
<path d="M69.9653 18.1507C69.6298 18.1507 69.3047 18.0133 69.0845 17.7385L61.681 8.84813V16.8505C61.681 17.5165 61.1567 18.045 60.5065 18.045C59.8564 18.045 59.332 17.5059 59.332 16.8505V5.81422C59.332 5.31737 59.6361 4.87339 60.0976 4.69368C60.559 4.51397 61.0833 4.64082 61.3979 5.02138L68.8013 13.9117V5.90936C68.8013 5.24338 69.3257 4.71482 69.9758 4.71482C70.626 4.71482 71.1503 5.25395 71.1503 5.90936V16.9562C71.1503 17.453 70.8462 17.897 70.3848 18.0767C70.238 18.119 70.1017 18.1507 69.9653 18.1507Z" fill="#C83944"/>
<path d="M73.3105 11.3852C73.3105 7.59012 76.3831 4.51392 80.1687 4.51392C83.9543 4.51392 87.0269 7.59012 87.0269 11.3852C87.0269 15.1802 83.9543 18.2564 80.1687 18.2564C76.3726 18.2458 73.3105 15.1696 73.3105 11.3852ZM84.6569 11.3852C84.6569 8.85866 82.6435 6.81843 80.1582 6.81843C77.6729 6.81843 75.6595 8.86923 75.6595 11.3852C75.6595 13.9117 77.6729 15.9519 80.1582 15.9519C82.6435 15.9519 84.6569 13.9011 84.6569 11.3852Z" fill="#C83944"/>
<path d="M106.564 18.0554C105.914 18.0554 105.389 17.5162 105.389 16.8608V8.76334L101.981 12.8227C101.761 13.0869 101.425 13.2455 101.09 13.2455C100.744 13.2455 100.419 13.0869 100.198 12.8227L96.7904 8.76334V16.8608C96.7904 17.5268 96.2661 18.0554 95.6159 18.0554C94.9657 18.0554 94.4414 17.5162 94.4414 16.8608V5.70828C94.4414 5.21144 94.7455 4.75688 95.2069 4.58774C95.6683 4.4186 96.1926 4.55602 96.5072 4.93659L101.1 10.3913L105.693 4.93659C106.018 4.55602 106.532 4.4186 106.994 4.58774C107.455 4.75688 107.759 5.21144 107.759 5.70828V16.8503C107.738 17.5162 107.214 18.0554 106.564 18.0554Z" fill="#C83944"/>
<path d="M119.89 17.9604C119.292 18.2141 118.6 17.9287 118.349 17.3261L117.342 14.9053H112.224L111.218 17.3261C110.966 17.9287 110.274 18.2141 109.676 17.9604C109.078 17.7067 108.795 16.9984 109.047 16.3959L113.703 5.24333C113.892 4.79934 114.311 4.51392 114.783 4.51392C115.255 4.51392 115.685 4.79934 115.863 5.24333L120.519 16.3959C120.771 16.9984 120.488 17.7067 119.89 17.9604ZM116.377 12.6114L114.773 8.77409L113.168 12.6114H116.377Z" fill="#C83944"/>
<path d="M128.689 16.8506V5.90948C128.689 5.25407 129.224 4.71494 129.864 4.71494L134.006 4.70437C137.676 4.6938 140.665 7.69601 140.665 11.3748C140.665 15.0641 137.687 18.0452 134.006 18.0452L129.864 18.0557C129.214 18.0557 128.689 17.5166 128.689 16.8506ZM134.006 15.7406C136.387 15.7406 138.316 13.785 138.316 11.3642C138.316 8.95397 136.387 6.98774 134.006 6.98774H131.049V15.7406H134.006Z" fill="#C83944"/>
<path d="M127.84 3.08677C127.694 3.08677 127.547 3.03392 127.431 2.91764C126.33 1.80767 124.715 1.1734 123.006 1.1734C121.297 1.1734 119.671 1.80767 118.581 2.91764C118.35 3.1502 117.983 3.1502 117.763 2.91764C117.532 2.68507 117.543 2.31508 117.763 2.08252C119.084 0.761122 120.993 0 123.006 0C125.02 0 126.939 0.761122 128.249 2.08252C128.48 2.31508 128.48 2.68507 128.249 2.91764C128.134 3.03392 127.987 3.08677 127.84 3.08677Z" fill="#C83944"/>
<path d="M88.7659 22.7491C86.742 22.7491 84.8334 21.988 83.5226 20.6666C83.2919 20.434 83.2919 20.064 83.5226 19.8315C83.7533 19.5989 84.1204 19.5989 84.3406 19.8315C85.4312 20.9309 87.0461 21.5651 88.7659 21.5651C90.4857 21.5651 92.1006 20.9309 93.1912 19.8209C93.4219 19.5883 93.7889 19.5883 94.0091 19.8209C94.2398 20.0535 94.2293 20.4235 94.0091 20.656C92.6983 21.988 90.7793 22.7491 88.7659 22.7491Z" fill="#C83944"/>
<path d="M92.7443 28.9434C92.7443 29.1019 92.6185 29.2288 92.4612 29.2288H91.5593V31.6813C91.5593 31.8504 91.423 31.9773 91.2657 31.9773C91.1084 31.9773 90.9721 31.8399 90.9721 31.6813V29.2288H90.0702C89.9129 29.2288 89.7871 29.1019 89.7871 28.9434C89.7871 28.7848 89.9129 28.658 90.0702 28.658H92.4612C92.6185 28.658 92.7443 28.7848 92.7443 28.9434Z" fill="#C83944"/>
<path d="M95.7138 31.5441C95.7977 31.6815 95.7557 31.8718 95.6194 31.9563C95.4831 32.0409 95.2943 31.9986 95.2104 31.8612L94.6442 30.9415H94.015V31.692C94.015 31.8612 93.8787 31.988 93.7214 31.988C93.5641 31.988 93.4277 31.8506 93.4277 31.692V28.9647C93.4277 28.7956 93.5641 28.6687 93.7214 28.6687H94.812C95.4411 28.6687 95.955 29.1761 95.955 29.7998C95.955 30.2649 95.6823 30.6561 95.2943 30.8358L95.7138 31.5441ZM94.015 30.3601H94.8015C95.1056 30.3601 95.3468 30.1064 95.3468 29.7892C95.3468 29.4721 95.1056 29.2184 94.8015 29.2184H94.015V30.3601Z" fill="#C83944"/>
<path d="M99.4747 31.9667C99.3279 32.0301 99.1496 31.9667 99.0867 31.8187L98.8455 31.2584H97.4298L97.1886 31.8187C97.1257 31.9667 96.9474 32.0407 96.8006 31.9667C96.6538 31.9033 96.5804 31.7236 96.6538 31.5756L97.8702 28.8059C97.9227 28.6896 98.0275 28.6262 98.1429 28.6262C98.2582 28.6262 98.3631 28.6896 98.4155 28.8059L99.632 31.5756C99.6949 31.7236 99.6215 31.8927 99.4747 31.9667ZM98.5833 30.6559L98.1324 29.6305L97.6815 30.6559H98.5833Z" fill="#C83944"/>
<path d="M100.336 31.6813V28.9539C100.336 28.7848 100.472 28.658 100.63 28.658C100.787 28.658 100.923 28.7954 100.923 28.9539V31.6813C100.923 31.8504 100.787 31.9773 100.63 31.9773C100.472 31.9773 100.336 31.8504 100.336 31.6813Z" fill="#C83944"/>
<path d="M104.751 28.9538V31.6811C104.751 31.8503 104.615 31.9771 104.457 31.9771C104.342 31.9771 104.237 31.9137 104.195 31.808L102.339 29.6938V31.6706C102.339 31.8397 102.203 31.9666 102.046 31.9666C101.888 31.9666 101.752 31.8291 101.752 31.6706V28.9432C101.752 28.7741 101.888 28.6472 102.046 28.6472C102.119 28.6472 102.182 28.6684 102.234 28.7106L102.245 28.7212C102.266 28.7318 102.276 28.7529 102.287 28.7741L104.164 30.9094V28.9432C104.164 28.7741 104.3 28.6472 104.457 28.6472C104.625 28.6578 104.751 28.7952 104.751 28.9538Z" fill="#C83944"/>
<defs>
<linearGradient id="paint0_linear_184_20713" x1="158.002" y1="11.9934" x2="203.272" y2="11.9934" gradientUnits="userSpaceOnUse">
<stop stop-color="#782A63"/>
<stop offset="0.25" stop-color="#A12771"/>
<stop offset="0.81" stop-color="#C93026"/>
<stop offset="1" stop-color="#C93026"/>
</linearGradient>
</defs>
</svg>
