<?xml version="1.0" encoding="UTF-8" standalone="no"?>
<!-- Created with Inkscape (http://www.inkscape.org/) -->

<svg
   xmlns:dc="http://purl.org/dc/elements/1.1/"
   xmlns:cc="http://creativecommons.org/ns#"
   xmlns:rdf="http://www.w3.org/1999/02/22-rdf-syntax-ns#"
   xmlns:svg="http://www.w3.org/2000/svg"
   xmlns="http://www.w3.org/2000/svg"
   xmlns:sodipodi="http://sodipodi.sourceforge.net/DTD/sodipodi-0.dtd"
   xmlns:inkscape="http://www.inkscape.org/namespaces/inkscape"
   width="2360"
   height="400"
   viewBox="0 0 2360 399.99998"
   id="svg2"
   version="1.1"
   inkscape:version="0.91 r13725"
   sodipodi:docname="Logo TER Hauts-de-France 2016.svg">
  <defs
     id="defs4">
    <linearGradient
       id="linearGradient128"
       spreadMethod="pad"
       gradientTransform="matrix(168.93624,0,0,-168.93624,118.06947,67.377436)"
       gradientUnits="userSpaceOnUse"
       y2="0"
       x2="1"
       y1="0"
       x1="0">
      <stop
         id="stop130"
         offset="0"
         style="stop-opacity:1;stop-color:#7c2270" />
      <stop
         id="stop132"
         offset="0.247191"
         style="stop-opacity:1;stop-color:#aa147e" />
      <stop
         id="stop134"
         offset="0.814607"
         style="stop-opacity:1;stop-color:#e41d25" />
      <stop
         id="stop136"
         offset="1"
         style="stop-opacity:1;stop-color:#e41d25" />
    </linearGradient>
    <clipPath
       id="clipPath144"
       clipPathUnits="userSpaceOnUse">
      <path
         inkscape:connector-curvature="0"
         id="path146"
         d="m 0,0 311.811,0 0,510.236 -311.811,0 z" />
    </clipPath>
  </defs>
  <sodipodi:namedview
     id="base"
     pagecolor="#ffffff"
     bordercolor="#666666"
     borderopacity="1.0"
     inkscape:pageopacity="0.0"
     inkscape:pageshadow="2"
     inkscape:zoom="0.20619553"
     inkscape:cx="1711.501"
     inkscape:cy="-157.82844"
     inkscape:document-units="px"
     inkscape:current-layer="layer1"
     showgrid="false"
     inkscape:window-width="1440"
     inkscape:window-height="788"
     inkscape:window-x="0"
     inkscape:window-y="1"
     inkscape:window-maximized="1"
     units="px" />
  <metadata
     id="metadata7">
    <rdf:RDF>
      <cc:Work
         rdf:about="">
        <dc:format>image/svg+xml</dc:format>
        <dc:type
           rdf:resource="http://purl.org/dc/dcmitype/StillImage" />
        <dc:title></dc:title>
      </cc:Work>
    </rdf:RDF>
  </metadata>
  <g
     inkscape:label="Calque 1"
     inkscape:groupmode="layer"
     id="layer1"
     transform="translate(0,-652.36235)">
    <g
       id="g4212">
      <g
         id="flowRoot4136"
         style="font-style:normal;font-weight:normal;font-size:11.25px;line-height:125%;font-family:sans-serif;letter-spacing:0.00179347px;word-spacing:0px;fill:#3b3b3b;fill-opacity:1;stroke:none;stroke-width:1px;stroke-linecap:butt;stroke-linejoin:miter;stroke-opacity:1"
         transform="matrix(22.636398,0,0,22.636398,-3440.8169,-3855.6758)">
        <path
           inkscape:connector-curvature="0"
           id="path4155"
           style="font-style:normal;font-variant:normal;font-weight:500;font-stretch:normal;font-family:Avenir;-inkscape-font-specification:'Avenir Medium';letter-spacing:0.02241842px;fill:#3b3b3b;fill-opacity:1"
           d="m 193.07742,200.16247 -2.565,0 0,-1.0125 6.21,0 0,1.0125 -2.565,0 0,6.9525 -1.08,0 0,-6.9525 z" />
        <path
           inkscape:connector-curvature="0"
           id="path4157"
           style="font-style:normal;font-variant:normal;font-weight:500;font-stretch:normal;font-family:Avenir;-inkscape-font-specification:'Avenir Medium';letter-spacing:0.02241842px;fill:#3b3b3b;fill-opacity:1"
           d="m 197.91677,199.14997 5.14125,0 0,1.0125 -4.06125,0 0,2.37375 3.78,0 0,1.0125 -3.78,0 0,2.55375 4.26375,0 0,1.0125 -5.34375,0 0,-7.965 z" />
        <path
           inkscape:connector-curvature="0"
           id="path4159"
           style="font-style:normal;font-variant:normal;font-weight:500;font-stretch:normal;font-family:Avenir;-inkscape-font-specification:'Avenir Medium';letter-spacing:0.02241842px;fill:#3b3b3b;fill-opacity:1"
           d="m 204.81663,199.14997 2.80125,0 q 0.765,0 1.26,0.21375 0.495,0.2025 0.77625,0.52875 0.2925,0.315 0.405,0.72 0.1125,0.39375 0.1125,0.765 0,0.3825 -0.135,0.7425 -0.135,0.34875 -0.39375,0.64125 -0.2475,0.28125 -0.61875,0.48375 -0.36,0.19125 -0.81,0.23625 l 2.26125,3.63375 -1.35,0 -2.025,-3.51 -1.20375,0 0,3.51 -1.08,0 0,-7.965 z m 1.08,3.51 1.4175,0 q 0.315,0 0.61875,-0.045 0.315,-0.0563 0.55125,-0.19125 0.2475,-0.135 0.39375,-0.3825 0.14625,-0.25875 0.14625,-0.66375 0,-0.405 -0.14625,-0.6525 -0.14625,-0.25875 -0.39375,-0.39375 -0.23625,-0.135 -0.55125,-0.18 -0.30375,-0.0563 -0.61875,-0.0563 l -1.4175,0 0,2.565 z" />
      </g>
      <g
         id="g10"
         inkscape:label="guide-tgv-loisir"
         transform="matrix(4.3581456,0,0,-4.3581456,-514.56578,928.90538)">
        <path
           d="m 121.17533,61.986208 c -1.88209,-0.07905 -3.10544,-0.948573 -3.10544,-2.808078 l 0,0 0,-82.902307 c 0,-1.445446 1.03515,-2.751616 2.63116,-2.751616 l 0,0 147.99251,0 c 1.32876,0 2.39025,0.120454 3.01511,1.874562 l 0,0 c 0,0 15.00026,46.943092 15.26375,47.790033 l 0,0 c 0.5571,1.772929 0.19574,2.672568 -1.31746,3.636198 l 0,0 C 237.45463,57.710099 165.3781,62.197002 132.64103,62.197002 l 0,0 c -4.69394,0 -8.57104,-0.0941 -11.4657,-0.210794"
           style="fill:url(#linearGradient128);stroke:none;stroke-width:1"
           id="path138"
           inkscape:connector-curvature="0" />
        <g
           id="g140"
           transform="matrix(3.7641803,0,0,3.7641803,-793.92701,-171.92372)"
           style="stroke-width:0.2656621">
          <g
             id="g142"
             clip-path="url(#clipPath144)"
             style="stroke-width:0.2656621">
            <g
               id="g148"
               transform="translate(267.3338,44.7764)"
               style="stroke-width:0.2656621">
              <path
                 d="m 0,0 c -0.55,0.641 -0.768,1.468 -0.632,2.39 0.324,2.199 2.464,3.589 5.327,3.589 0.603,0 1.224,-0.038 1.782,-0.109 L 7.043,7.529 C 6.353,7.635 5.517,7.68 4.697,7.68 2.158,7.68 -0.05,6.806 -1.481,5.265 -1.526,5.217 -1.572,5.218 -1.6,5.218 c -0.044,0 -0.074,0.008 -0.062,0.047 l 0.717,2.249 -2.096,0 -2.294,-7.197 c -0.73,2.124 -2.232,4.917 -4.069,7.197 l -2.251,0 -1.683,-5.239 c 0.846,-0.629 1.114,-1.083 1.335,-1.729 0.013,-0.038 0.04,-0.046 0.081,-0.046 0.041,0 0.061,0.01 0.072,0.046 0.016,0.05 1.468,4.553 1.468,4.553 1.481,-2.119 2.951,-4.907 3.739,-7.851 l 2.414,0 1.194,3.73 c 0.013,0.038 0.039,0.046 0.079,0.046 0.042,0 0.069,-0.011 0.074,-0.046 0.363,-2.342 2.692,-3.916 5.993,-3.916 2.134,0 4.063,0.56 4.543,0.817 l 1.251,3.94 4.804,0 0.489,1.526 -4.805,0 0.829,2.587 5.725,0 0.499,1.582 -8.042,0 -2.73,-8.533 C 5.095,-1.165 4.379,-1.237 3.631,-1.237 2.02,-1.237 0.73,-0.854 0,0 m -13.558,5.939 0.478,1.503 c -0.687,0.126 -1.178,0.191 -1.998,0.21 -2.636,0.061 -5.019,-0.666 -5.632,-2.206 -0.726,-1.826 1.334,-2.853 3.119,-3.699 1.417,-0.672 2.537,-1.311 2.143,-2.148 -0.306,-0.649 -1.309,-0.957 -2.767,-0.924 -1.263,0.03 -2.838,0.392 -4.079,1.017 l -0.738,-1.596 c 0.913,-0.424 2.795,-1 4.401,-1.037 3.016,-0.069 4.969,0.69 5.751,2.332 0.925,1.944 -1.37,3.007 -3.213,3.897 -1.443,0.697 -2.427,1.061 -2.19,1.762 0.28,0.83 1.731,1.145 3.046,1.115 0.665,-0.016 1.138,-0.101 1.679,-0.226"
                 style="fill:#ffffff;fill-opacity:1;fill-rule:nonzero;stroke:none;stroke-width:0.2656621"
                 id="path150"
                 inkscape:connector-curvature="0" />
            </g>
          </g>
        </g>
      </g>
      <g
         id="flowRoot4173"
         style="font-style:normal;font-weight:normal;font-size:10.8888731px;line-height:125%;font-family:sans-serif;letter-spacing:0px;word-spacing:0px;fill:#3b3b3b;fill-opacity:1;stroke:none;stroke-width:1px;stroke-linecap:butt;stroke-linejoin:miter;stroke-opacity:1"
         transform="matrix(0.98577684,0,0,0.98577684,63.448704,-177.64134)">
        <path
           id="path4182"
           style="font-style:normal;font-variant:normal;font-weight:300;font-stretch:normal;font-size:174.2219696px;font-family:Avenir;-inkscape-font-specification:'Avenir Light';letter-spacing:-4.05771351px;fill:#3b3b3b;fill-opacity:1"
           d="m 819.91125,1121.2655 11.49865,0 0,54.3572 68.9919,0 0,-54.3572 11.49865,0 0,123.3491 -11.49865,0 0,-58.5386 -68.9919,0 0,58.5386 -11.49865,0 0,-123.3491 z"
           inkscape:connector-curvature="0" />
        <path
           id="path4184"
           style="font-style:normal;font-variant:normal;font-weight:300;font-stretch:normal;font-size:174.2219696px;font-family:Avenir;-inkscape-font-specification:'Avenir Light';letter-spacing:-4.05771351px;fill:#3b3b3b;fill-opacity:1"
           d="m 979.5623,1121.2655 11.84709,0 51.91811,123.3491 -12.8924,0 -13.4151,-32.7537 -65.33322,0 -13.93776,32.7537 -12.02131,0 53.83459,-123.3491 z m 5.40088,12.544 -28.74663,67.5981 56.62215,0 -27.87552,-67.5981 z"
           inkscape:connector-curvature="0" />
        <path
           id="path4186"
           style="font-style:normal;font-variant:normal;font-weight:300;font-stretch:normal;font-size:174.2219696px;font-family:Avenir;-inkscape-font-specification:'Avenir Light';letter-spacing:-4.05771351px;fill:#3b3b3b;fill-opacity:1"
           d="m 1144.7694,1197.4005 q 0,9.9306 -2.2649,18.9902 -2.2649,9.0595 -7.6658,16.0284 -5.2266,6.9689 -13.9377,11.1502 -8.5369,4.1813 -21.0809,4.1813 -12.544,0 -21.2551,-4.1813 -8.5368,-4.1813 -13.9377,-11.1502 -5.2267,-6.9689 -7.4916,-16.0284 -2.2648,-9.0596 -2.2648,-18.9902 l 0,-76.135 11.4986,0 0,73.1732 q 0,6.6204 1.2196,14.112 1.2195,7.4915 4.7039,13.9377 3.6587,6.4463 10.1049,10.6276 6.6205,4.1813 17.4222,4.1813 10.8018,0 17.248,-4.1813 6.6204,-4.1813 10.1049,-10.6276 3.6586,-6.4462 4.8782,-13.9377 1.2195,-7.4916 1.2195,-14.112 l 0,-73.1732 11.4987,0 0,76.135 z"
           inkscape:connector-curvature="0" />
        <path
           id="path4188"
           style="font-style:normal;font-variant:normal;font-weight:300;font-stretch:normal;font-size:174.2219696px;font-family:Avenir;-inkscape-font-specification:'Avenir Light';letter-spacing:-4.05771351px;fill:#3b3b3b;fill-opacity:1"
           d="m 1199.5279,1131.7188 -42.1617,0 0,-10.4533 95.8221,0 0,10.4533 -42.1617,0 0,112.8958 -11.4987,0 0,-112.8958 z"
           inkscape:connector-curvature="0" />
        <path
           id="path4190"
           style="font-style:normal;font-variant:normal;font-weight:300;font-stretch:normal;font-size:174.2219696px;font-family:Avenir;-inkscape-font-specification:'Avenir Light';letter-spacing:-4.05771351px;fill:#3b3b3b;fill-opacity:1"
           d="m 1271.4691,1221.7916 q 4.5298,7.8399 11.6729,11.6728 7.3173,3.8329 16.551,3.8329 5.7494,0 10.8018,-1.7422 5.0524,-1.7422 8.7111,-4.8782 3.8329,-3.136 5.9236,-7.4916 2.2648,-4.5297 2.2648,-10.1048 0,-6.4463 -2.7875,-10.6276 -2.6133,-4.1813 -7.1431,-6.7946 -4.5298,-2.7876 -10.2791,-4.704 -5.5751,-1.9165 -11.6729,-3.8329 -5.9235,-1.9165 -11.6729,-4.3556 -5.5751,-2.4391 -10.1048,-6.272 -4.5298,-4.0071 -7.3174,-9.9306 -2.6133,-5.9236 -2.6133,-14.6347 0,-8.1884 3.136,-14.4604 3.3102,-6.4462 8.7111,-10.6275 5.5751,-4.3556 12.7182,-6.4462 7.1431,-2.2649 14.9831,-2.2649 10.1049,0 18.6418,3.6586 8.7111,3.4845 14.983,11.8471 l -9.9306,7.1431 q -4.3556,-6.0977 -10.2791,-9.0595 -5.7493,-3.136 -13.7635,-3.136 -5.5751,0 -10.6276,1.568 -5.0524,1.3938 -8.8853,4.3555 -3.6587,2.7876 -5.9235,7.1431 -2.2649,4.3556 -2.2649,10.2791 0,9.2338 4.704,14.2862 4.704,4.8783 11.6728,7.84 7.1431,2.7876 15.3316,5.0525 8.3626,2.0906 15.3315,5.7493 7.1431,3.6587 11.8471,10.2791 4.704,6.4462 4.704,17.9449 0,8.3626 -3.136,14.8088 -3.136,6.4462 -8.5369,10.976 -5.2266,4.3556 -12.1955,6.6204 -6.9689,2.2649 -14.4604,2.2649 -12.1956,0 -22.4747,-4.1813 -10.2791,-4.3555 -17.5964,-14.4604 l 10.976,-7.3173 z"
           inkscape:connector-curvature="0" />
        <path
           id="path4192"
           style="font-style:normal;font-variant:normal;font-weight:300;font-stretch:normal;font-size:174.2219696px;font-family:Avenir;-inkscape-font-specification:'Avenir Light';letter-spacing:-4.05771351px;fill:#3b3b3b;fill-opacity:1"
           d="m 1351.6722,1198.62 43.0328,0 0,9.408 -43.0328,0 0,-9.408 z"
           inkscape:connector-curvature="0" />
        <path
           id="path4194"
           style="font-style:normal;font-variant:normal;font-weight:300;font-stretch:normal;font-size:174.2219696px;font-family:Avenir;-inkscape-font-specification:'Avenir Light';letter-spacing:-4.05771351px;fill:#3b3b3b;fill-opacity:1"
           d="m 1413.3016,1121.2655 38.1546,0 q 16.0285,0 27.1787,4.0071 11.1502,3.8329 18.4675,9.9306 7.4915,6.0978 11.6729,13.5893 4.3555,7.3174 6.272,14.112 2.0906,6.7947 2.6133,12.3698 0.5227,5.4009 0.5227,7.6658 0,2.2648 -0.5227,7.8399 -0.5227,5.4009 -2.6133,12.1956 -1.9165,6.7946 -6.272,14.2862 -4.1814,7.3173 -11.6729,13.4151 -7.3173,6.0977 -18.4675,10.1048 -11.1502,3.8329 -27.1787,3.8329 l -38.1546,0 0,-123.3491 z m 11.4987,112.8958 23.6942,0 q 12.1955,0 22.823,-2.9618 10.6276,-3.136 18.4676,-9.4079 7.84,-6.272 12.3697,-15.8542 4.5298,-9.7565 4.5298,-22.9973 0,-13.2409 -4.5298,-22.8231 -4.5297,-9.7565 -12.3697,-16.0284 -7.84,-6.272 -18.4676,-9.2338 -10.6275,-3.136 -22.823,-3.136 l -23.6942,0 0,102.4425 z"
           inkscape:connector-curvature="0" />
        <path
           id="path4196"
           style="font-style:normal;font-variant:normal;font-weight:300;font-stretch:normal;font-size:174.2219696px;font-family:Avenir;-inkscape-font-specification:'Avenir Light';letter-spacing:-4.05771351px;fill:#3b3b3b;fill-opacity:1"
           d="m 1539.777,1121.2655 75.4381,0 0,10.4533 -63.9395,0 0,43.9039 59.9324,0 0,10.4533 -59.9324,0 0,48.0853 66.727,0 0,10.4533 -78.2256,0 0,-123.3491 z"
           inkscape:connector-curvature="0" />
        <path
           id="path4198"
           style="font-style:normal;font-variant:normal;font-weight:300;font-stretch:normal;font-size:174.2219696px;font-family:Avenir;-inkscape-font-specification:'Avenir Light';letter-spacing:-4.05771351px;fill:#3b3b3b;fill-opacity:1"
           d="m 1629.7556,1198.62 43.0328,0 0,9.408 -43.0328,0 0,-9.408 z"
           inkscape:connector-curvature="0" />
        <path
           id="path4200"
           style="font-style:normal;font-variant:normal;font-weight:300;font-stretch:normal;font-size:174.2219696px;font-family:Avenir;-inkscape-font-specification:'Avenir Light';letter-spacing:-4.05771351px;fill:#3b3b3b;fill-opacity:1"
           d="m 1692.953,1121.2655 73.8701,0 0,10.4533 -62.3715,0 0,43.9039 58.016,0 0,10.4533 -58.016,0 0,58.5386 -11.4986,0 0,-123.3491 z"
           inkscape:connector-curvature="0" />
        <path
           id="path4202"
           style="font-style:normal;font-variant:normal;font-weight:300;font-stretch:normal;font-size:174.2219696px;font-family:Avenir;-inkscape-font-specification:'Avenir Light';letter-spacing:-4.05771351px;fill:#3b3b3b;fill-opacity:1"
           d="m 1797.373,1175.6227 24.391,0 q 9.0596,0 14.6347,-2.2649 5.7493,-2.2648 8.8853,-5.5751 3.136,-3.3102 4.1813,-7.1431 1.2196,-3.8328 1.2196,-6.9688 0,-3.136 -1.2196,-6.9689 -1.0453,-3.8329 -4.1813,-7.1431 -3.136,-3.3102 -8.8853,-5.5751 -5.5751,-2.2649 -14.6347,-2.2649 l -24.391,0 0,43.9039 z m -11.4987,-54.3572 32.4053,0 q 2.4391,0 6.6204,0.1742 4.1814,0.1742 9.0596,1.0453 4.8782,0.8711 9.9306,2.7876 5.0525,1.9164 9.0596,5.5751 4.0071,3.6586 6.6204,9.2338 2.6133,5.5751 2.6133,13.5893 0,8.8853 -3.1359,14.6346 -2.9618,5.7493 -7.6658,9.408 -4.5298,3.4844 -10.1049,5.2267 -5.5751,1.7422 -10.6275,2.4391 l 35.8897,59.2354 -13.0667,0 -34.6701,-58.5386 -21.4293,0 0,58.5386 -11.4987,0 0,-123.3491 z"
           inkscape:connector-curvature="0" />
        <path
           id="path4204"
           style="font-style:normal;font-variant:normal;font-weight:300;font-stretch:normal;font-size:174.2219696px;font-family:Avenir;-inkscape-font-specification:'Avenir Light';letter-spacing:-4.05771351px;fill:#3b3b3b;fill-opacity:1"
           d="m 1923.067,1121.2655 11.8471,0 51.9182,123.3491 -12.8925,0 -13.415,-32.7537 -65.3333,0 -13.9377,32.7537 -12.0214,0 53.8346,-123.3491 z m 5.4009,12.544 -28.7466,67.5981 56.6221,0 -27.8755,-67.5981 z"
           inkscape:connector-curvature="0" />
        <path
           id="path4206"
           style="font-style:normal;font-variant:normal;font-weight:300;font-stretch:normal;font-size:174.2219696px;font-family:Avenir;-inkscape-font-specification:'Avenir Light';letter-spacing:-4.05771351px;fill:#3b3b3b;fill-opacity:1"
           d="m 2000.6405,1121.2655 14.8089,0 75.0896,108.0176 0.3485,0 0,-108.0176 11.4986,0 0,123.3491 -14.8088,0 -75.0897,-108.0176 -0.3485,0 0,108.0176 -11.4986,0 0,-123.3491 z"
           inkscape:connector-curvature="0" />
        <path
           id="path4208"
           style="font-style:normal;font-variant:normal;font-weight:300;font-stretch:normal;font-size:174.2219696px;font-family:Avenir;-inkscape-font-specification:'Avenir Light';letter-spacing:-4.05771351px;fill:#3b3b3b;fill-opacity:1"
           d="m 2233.9248,1225.276 q -8.8853,12.0213 -20.5582,17.248 -11.6729,5.2266 -25.2622,5.2266 -14.112,0 -25.9591,-4.704 -11.6728,-4.8782 -20.0355,-13.4151 -8.3626,-8.7111 -13.0666,-20.5582 -4.704,-12.0213 -4.704,-26.1332 0,-14.112 4.704,-25.9591 4.704,-11.8471 13.0666,-20.384 8.3627,-8.7111 20.0355,-13.5893 11.8471,-4.8782 25.9591,-4.8782 12.544,0 23.3458,4.5298 10.9759,4.3555 19.1644,14.8088 l -9.408,7.84 q -5.7493,-8.7111 -14.8089,-12.7182 -8.8853,-4.0071 -18.2933,-4.0071 -12.0213,0 -21.7777,4.1813 -9.5822,4.1814 -16.3769,11.4987 -6.7946,7.3173 -10.4533,17.248 -3.6587,9.9306 -3.6587,21.4293 0,11.4986 3.6587,21.4293 3.6587,9.9306 10.4533,17.2479 6.7947,7.3174 16.3769,11.4987 9.7564,4.1813 21.7777,4.1813 4.704,0 9.7564,-1.0453 5.0525,-1.2196 9.7565,-3.4845 4.8782,-2.4391 9.2337,-5.9235 4.3556,-3.6587 7.6658,-8.7111 l 9.408,7.1431 z"
           inkscape:connector-curvature="0" />
        <path
           id="path4210"
           style="font-style:normal;font-variant:normal;font-weight:300;font-stretch:normal;font-size:174.2219696px;font-family:Avenir;-inkscape-font-specification:'Avenir Light';letter-spacing:-4.05771351px;fill:#3b3b3b;fill-opacity:1"
           d="m 2251.1359,1121.2655 75.4381,0 0,10.4533 -63.9395,0 0,43.9039 59.9324,0 0,10.4533 -59.9324,0 0,48.0853 66.727,0 0,10.4533 -78.2256,0 0,-123.3491 z"
           inkscape:connector-curvature="0" />
      </g>
    </g>
  </g>
</svg>
