<?xml version="1.0" encoding="UTF-8" standalone="no"?>
<!-- Created with Inkscape (http://www.inkscape.org/) -->
<svg
   xmlns:dc="http://purl.org/dc/elements/1.1/"
   xmlns:cc="http://creativecommons.org/ns#"
   xmlns:rdf="http://www.w3.org/1999/02/22-rdf-syntax-ns#"
   xmlns:svg="http://www.w3.org/2000/svg"
   xmlns="http://www.w3.org/2000/svg"
   xmlns:xlink="http://www.w3.org/1999/xlink"
   xmlns:sodipodi="http://sodipodi.sourceforge.net/DTD/sodipodi-0.dtd"
   xmlns:inkscape="http://www.inkscape.org/namespaces/inkscape"
   width="606.69153"
   height="800.64075"
   id="svg2"
   sodipodi:version="0.32"
   inkscape:version="0.46"
   sodipodi:docname="Transilien.svg"
   inkscape:output_extension="org.inkscape.output.svg.inkscape"
   version="1.0">
  <defs
     id="defs4">
    <linearGradient
       id="linearGradient3511">
      <stop
         id="stop3513"
         offset="0"
         style="stop-color:#881868;stop-opacity:1;" />
      <stop
         style="stop-color:#ad0b6a;stop-opacity:1;"
         offset="0.20028181"
         id="stop3515" />
      <stop
         id="stop3517"
         offset="0.55099988"
         style="stop-color:#c60535;stop-opacity:1;" />
      <stop
         id="stop3519"
         offset="1"
         style="stop-color:#e00000;stop-opacity:1;" />
    </linearGradient>
    <filter
       inkscape:collect="always"
       id="filter3646">
      <feGaussianBlur
         inkscape:collect="always"
         stdDeviation="2.3181348"
         id="feGaussianBlur3648" />
    </filter>
    <linearGradient
       inkscape:collect="always"
       xlink:href="#linearGradient3511"
       id="linearGradient3666"
       gradientUnits="userSpaceOnUse"
       gradientTransform="translate(8.0812204,-405.64188)"
       x1="306.43347"
       y1="91.366501"
       x2="627.00317"
       y2="91.366501" />
    <filter
       inkscape:collect="always"
       id="filter4212">
      <feGaussianBlur
         inkscape:collect="always"
         stdDeviation="0.6033068"
         id="feGaussianBlur4214" />
    </filter>
    <filter
       inkscape:collect="always"
       id="filter4216">
      <feGaussianBlur
         inkscape:collect="always"
         stdDeviation="0.6033068"
         id="feGaussianBlur4218" />
    </filter>
    <filter
       inkscape:collect="always"
       id="filter4220">
      <feGaussianBlur
         inkscape:collect="always"
         stdDeviation="0.6033068"
         id="feGaussianBlur4222" />
    </filter>
    <filter
       inkscape:collect="always"
       id="filter4224"
       x="-0.023946967"
       width="1.0478939"
       y="-0.37539119"
       height="1.7507824">
      <feGaussianBlur
         inkscape:collect="always"
         stdDeviation="0.6033068"
         id="feGaussianBlur4226" />
    </filter>
    <linearGradient
       inkscape:collect="always"
       xlink:href="#linearGradient3511"
       id="linearGradient4250"
       gradientUnits="userSpaceOnUse"
       gradientTransform="translate(8.0812204,-405.64188)"
       x1="306.43347"
       y1="91.366501"
       x2="627.00317"
       y2="91.366501" />
    <filter
       inkscape:collect="always"
       id="filter4284"
       x="-0.044472937"
       width="1.0889459"
       y="-0.69715506"
       height="2.39431">
      <feGaussianBlur
         inkscape:collect="always"
         stdDeviation="1.1204269"
         id="feGaussianBlur4286" />
    </filter>
    <filter
       inkscape:collect="always"
       id="filter4288">
      <feGaussianBlur
         inkscape:collect="always"
         stdDeviation="1.1204269"
         id="feGaussianBlur4290" />
    </filter>
    <filter
       inkscape:collect="always"
       id="filter4292">
      <feGaussianBlur
         inkscape:collect="always"
         stdDeviation="1.1204269"
         id="feGaussianBlur4294" />
    </filter>
    <filter
       inkscape:collect="always"
       id="filter4296">
      <feGaussianBlur
         inkscape:collect="always"
         stdDeviation="1.1204269"
         id="feGaussianBlur4298" />
    </filter>
  </defs>
  <sodipodi:namedview
     id="base"
     pagecolor="#ffffff"
     bordercolor="#666666"
     borderopacity="1.0"
     inkscape:pageopacity="0.0"
     inkscape:pageshadow="2"
     inkscape:zoom="0.24748737"
     inkscape:cx="300.76452"
     inkscape:cy="653.18534"
     inkscape:document-units="px"
     inkscape:current-layer="layer1"
     showgrid="false"
     inkscape:window-width="1280"
     inkscape:window-height="750"
     inkscape:window-x="-8"
     inkscape:window-y="-8" />
  <metadata
     id="metadata7">
    <rdf:RDF>
      <cc:Work
         rdf:about="">
        <dc:format>image/svg+xml</dc:format>
        <dc:type
           rdf:resource="http://purl.org/dc/dcmitype/StillImage" />
      </cc:Work>
    </rdf:RDF>
  </metadata>
  <g
     inkscape:label="Calque 1"
     inkscape:groupmode="layer"
     id="layer1"
     transform="translate(-64.349767,-94.437566)">
    <g
       id="g4238"
       transform="translate(-5.0507633,1248.5485)">
      <path
         sodipodi:nodetypes="ccccsssssssssssssccssssssssssssssssc"
         style="fill:#49ac42;fill-opacity:1;stroke:#49ac42;stroke-opacity:1"
         d="M 118.51024,-511.13431 C 118.19439,-511.64537 125.16799,-537.50926 134.00712,-568.60963 L 150.07828,-625.15574 L 145.97063,-631.20452 C 132.69484,-650.75399 124.92856,-677.178 124.92856,-702.7981 C 124.92856,-759.24253 159.32727,-815.64291 226.42856,-869.21828 C 233.02856,-874.48788 249.00356,-885.96146 261.92856,-894.71511 C 401.02455,-988.91998 499.4724,-1067.7318 524.2245,-1104.6944 C 526.37755,-1107.9096 526.97462,-1108.31 527.51513,-1106.9015 C 527.87831,-1105.9551 527.65102,-1093.6125 527.01004,-1079.4736 C 518.39962,-889.54323 463.73281,-743.18001 374.92855,-672.29531 C 350.49782,-652.7944 324.83611,-639.00793 295.93203,-629.85536 C 265.53761,-620.23085 228.77602,-616.04407 194.02183,-618.24878 C 182.7467,-618.96404 176.27256,-619.01048 175.64269,-618.38061 C 175.10787,-617.84579 168.89487,-597.36567 161.83601,-572.86923 C 154.77716,-548.37278 148.12906,-526.62839 147.06247,-524.54836 C 143.90944,-518.39946 136.79276,-513.31741 129.42856,-511.95591 C 121.2793,-510.44927 119.03787,-510.2806 118.51024,-511.13431 z M 298.7612,-690.72854 C 307.95262,-691.97596 318.34465,-699.92747 320.89193,-707.66197 C 321.45426,-709.36945 328.65916,-734.16648 336.90281,-762.76648 C 346.56608,-796.29158 353.12042,-817.25349 355.35086,-821.76648 C 363.06974,-837.3846 377.05224,-849.61249 393.21404,-854.87835 C 400.72919,-857.32695 403.259,-857.60639 422.92855,-858.16065 C 443.89092,-858.75133 444.57182,-858.83684 450.15814,-861.58004 C 456.70796,-864.79639 461.21383,-869.72065 463.35374,-876.00094 C 466.04557,-883.90104 473.13891,-883.26648 382.13729,-883.26648 C 301.57656,-883.26648 300.5065,-883.24058 296.26636,-881.18796 C 288.527,-877.4414 279.04508,-864.26759 280.66819,-859.51648 C 280.99785,-858.55151 288.37298,-858.26648 313.01189,-858.26648 C 330.56605,-858.26648 344.92855,-858.04375 344.92855,-857.77152 C 344.92855,-857.49929 342.65894,-854.46179 339.88498,-851.02152 C 333.6598,-843.30105 326.29478,-828.30875 321.58331,-813.76648 C 317.29285,-800.52371 286.92856,-693.5934 286.92856,-691.72697 C 286.92856,-690.25175 289.41884,-689.3995 292.42856,-689.84469 C 293.52856,-690.00741 296.37825,-690.40514 298.7612,-690.72854 z"
         id="path2654" />
      <g
         transform="translate(0,-181.82746)"
         id="g4228">
        <path
           id="path2656"
           d="M 285.53554,-233.51485 C 285.53554,-233.51485 285.53967,-412.52307 285.53967,-412.52307 C 285.53967,-412.52307 349.84243,-414.84795 391.92855,-410.99689 C 486.55152,-402.33849 565.18965,-380.08722 621.07586,-346.15789 C 625.26117,-343.61692 629.2203,-340.89358 629.87392,-340.10602 C 630.82093,-338.96494 627.7727,-328.35237 614.86653,-287.85714 C 605.95885,-259.90782 597.76446,-233.52243 597.76446,-233.52243 C 493.68816,-233.55993 389.61184,-233.53177 285.53554,-233.51485 z"
           style="fill:url(#linearGradient4250);fill-opacity:1"
           sodipodi:nodetypes="cssssscc" />
        <g
           id="g3650"
           transform="translate(206.32365,-195.96959)">
          <path
             style="opacity:1;fill:#000000;fill-opacity:1;fill-rule:nonzero;stroke:none;stroke-width:8;stroke-linejoin:miter;stroke-miterlimit:4;stroke-dasharray:none;stroke-dashoffset:0;stroke-opacity:1;filter:url(#filter3646)"
             d="M 94.901634,-64.464638 L 99.21062,-74.753008 C 107.57985,-70.116188 162.39481,-66.665058 154.56828,-88.748988 C 150.32193,-100.73079 103.65012,-98.359248 108.64659,-121.85208 C 118.19447,-142.389 150.97398,-142.44373 169.64024,-141.38199 C 178.44424,-140.34034 182.29978,-139.60004 186.81283,-138.08464 C 213.75414,-129.20159 223.74982,-104.76933 231.15696,-86.372198 C 231.15696,-86.372198 242.95878,-140.72373 242.95878,-140.72373 L 257.90741,-141.32815 L 252.20394,-113.92075 C 253.48262,-115.3866 255.9421,-118.12074 256.93048,-119.79295 C 270.19795,-136.8028 293.97309,-139.87814 314.21832,-141.578 C 319.67063,-141.84011 319.90043,-141.80995 319.90043,-140.83204 C 318.75047,-138.32541 317.22699,-132.40591 314.60982,-131.95547 C 300.81533,-129.5813 292.20368,-127.87131 281.14338,-121.63018 C 266.08578,-112.04786 262.71159,-91.346938 278.47282,-80.718998 C 289.80985,-73.254218 301.92523,-70.237558 314.28332,-73.260148 C 314.28332,-73.260148 329.65207,-140.60662 329.65207,-140.60662 C 330.26327,-141.21783 336.70799,-141.32815 365.86643,-141.32815 L 400.28784,-141.32815 L 399.94559,-139.77 C 399.46436,-137.57896 396.48203,-131.23142 395.23113,-130.17687 C 395.23113,-130.17687 343.31985,-130.10868 343.31985,-130.10868 L 338.48652,-107.48804 C 338.48652,-107.48804 381.01466,-107.54932 381.01466,-107.54932 C 379.31986,-103.83327 378.6793,-97.910708 375.31089,-95.270898 C 375.31089,-95.270898 335.15925,-95.239938 335.15925,-95.239938 C 335.15925,-95.239938 328.99181,-68.832878 328.99181,-68.832878 C 328.99181,-67.827568 326.43509,-64.556558 325.42978,-64.556558 C 307.39537,-54.771898 254.005,-61.310628 247.13477,-90.859118 C 247.13477,-90.859118 241.2415,-61.708388 241.2415,-61.708388 C 241.2415,-61.708388 225.35926,-61.582118 225.35926,-61.582118 C 217.11112,-84.310128 205.36523,-109.42993 188.05441,-126.68094 C 188.05441,-126.68094 182.27975,-95.452868 182.27975,-95.452868 C 178.56008,-96.464468 170.98476,-104.49305 170.42324,-108.0702 C 170.42324,-108.0702 176.45877,-137.79262 176.45877,-137.79262 C 176.18098,-137.79262 175.95369,-137.33805 175.95369,-136.78247 C 175.14989,-134.9294 173.92989,-132.59194 171.6993,-131.93535 C 170.92598,-131.90552 167.24113,-131.68687 163.07425,-131.88598 C 153.29824,-132.2173 143.14541,-133.20419 134.55478,-128.19617 C 130.06565,-125.54541 126.51617,-117.90708 132.06886,-115.21212 C 144.46608,-106.47605 165.02873,-107.77224 174.76497,-95.206898 C 177.5308,-92.169908 177.51694,-89.273518 176.96385,-85.517228 C 171.86463,-57.575868 114.76505,-58.546728 94.901634,-64.464638 z"
             id="path3552"
             sodipodi:nodetypes="ccsccccccccccsccccccccccccccccccccsccccccccc" />
          <path
             sodipodi:nodetypes="ccsccccccccccsccccccccccccccccccccsccccccccc"
             id="path3549"
             d="M 96.901634,-66.464638 L 101.21062,-76.753008 C 109.57985,-72.116188 164.39481,-68.665058 156.56828,-90.748988 C 152.32193,-102.73079 105.65012,-100.35925 110.64659,-123.85208 C 120.19447,-144.389 152.97398,-144.44373 171.64024,-143.38199 C 180.44424,-142.34034 184.29978,-141.60004 188.81283,-140.08464 C 215.75414,-131.20159 225.74982,-106.76933 233.15696,-88.372198 C 233.15696,-88.372198 244.95878,-142.72373 244.95878,-142.72373 L 259.90741,-143.32815 L 254.20394,-115.92075 C 255.48262,-117.3866 257.9421,-120.12074 258.93048,-121.79295 C 272.19795,-138.8028 295.97309,-141.87814 316.21832,-143.578 C 321.67063,-143.84011 321.90043,-143.80995 321.90043,-142.83204 C 320.75047,-140.32541 319.22699,-134.40591 316.60982,-133.95547 C 302.81533,-131.5813 294.20368,-129.87131 283.14338,-123.63018 C 268.08578,-114.04786 264.71159,-93.346938 280.47282,-82.718998 C 291.80985,-75.254218 303.92523,-72.237558 316.28332,-75.260148 C 316.28332,-75.260148 331.65207,-142.60662 331.65207,-142.60662 C 332.26327,-143.21783 338.70799,-143.32815 367.86643,-143.32815 L 402.28784,-143.32815 L 401.94559,-141.77 C 401.46436,-139.57896 398.48203,-133.23142 397.23113,-132.17687 C 397.23113,-132.17687 345.31985,-132.10868 345.31985,-132.10868 L 340.48652,-109.48804 C 340.48652,-109.48804 383.01466,-109.54932 383.01466,-109.54932 C 381.31986,-105.83327 380.6793,-99.910708 377.31089,-97.270898 C 377.31089,-97.270898 337.15925,-97.239938 337.15925,-97.239938 C 337.15925,-97.239938 330.99181,-70.832878 330.99181,-70.832878 C 330.99181,-69.827568 328.43509,-66.556558 327.42978,-66.556558 C 309.39537,-56.771898 256.005,-63.310628 249.13477,-92.859118 C 249.13477,-92.859118 243.2415,-63.708388 243.2415,-63.708388 C 243.2415,-63.708388 227.35926,-63.582118 227.35926,-63.582118 C 219.11112,-86.310128 207.36523,-111.42993 190.05441,-128.68094 C 190.05441,-128.68094 184.27975,-97.452868 184.27975,-97.452868 C 180.56008,-98.464468 172.98476,-106.49305 172.42324,-110.0702 C 172.42324,-110.0702 178.45877,-139.79262 178.45877,-139.79262 C 178.18098,-139.79262 177.95369,-139.33805 177.95369,-138.78247 C 177.14989,-136.9294 175.92989,-134.59194 173.6993,-133.93535 C 172.92598,-133.90552 169.24113,-133.68687 165.07425,-133.88598 C 155.29824,-134.2173 145.14541,-135.20419 136.55478,-130.19617 C 132.06565,-127.54541 128.51617,-119.90708 134.06886,-117.21212 C 146.46608,-108.47605 167.02873,-109.77224 176.76497,-97.206898 C 179.5308,-94.169908 179.51694,-91.273518 178.96385,-87.517228 C 173.86463,-59.575868 116.76505,-60.546728 96.901634,-66.464638 z"
             style="opacity:1;fill:#ffffff;fill-opacity:1;fill-rule:nonzero;stroke:none;stroke-width:8;stroke-linejoin:miter;stroke-miterlimit:4;stroke-dasharray:none;stroke-dashoffset:0;stroke-opacity:1" />
        </g>
        <path
           style="opacity:0.5;fill:#a8a8a8;fill-opacity:1;fill-rule:evenodd;stroke:#a4a4a4;stroke-width:0.60000002;stroke-linecap:butt;stroke-linejoin:miter;stroke-miterlimit:4;stroke-dasharray:none;stroke-opacity:1;filter:url(#filter4296)"
           d="M 381.00644,-281.39679 C 381.00651,-289.1214 374.11638,-295.32692 359.93501,-299.78965 C 349.0784,-303.20611 336.20912,-306.2692 334.06382,-314.2756 C 340.52068,-307.69648 348.25748,-304.7184 361.76088,-301.05282 C 370.36335,-298.71763 381.32828,-294.42935 380.98535,-281.38642"
           id="path3746"
           sodipodi:nodetypes="cscsc" />
        <path
           style="opacity:0.5;fill:#a8a8a8;fill-opacity:1;fill-rule:evenodd;stroke:#a8a8a8;stroke-width:1px;stroke-linecap:butt;stroke-linejoin:miter;stroke-opacity:1;filter:url(#filter4292)"
           d="M 399.07785,-332.62138 C 399.07785,-332.62138 424.50976,-319.90147 437.88644,-275.15425 L 437.73644,-282.83135 C 437.73644,-282.83135 424.61155,-323.83278 399.07785,-332.62138 z"
           id="path3856"
           sodipodi:nodetypes="cs" />
        <path
           style="opacity:0.5;fill:#a8a8a8;fill-opacity:1;fill-rule:evenodd;stroke:#a8a8a8;stroke-width:1px;stroke-linecap:butt;stroke-linejoin:miter;stroke-opacity:1;filter:url(#filter4288)"
           d="M 473.19518,-297.67117 C 473.19518,-297.67117 471.82912,-265.36085 520.2696,-266.53709 L 520.21901,-263.49654 C 520.21901,-263.49654 471.20399,-261.82647 473.19518,-297.67117 z"
           id="path3870" />
        <path
           style="opacity:0.5;fill:#a8a8a8;fill-opacity:1;fill-rule:evenodd;stroke:#a8a8a8;stroke-width:1px;stroke-linecap:butt;stroke-linejoin:miter;stroke-opacity:1;filter:url(#filter4284)"
           d="M 543.57143,-336.65568 L 603.03572,-337.45925 L 601.69643,-334.60211 L 543.57143,-336.65568 z"
           id="path3874" />
      </g>
    </g>
  </g>
</svg>
