<?xml version="1.0" encoding="UTF-8"?>
<svg version="1.1" xmlns="http://www.w3.org/2000/svg" width="1999" height="679">
<path d="M0 0 C659.67 0 1319.34 0 1999 0 C1999 224.07 1999 448.14 1999 679 C1339.33 679 679.66 679 0 679 C0 454.93 0 230.86 0 0 Z " fill="#27C0FF" transform="translate(0,0)"/>
<path d="M0 0 C659.67 0 1319.34 0 1999 0 C1999 224.07 1999 448.14 1999 679 C1809.25 679 1619.5 679 1424 679 C1424 678.67 1424 678.34 1424 678 C1425.02432129 677.89510254 1425.02432129 677.89510254 1426.06933594 677.78808594 C1445.81428007 675.7309075 1465.02603126 673.00014509 1484 667 C1485.1454126 666.64663574 1485.1454126 666.64663574 1486.31396484 666.28613281 C1518.7369949 656.23316453 1547.59467133 640.55387981 1573 618 C1574.485 616.69869141 1574.485 616.69869141 1576 615.37109375 C1581.43093322 610.53785834 1586.3866064 605.61039418 1591 600 C1591.96443552 598.87074497 1592.92932263 597.74187555 1593.89453125 596.61328125 C1622.90931214 562.27561331 1639.62228764 520.0664706 1646.875 476 C1647.07843018 474.77321533 1647.28186035 473.54643066 1647.49145508 472.2824707 C1648.50391123 465.70786924 1649.19413366 459.19660185 1649.54919338 452.55799294 C1649.59152486 451.7749002 1649.63385634 450.99180747 1649.67747059 450.18498466 C1650.07806947 442.27230141 1650.15323472 434.36864939 1650.15821838 426.44711304 C1650.16280097 424.86827747 1650.16780337 423.28944308 1650.17318195 421.71061003 C1650.18657966 417.43008443 1650.19412708 413.14956661 1650.20060861 408.86902571 C1650.20869475 404.23125278 1650.22236353 399.59349567 1650.23532104 394.95573425 C1650.25696865 386.93969602 1650.27515527 378.92365609 1650.29092598 370.90760422 C1650.31373229 359.31803623 1650.34185956 347.72848585 1650.37124526 336.1389329 C1650.4187901 317.33123651 1650.46208937 298.52353289 1650.50268555 279.71582031 C1650.54210747 261.45637449 1650.5835495 243.19693507 1650.62768555 224.9375 C1650.63040982 223.8101577 1650.63313409 222.6828154 1650.63594092 221.52131121 C1650.6496215 215.86521954 1650.66334155 210.20912797 1650.67708123 204.55303645 C1650.79083984 157.70203771 1650.89769429 110.85102506 1651 64 C1650.40115997 64.07055603 1649.80231995 64.14111206 1649.18533325 64.21380615 C1648.38956879 64.30534973 1647.59380432 64.39689331 1646.77392578 64.49121094 C1645.98946075 64.58239197 1645.20499573 64.673573 1644.39675903 64.76751709 C1642.12995567 64.98739445 1639.89343268 65.09425733 1637.6171875 65.140625 C1600.04416114 65.91865836 1561.43234076 74.58395384 1532 99 C1531.18660156 99.66644531 1530.37320312 100.33289063 1529.53515625 101.01953125 C1507.23642877 120.0885509 1497.44383948 147.51205149 1495.18782306 176.01596713 C1494.56235524 185.95306723 1494.71770044 195.92919554 1494.72875977 205.88110352 C1494.72436282 208.52627657 1494.71916584 211.17143646 1494.71292114 213.81660461 C1494.70098205 219.47150252 1494.69577391 225.12637249 1494.69503975 230.78128242 C1494.69370304 238.96891399 1494.67849744 247.1564786 1494.65954458 255.34408628 C1494.6288365 268.64971133 1494.60460612 281.95533806 1494.58666992 295.26098633 C1494.58559724 296.05425687 1494.58452456 296.84752741 1494.58341938 297.66483646 C1494.57158484 306.52612886 1494.56137684 315.38742194 1494.55297852 324.24871826 C1494.54990376 327.46993003 1494.5468151 330.69114178 1494.54370117 333.91235352 C1494.54255316 335.10487587 1494.54255316 335.10487587 1494.54138196 336.32148958 C1494.52828518 349.59420007 1494.50363422 362.86686135 1494.46995777 376.13953537 C1494.44973159 384.30496953 1494.4393695 392.47029833 1494.44194698 400.63575774 C1494.4431076 406.88832087 1494.42891675 413.14076338 1494.40913773 419.39329338 C1494.4035471 421.95103736 1494.40304478 424.50879844 1494.40807533 427.06654358 C1494.41423403 430.56506245 1494.4019536 434.06306468 1494.38526917 437.5615387 C1494.39148098 438.56641109 1494.3976928 439.57128348 1494.40409285 440.60660654 C1494.22406582 461.4065441 1483.20359684 481.34483027 1469 496 C1450.15865114 514.05098104 1426.23993305 523.65464569 1400.1875 523.4375 C1398.87160889 523.42775146 1397.55571777 523.41800293 1396.19995117 523.40795898 C1369.48850517 522.92187691 1347.43647983 512.02999824 1328.65844727 493.14941406 C1318.54788518 482.53186878 1310.13340202 468.36142594 1307 454 C1306.83423368 453.28209164 1306.66846735 452.56418327 1306.4976778 451.82452011 C1304.36614623 441.18493758 1304.73042501 430.46384141 1304.76049805 419.66503906 C1304.75938361 417.40979957 1304.75732337 415.15456038 1304.75439453 412.89932251 C1304.7496874 408.0573591 1304.75077714 403.21544427 1304.75617027 398.37348175 C1304.76382384 390.68496762 1304.75307202 382.99654551 1304.7389679 375.30804443 C1304.7203706 364.49768193 1304.7051113 353.68732837 1304.6965332 342.87695312 C1304.69571111 341.85001727 1304.69571111 341.85001727 1304.69487242 340.80233523 C1304.68645157 329.76048131 1304.68973305 318.71865193 1304.69568755 307.6767979 C1304.70135225 296.27663698 1304.68723888 284.87663041 1304.65813476 273.47649932 C1304.64268716 267.10171125 1304.63625319 260.72721658 1304.65271568 254.35242462 C1304.78156359 200.95769843 1301.59721601 147.24107144 1262.04296875 106.921875 C1249.76413403 94.89909554 1234.68077387 86.75776214 1219 80 C1217.90300781 79.50757812 1216.80601563 79.01515625 1215.67578125 78.5078125 C1197.49891115 71.03439552 1176.99757541 67.90050375 1157.4921875 66.32421875 C1154 66 1154 66 1152.18780124 65.4876014 C1149.26024329 64.83512835 1146.50285555 64.87457637 1143.50299263 64.87415886 C1142.52226017 64.8719787 1142.52226017 64.8719787 1141.52171493 64.86975449 C1139.32151109 64.86609277 1137.12137647 64.86958177 1134.9211731 64.87301636 C1133.33140047 64.87186459 1131.74162811 64.87027669 1130.1518563 64.86828911 C1125.77550604 64.86410302 1121.3991775 64.86618331 1117.02282715 64.86927533 C1112.30547435 64.8715323 1107.58812536 64.8680482 1102.87077332 64.86529541 C1093.62357558 64.8608409 1084.37638595 64.86181307 1075.1291879 64.86470805 C1067.60985582 64.86696469 1060.09052601 64.86727346 1052.5711937 64.86618423 C1051.50171298 64.866031 1050.43223226 64.86587777 1049.33034303 64.86571989 C1047.1577104 64.86540017 1044.98507778 64.86507595 1042.81244515 64.8647473 C1022.41957978 64.86189309 1002.02671889 64.8651779 981.63385426 64.87054767 C964.14945527 64.87500926 946.66506293 64.87424499 929.18066406 64.86962891 C908.87721201 64.86427107 888.5737639 64.86217452 868.27031124 64.86524117 C866.10252881 64.86555971 863.93474639 64.86587408 861.76696396 64.86618423 C860.70040321 64.86633851 859.63384245 64.86649279 858.53496168 64.86665174 C851.03290078 64.86751374 843.5308424 64.86606069 836.02878189 64.86370468 C826.87360384 64.86089278 817.71843436 64.86167396 808.56325729 64.86698543 C803.89527609 64.86960468 799.22730916 64.87065781 794.55932808 64.86733627 C790.27810013 64.86433619 785.99689953 64.86602742 781.71567403 64.87131383 C780.17450518 64.87242235 778.63333398 64.871882 777.09216668 64.86943804 C747.1347114 64.82561188 716.5080029 68.57954088 688.06835938 78.30664062 C685.80025464 79.06695902 683.51958254 79.77717871 681.234375 80.484375 C651.75523417 89.73810703 623.91742636 103.7141749 599 122 C597.95070313 122.75667969 596.90140625 123.51335937 595.8203125 124.29296875 C575.65970323 139.08614308 556.50291989 156.35606646 541 176 C540.04498473 177.16701725 539.08783499 178.33229003 538.12890625 179.49609375 C531.17056712 187.98309965 524.85447716 196.71815304 519 206 C518.62810547 206.5868457 518.25621094 207.17369141 517.87304688 207.77832031 C493.32983535 246.80072806 478.9239898 289.41443624 473 335 C472.87995605 335.8652832 472.75991211 336.73056641 472.63623047 337.62207031 C469.48482571 360.56955714 469.60784627 385.09379986 473 408 C473.16129395 409.10875488 473.32258789 410.21750977 473.48876953 411.35986328 C479.44878711 451.45016916 491.89356782 486.78713565 510 523 C426.51 523 343.02 523 257 523 C258.49335364 519.26661591 259.96021757 516.14438841 261.94921875 512.703125 C262.54186523 511.67558105 263.13451172 510.64803711 263.74511719 509.58935547 C264.38610352 508.48736816 265.02708984 507.38538086 265.6875 506.25 C266.36494665 505.08091383 267.04235483 503.91180536 267.71972656 502.74267578 C273.37984674 492.99250138 279.17112262 483.32280149 284.9921875 473.66796875 C289.08312824 466.87667968 293.12379667 460.05611354 297.16317749 453.23410034 C303.68623611 442.21755799 310.26642182 431.24004817 316.9375 420.3125 C322.28971367 411.54418042 327.50480256 402.71651717 332.56005859 393.77392578 C336.89654413 386.12311583 341.41174898 378.58622493 345.95068359 371.05419922 C351.08390835 362.53492868 356.17560733 353.99191149 361.25 345.4375 C362.05524191 344.08063873 362.86049914 342.72378656 363.66577148 341.36694336 C367.32416944 335.20168761 370.97988961 329.03485421 374.6318512 322.86578369 C376.62855999 319.49325851 378.62651581 316.12147337 380.625 312.75 C381.01740875 312.08784485 381.4098175 311.4256897 381.81411743 310.74346924 C387.80575894 300.63813809 393.88522743 290.58920686 400.00616455 280.5617981 C405.08238059 272.23904187 410.03341204 263.85801363 414.80834961 255.35864258 C418.30166148 249.15030085 421.95616484 243.04401772 425.63085938 236.94213867 C427.9166386 233.14454095 430.18051893 229.33429806 432.4375 225.51953125 C433.18611232 224.2549617 433.93472891 222.99039467 434.68334961 221.72583008 C435.06087372 221.08803619 435.43839783 220.45024231 435.82736206 219.79312134 C442.46064884 208.58929712 449.15271402 197.42521152 455.9375 186.3125 C461.28534099 177.55157756 466.49788071 168.7322022 471.546875 159.79589844 C476.01799627 151.90443032 480.68203544 144.13433607 485.36376953 136.36645508 C489.44341546 129.59740745 493.4892888 122.81010472 497.5 116 C504.59669494 103.95792281 511.79855225 91.97962353 519 80 C523.455 72.575 523.455 72.575 528 65 C353.76 65 179.52 65 0 65 C0 43.55 0 22.1 0 0 Z " fill="#FEFEFE" transform="translate(0,0)"/>
<path d="M0 0 C1.22847656 0.01675781 2.45695313 0.03351563 3.72265625 0.05078125 C41.72554752 1.63612236 78.4399785 23.0090345 104.125 50.125 C132.3012914 80.86064178 144.55214919 121.91274198 143 163 C140.97069237 195.70167428 127.21313001 227.21715566 106 252 C105.30261719 252.81984375 104.60523438 253.6396875 103.88671875 254.484375 C87.5861147 273.13018141 66.47465169 287.93461473 43 296 C42.28730957 296.25023926 41.57461914 296.50047852 40.84033203 296.75830078 C4.98248387 309.32867543 -36.11680427 308.86009416 -71 293 C-71.6482373 292.70609375 -72.29647461 292.4121875 -72.96435547 292.109375 C-89.09298751 284.67689824 -102.89923347 274.93767409 -116 263 C-116.79792969 262.28585937 -117.59585938 261.57171875 -118.41796875 260.8359375 C-130.98549084 248.97805691 -140.24433531 234.30793985 -148 219 C-148.51175781 217.99324219 -149.02351562 216.98648438 -149.55078125 215.94921875 C-150.80419234 213.32986122 -151.92902511 210.69885671 -153 208 C-153.40605469 206.99324219 -153.81210937 205.98648438 -154.23046875 204.94921875 C-163.92379452 178.61319828 -166.33761873 149.35493106 -160 122 C-159.79503906 120.9275 -159.59007812 119.855 -159.37890625 118.75 C-153.72600524 90.66105086 -138.7469625 67.11223347 -120 46 C-119.41992188 45.34644531 -118.83984375 44.69289063 -118.2421875 44.01953125 C-99.53133414 24.22739742 -73.17270761 10.49019571 -47 4 C-45.85015625 3.69449219 -44.7003125 3.38898438 -43.515625 3.07421875 C-29.20176512 -0.5384899 -14.66108334 -0.25119776 0 0 Z " fill="#FEFEFF" transform="translate(788,219)"/>
<path d="M0 0 C-1.10649453 8.87103373 -3.33033503 17.36094924 -5.62231445 25.984375 C-7.26219125 32.16080224 -8.84540329 38.34274698 -10.3125 44.5625 C-10.60024292 45.78126831 -10.60024292 45.78126831 -10.89379883 47.0246582 C-11.59775644 50.01599739 -12.2988508 53.00800126 -13 56 C-14.49592946 62.37596042 -15.99611752 68.75091081 -17.5 75.125 C-17.69789124 75.96414948 -17.89578247 76.80329895 -18.09967041 77.6678772 C-20.36507498 87.26238861 -22.67172812 96.83409952 -25.2578125 106.34814453 C-27.31086031 113.97804895 -29.01965706 121.68586962 -30.77026367 129.38964844 C-32.40684827 136.54924662 -34.18793805 143.64960324 -36.10546875 150.73828125 C-37.90205017 157.45543598 -39.45946429 164.2200789 -41 171 C-42.88431683 179.29290704 -44.88495977 187.52956097 -47.10546875 195.73828125 C-48.90205017 202.45543598 -50.45946429 209.2200789 -52 216 C-53.71239236 223.53626484 -55.4820244 231.0395068 -57.5 238.5 C-59.47229021 245.79542096 -61.20510288 253.12972109 -62.875 260.5 C-64.92631866 269.54493357 -67.13611351 278.53174642 -69.5 287.5 C-71.77548017 296.13693125 -73.91104658 304.78699119 -75.875 313.5 C-78.52940546 325.26351271 -81.50509813 336.9318347 -84.57763672 348.59179688 C-86.77523338 356.97590988 -88.79176478 365.38758012 -90.7109375 373.83984375 C-94.36203787 389.86790217 -98.45131903 405.78216156 -102.52294922 421.70727539 C-104.12355804 427.96886231 -105.72022081 434.23145283 -107.31484604 440.49456596 C-107.86055628 442.63534675 -108.40830885 444.77559641 -108.95632935 446.91578674 C-111.42480223 456.5830754 -113.74435196 466.28093679 -116 476 C-119.37534551 474.35600292 -122.41926028 472.43224425 -125.5625 470.375 C-136.82138809 463.26542167 -149.93692601 457.65655786 -163 455 C-163.90492187 454.79761719 -164.80984375 454.59523438 -165.7421875 454.38671875 C-191.18729139 449.5290171 -215.7406917 454.44821623 -239 465 C-239.99 465.33 -240.98 465.66 -242 466 C-241.33489733 451.6482062 -240.12167724 437.36822759 -238.8125 423.0625 C-238.59073982 420.61306648 -238.36931337 418.16360272 -238.14819336 415.71411133 C-237.73789806 411.17181756 -237.32675946 406.62960251 -236.91426182 402.0875082 C-236.11831282 393.32196714 -235.3308136 384.55568521 -234.546875 375.7890625 C-234.48635767 375.11242302 -234.42584034 374.43578354 -234.36348915 373.73863983 C-234.05487343 370.2878443 -233.74635938 366.83703969 -233.43789673 363.38623047 C-232.80177123 356.27044287 -232.16462855 349.15474635 -231.52734375 342.0390625 C-231.46365789 341.32787514 -231.39997204 340.61668777 -231.33435631 339.88394928 C-230.53266618 330.93217764 -229.72858875 321.98062572 -228.92179871 313.02931213 C-228.32197665 306.37378797 -227.72316507 299.71817326 -227.125 293.0625 C-227.06490376 292.39399143 -227.00480751 291.72548286 -226.94289017 291.03671646 C-225.28283117 272.56487601 -223.65467775 254.09042375 -222.0546875 235.61328125 C-221.97098782 234.6467802 -221.88728813 233.68027916 -221.80105209 232.6844902 C-221.37300736 227.74100853 -220.94516809 222.79750909 -220.51739502 217.85400391 C-220.34493059 215.86100255 -220.17246559 213.86800125 -220 211.875 C-219.91479851 210.89032745 -219.82959702 209.90565491 -219.74181366 208.8911438 C-217.14528816 178.89002595 -214.4611691 148.89886263 -211.66386414 118.91583252 C-211.54920303 117.68677185 -211.43454193 116.45771118 -211.31640625 115.19140625 C-211.20444412 113.99183289 -211.09248199 112.79225952 -210.97712708 111.55633545 C-209.67172455 97.53343941 -208.43099653 83.50481235 -207.20410156 69.47485352 C-207.12889786 68.61875992 -207.05369415 67.76266632 -206.97621155 66.88063049 C-206.83988601 65.32784606 -206.70440316 63.77498724 -206.5700531 62.22203064 C-206.12348239 57.13836119 -205.57741295 52.07051459 -205 47 C-203.76660889 46.80889648 -202.53321777 46.61779297 -201.26245117 46.42089844 C-196.58911576 45.69539947 -191.91686271 44.96311479 -187.24487305 44.22900391 C-185.24092062 43.91504122 -183.2366969 43.60280421 -181.23217773 43.29248047 C-170.34899659 41.60639224 -159.53783627 39.78940179 -148.7759552 37.44366455 C-143.65678449 36.33117531 -138.53074929 35.35155716 -133.3671875 34.46875 C-124.90783854 33.01463793 -116.51375097 31.31566877 -108.125 29.5 C-106.96312164 29.24872345 -106.96312164 29.24872345 -105.777771 28.99237061 C-73.49980056 21.97251677 -41.82603487 13.49954638 -10.56591797 2.82763672 C-9.48068848 2.46041504 -8.39545898 2.09319336 -7.27734375 1.71484375 C-6.30917725 1.38476318 -5.34101074 1.05468262 -4.34350586 0.71459961 C-2 -0 -2 -0 0 0 Z " fill="#4DFFFF" transform="translate(1999,0)"/>
<path d="M0 0 C0.33 0 0.66 0 1 0 C1.06469482 0.68288086 1.12938965 1.36576172 1.19604492 2.06933594 C2.66260311 17.09998384 4.6926756 31.51356049 9 46 C9.3710083 47.28100586 9.3710083 47.28100586 9.74951172 48.58789062 C15.08706234 66.74829512 22.77521329 83.42096991 35 98 C35.72960938 98.88042969 36.45921875 99.76085937 37.2109375 100.66796875 C53.45274007 119.50276085 75.63224671 129.56311574 100 133 C105.59087314 133.40454923 111.15446621 133.43880895 116.75756836 133.43237305 C118.37553137 133.44141582 119.99348758 133.45174908 121.61143494 133.46325684 C125.95340213 133.49055807 130.29523842 133.50007429 134.63728023 133.50611091 C139.19366829 133.51556545 143.74996121 133.54177388 148.30628967 133.56611633 C156.91185107 133.60959189 165.51739381 133.6382547 174.1230312 133.66143972 C183.92977746 133.68859363 193.73642711 133.73249837 203.54310405 133.77772844 C223.69535054 133.87030301 243.84762596 133.94210747 264 134 C263.03886497 135.76502273 262.0773764 137.52985295 261.11573792 139.29460144 C260.58034677 140.27741183 260.04495562 141.26022223 259.49334049 142.27281475 C257.89177545 145.19764307 256.25586376 148.0996954 254.58984375 150.98828125 C253.99937256 152.01260254 253.40890137 153.03692383 252.80053711 154.09228516 C252.18573486 155.15495605 251.57093262 156.21762695 250.9375 157.3125 C250.28338135 158.44478027 249.6292627 159.57706055 248.95532227 160.74365234 C244.29649992 168.79904305 239.58221897 176.82065476 234.83666992 184.82519531 C230.94670605 191.38828986 227.08988165 197.96998775 223.25 204.5625 C218.05149603 213.48493579 212.8452677 222.40278202 207.625 231.3125 C207.26847351 231.92107849 206.91194702 232.52965698 206.5446167 233.15667725 C201.35155279 242.01836213 196.12241719 250.85787164 190.875 259.6875 C185.0506679 269.48996351 179.32311703 279.3439945 173.64404297 289.23120117 C169.15931253 297.02569794 164.59781185 304.77173939 160 312.5 C154.70494155 321.40045058 149.47382475 330.33382055 144.3125 339.3125 C139.28270726 348.06214853 134.20118012 356.77762649 129.05615234 365.45996094 C111.78892121 394.59169035 111.78892121 394.59169035 95 424 C94.60409668 424.70382812 94.20819336 425.40765625 93.80029297 426.1328125 C69.80956084 469.0732637 55.34833054 517.36169279 47.6875 565.75 C47.44821777 567.24684326 47.44821777 567.24684326 47.20410156 568.77392578 C45.940267 577.23157365 45.53934488 585.37048198 45 594 C30.15 594 15.3 594 0 594 C0 397.98 0 201.96 0 0 Z " fill="#FEFEFF" transform="translate(0,85)"/>
<path d="M0 0 C11.2224562 -0.06958513 22.44486085 -0.12285458 33.66748905 -0.15543652 C38.87890825 -0.17107613 44.09017957 -0.1922834 49.30151367 -0.22631836 C54.33303209 -0.2589724 59.36440848 -0.27686583 64.3960247 -0.28463173 C66.31332064 -0.29016437 68.23060902 -0.3009683 70.14784431 -0.31719017 C72.83839697 -0.33904476 75.52836665 -0.34196357 78.21899414 -0.34057617 C79.00734146 -0.351362 79.79568878 -0.36214783 80.60792542 -0.3732605 C87.51769398 -0.33483849 92.8801805 1.60649334 98.25 6.125 C99.21679688 6.90230469 99.21679688 6.90230469 100.203125 7.6953125 C104.76141855 13.54181944 105.44239016 20.7201176 105.37854004 27.9042511 C105.38307017 28.75381463 105.3876003 29.60337816 105.3922677 30.47868603 C105.40381543 33.3014616 105.39427506 36.12375623 105.38476562 38.9465332 C105.3888748 40.98122461 105.39433772 43.01591365 105.40104675 45.05059814 C105.41275085 49.42446412 105.41526309 53.79820397 105.41069031 58.1720829 C105.40385064 65.11577845 105.41980541 72.05931011 105.43908691 79.00297546 C105.4769129 93.77280812 105.48970856 108.54262638 105.5 123.3125 C105.51110404 139.19690988 105.52682925 155.08124323 105.57071257 170.96560162 C105.58591602 176.72320668 105.59504371 182.48068082 105.58930969 188.23830605 C105.5543223 225.59228092 107.53353385 260.87792781 118 297 C118.31710937 298.12535156 118.63421875 299.25070312 118.9609375 300.41015625 C121.06461445 307.60473143 123.77630342 314.24362634 127 321 C127.69187423 322.58142681 128.37962778 324.16466527 129.0625 325.75 C130.29653315 328.56561033 131.65892725 331.18304294 133.25 333.8125 C135 337 135 337 135 341 C135.66 341 136.32 341 137 341 C137.25652344 341.48726562 137.51304687 341.97453125 137.77734375 342.4765625 C146.69078873 358.9829421 157.58558856 373.92754164 170.54052734 387.47314453 C171.52508427 388.50315775 172.5044814 389.53812459 173.47900391 390.57763672 C188.28674795 406.33391952 205.96008795 418.8392777 225 429 C226.0725 429.60457031 227.145 430.20914062 228.25 430.83203125 C237.83611247 436.18420162 247.65851789 440.33419249 258 444 C258.72606445 444.26022949 259.45212891 444.52045898 260.20019531 444.78857422 C284.25490468 453.27498958 309.5893482 457.63034785 335 459 C335 459.33 335 459.66 335 460 C141.29 460 -52.42 460 -252 460 C-252 459.67 -252 459.34 -252 459 C-251.01664673 458.95625244 -251.01664673 458.95625244 -250.01342773 458.91162109 C-225.92181245 457.73520368 -201.99554047 454.23955113 -179.02050781 446.65625 C-176.73904746 445.91524403 -174.44566928 445.2217682 -172.1484375 444.53125 C-164.58135993 442.23928801 -157.16590393 439.92506785 -150.0390625 436.4609375 C-147.55042094 435.26459824 -145.05499901 434.13924173 -142.5234375 433.0390625 C-113.9864783 420.59743992 -88.57644312 403.78511952 -64.97265625 383.54296875 C-62.91837351 381.7856257 -60.85607501 380.04699225 -58.7734375 378.32421875 C-56.01110538 376.00930662 -53.51691808 373.57830633 -51 371 C-50.46503906 370.47535156 -49.93007813 369.95070313 -49.37890625 369.41015625 C-45.01823836 365.127184 -41.00235893 360.61591798 -37 356 C-36.47664062 355.40453369 -35.95328125 354.80906738 -35.4140625 354.19555664 C-11.2176538 326.52980993 8.53762287 293.01550601 20.78125 258.375 C22 255 22 255 23.45727539 251.71875 C24.94994751 248.25612002 25.97300097 244.78430311 26.90234375 241.125 C27.06500229 240.48701981 27.22766083 239.84903961 27.39524841 239.19172668 C27.91724028 237.12970513 28.4286747 235.06530763 28.9375 233 C29.11363831 232.28991791 29.28977661 231.57983582 29.47125244 230.84823608 C32.56680141 218.31916081 35.21293315 205.78945802 37 193 C37.11569336 192.21415527 37.23138672 191.42831055 37.35058594 190.61865234 C46.1344049 128.54546288 32.72799221 62.18825422 2.84399414 7.45581055 C0 2.20807479 0 2.20807479 0 0 Z " fill="#FDFEFF" transform="translate(1045,219)"/>
<path d="M0 0 C1.7418847 1.48521213 3.47239329 2.98394383 5.1875 4.5 C5.82300781 5.05171875 6.45851563 5.6034375 7.11328125 6.171875 C21.3991915 19.43970889 32.18283312 41.00683415 33.36450195 60.40576172 C33.92952389 88.28768089 29.12075798 112.21445268 9.36962891 133.22216797 C7.98707444 134.65925365 6.58759057 136.07999349 5.1875 137.5 C4.45660156 138.24378906 3.72570313 138.98757813 2.97265625 139.75390625 C-3.21302729 145.64009673 -10.33935783 149.50481182 -17.8125 153.5 C-18.87597656 154.11875 -18.87597656 154.11875 -19.9609375 154.75 C-38.75748963 165.25636975 -65.52935129 165.17585471 -85.8125 159.5 C-110.07582032 151.88955127 -129.5692791 135.65056413 -141.8125 113.5 C-152.50917925 92.98854856 -155.5328173 68.60775135 -149.1472168 46.23120117 C-145.22024892 33.76723106 -139.01023936 22.65987576 -130.8125 12.5 C-130.24917969 11.78457031 -129.68585938 11.06914063 -129.10546875 10.33203125 C-124.63202327 4.91570498 -119.4284106 0.68783973 -113.8125 -3.5 C-113.16152344 -4.01304687 -112.51054688 -4.52609375 -111.83984375 -5.0546875 C-78.93333492 -29.26027053 -30.99382202 -24.80347985 0 0 Z " fill="#FF7300" transform="translate(1867.8125,516.5)"/>
</svg>
